<?xml version="1.0" encoding="utf-8"?>
<!-- Generator: Adobe Illustrator 21.1.0, SVG Export Plug-In . SVG Version: 6.00 Build 0)  -->
<svg version="1.1" id="Laag_1" xmlns="http://www.w3.org/2000/svg" xmlns:xlink="http://www.w3.org/1999/xlink" x="0px" y="0px"
	 viewBox="0 0 157.1 157.1" style="enable-background:new 0 0 157.1 157.1;" xml:space="preserve">
<style type="text/css">
	.st0{fill:none;stroke:#0A0C06;stroke-linejoin:bevel;stroke-miterlimit:22.9256;}
	.st1{fill:#02FF00;}
	.st2{fill:#FF6633;}
	.st3{fill:#0066FF;stroke:#0066FF;stroke-miterlimit:22.9256;}
	.st4{fill:none;stroke:#0066FF;stroke-miterlimit:22.9256;}
</style>
<path class="st0" d="M9.3,0.5C7,0.5,4.7,1.4,3.1,3.1C1.4,4.7,0.5,6.9,0.5,9.3"/>
<path class="st0" d="M0.5,147.8c0,2.3,0.9,4.6,2.6,6.2c1.6,1.6,3.9,2.6,6.2,2.6"/>
<path class="st0" d="M156.6,9.3c0-2.3-0.9-4.6-2.6-6.2c-1.6-1.6-3.9-2.6-6.2-2.6"/>
<line class="st0" x1="147.8" y1="0.5" x2="9.3" y2="0.5"/>
<path class="st0" d="M147.8,156.6c2.3,0,4.6-0.9,6.2-2.6c1.6-1.6,2.6-3.9,2.6-6.2"/>
<line class="st0" x1="0.5" y1="9.3" x2="0.5" y2="147.8"/>
<line class="st0" x1="9.3" y1="156.6" x2="147.8" y2="156.6"/>
<line class="st0" x1="156.6" y1="147.8" x2="156.6" y2="9.3"/>
<path class="st0" d="M139.4,137.2c0-39.1,0-97.9,0-117.4"/>
<path class="st0" d="M19.8,139.4c39.1,0,97.9,0,117.4,0"/>
<path class="st0" d="M137.3,139.4c0.6,0,1.3-0.4,1.5-0.6c0.4-0.4,0.6-1.2,0.6-1.5"/>
<path class="st0" d="M102.9,17.6c0,40.6,0,101.5,0,121.8"/>
<path class="st0" d="M139.4,19.8c0-0.6-0.4-1.3-0.6-1.5c-0.4-0.4-1.2-0.6-1.5-0.6"/>
<path class="st0" d="M54.2,17.6c0,40.6,0,101.4,0,121.7"/>
<path class="st0" d="M54.4,20.4c16.1,0,40.4,0,48.4,0"/>
<path class="st0" d="M102.6,136.6c-16.1,0-40.2,0-48.2,0"/>
<path class="st0" d="M17.6,137.2c0-39.1,0-97.9,0-117.4"/>
<path class="st0" d="M19.8,139.4c-0.6,0-1.3-0.4-1.5-0.6c-0.4-0.4-0.6-1.2-0.6-1.5"/>
<path class="st0" d="M54.2,17.6c0,0.3,0,0.7,0,0.8"/>
<path class="st0" d="M17.6,19.8c0-0.6,0.4-1.3,0.6-1.5c0.4-0.4,1.2-0.6,1.5-0.6"/>
<path class="st0" d="M19.8,17.6c39.1,0,97.9,0,117.4,0"/>
<rect x="77.5" y="29.7" class="st1" width="2.1" height="4.2"/>
<g>
	<path class="st2" d="M69,122.1c0,1.7-0.8,2.5-2.4,2.6h-0.2l1,0.9c0.5,0.6,0.6,1.1,0.1,1.7c-0.5,0.5-1,0.5-1.7,0l-2.4-2.3
		c-0.6-0.5-0.9-0.8-0.9-1.2c0-0.9,0.4-1.3,1.3-1.3h2.8c0.3,0,0.4-0.1,0.4-0.3s-0.1-0.3-0.4-0.3h-3c-0.7,0-1.1-0.4-1.1-1.1
		c0-0.8,0.3-1.1,1.1-1.1h2.9C68.1,119.5,69,120.4,69,122.1z"/>
	<path class="st2" d="M69.6,123.6c0-0.6,0.1-1.1,0.3-1.6c0.2-0.5,0.5-0.9,0.9-1.3s0.8-0.7,1.3-0.9c0.5-0.2,1-0.3,1.6-0.3
		s1.1,0.1,1.6,0.3c0.5,0.2,0.9,0.5,1.3,0.9s0.7,0.8,0.9,1.3c0.2,0.5,0.3,1,0.3,1.6s-0.1,1.1-0.3,1.6c-0.2,0.5-0.5,0.9-0.9,1.3
		s-0.8,0.7-1.3,0.9c-0.5,0.2-1,0.3-1.6,0.3s-1.1-0.1-1.6-0.3c-0.5-0.2-0.9-0.5-1.3-0.9s-0.7-0.8-0.9-1.3S69.6,124.1,69.6,123.6z
		 M71.9,123.6c0,0.3,0,0.5,0.1,0.7s0.2,0.4,0.4,0.6c0.2,0.2,0.4,0.3,0.6,0.4s0.5,0.1,0.7,0.1c0.3,0,0.5,0,0.7-0.1s0.4-0.2,0.6-0.4
		c0.2-0.2,0.3-0.4,0.4-0.6s0.1-0.5,0.1-0.7s0-0.5-0.1-0.7s-0.2-0.4-0.4-0.6c-0.2-0.2-0.4-0.3-0.6-0.4s-0.5-0.1-0.7-0.1
		c-0.3,0-0.5,0-0.7,0.1s-0.4,0.2-0.6,0.4c-0.2,0.2-0.3,0.4-0.4,0.6C72,123.1,71.9,123.3,71.9,123.6z"/>
	<path d="M79.9,124.7c-0.7,0-1.1-0.4-1.1-1.1s0.4-1.1,1.1-1.1h3.5c0.3,0,0.4-0.1,0.4-0.3s-0.1-0.3-0.4-0.3h-3.5c-0.7,0-1-0.4-1-1.1
		c0-0.8,0.3-1.1,1-1.1h4.3c1,0,1.6,0.3,1.8,1c0.3,0.7,0.3,1.3,0.1,2c-0.2,0.6-0.7,1-1.4,1.1c0.7,0.1,1.2,0.5,1.4,1.1
		c0.2,0.6,0.2,1.3-0.1,1.9c-0.3,0.7-0.9,1-1.8,1h-4.3c-0.7,0-1.1-0.4-1.1-1.1c0-0.8,0.4-1.1,1.1-1.1h3.4c0.3,0,0.4-0.1,0.4-0.3
		c0-0.2-0.1-0.3-0.4-0.3L79.9,124.7L79.9,124.7L79.9,124.7z"/>
	<path d="M88.3,124.7c-0.7,0-1.1-0.4-1.1-1.1s0.4-1.1,1.1-1.1h3.5c0.3,0,0.4-0.1,0.4-0.3s-0.1-0.3-0.4-0.3h-3.5c-0.7,0-1-0.4-1-1.1
		c0-0.8,0.3-1.1,1-1.1h4.3c1,0,1.6,0.3,1.8,1c0.3,0.7,0.3,1.3,0.1,2c-0.2,0.6-0.7,1-1.4,1.1c0.7,0.1,1.2,0.5,1.4,1.1
		c0.2,0.6,0.2,1.3-0.1,1.9c-0.3,0.7-0.9,1-1.8,1h-4.3c-0.7,0-1.1-0.4-1.1-1.1c0-0.8,0.4-1.1,1.1-1.1h3.4c0.3,0,0.4-0.1,0.4-0.3
		c0-0.2-0.1-0.3-0.4-0.3L88.3,124.7L88.3,124.7z"/>
	<g>
		<path d="M63.4,130.1C63.3,130.1,63.3,130.1,63.4,130.1C63.3,130.1,63.3,130.1,63.4,130.1C63.3,130.1,63.3,130.1,63.4,130.1h-0.2
			h-0.1c-0.1,0-0.1,0-0.2,0c0,0-0.1,0-0.1,0.1s-0.1,0.1-0.1,0.1v0.1c0,0.1,0,0.1,0,0.1l0.1,0.1c0,0,0.1,0,0.1,0.1H63
			c0,0,0.1,0,0.1,0.1c0,0,0.1,0,0.1,0.1l0.1,0.1c0,0,0,0.1,0,0.2c0,0.1,0,0.1,0,0.2c0,0.1-0.1,0.1-0.1,0.2c0,0-0.1,0.1-0.2,0.1
			c-0.1,0-0.1,0-0.2,0c-0.1,0-0.2,0-0.3-0.1c-0.1,0-0.1-0.1-0.2-0.2l0,0l0,0l0,0l0,0c0,0,0,0,0.1,0s0,0,0.1,0h0.1h0.1
			c0.1,0,0.1,0,0.2,0c0,0,0.1,0,0.1-0.1l0.1-0.1v-0.1c0-0.1,0-0.1,0-0.1l-0.1-0.1c0,0-0.1,0-0.1-0.1h-0.1c0,0-0.1,0-0.1-0.1
			c0,0-0.1,0-0.1-0.1l-0.1-0.1c0,0,0-0.1,0-0.2c0-0.1,0-0.1,0-0.2s0-0.1,0.1-0.1l0.1-0.1c0.1,0,0.1,0,0.2,0c0.1,0,0.2,0,0.2,0
			C63.3,130,63.3,130,63.4,130.1L63.4,130.1z"/>
		<path d="M69.2,131.1L69.2,131.1C69.3,131.1,69.3,131.1,69.2,131.1l0.7-1.2l0,0l0,0H70v1.6h-0.1v-1.4c0,0,0,0,0-0.1L69.2,131.1
			c0,0.1,0,0.1,0,0.1l0,0C69.2,131.2,69.2,131.2,69.2,131.1l-0.7-1c0,0,0,0,0,0.1v1.4h-0.1V130h0.1l0,0l0,0L69.2,131.1L69.2,131.1z"
			/>
		<path d="M76.4,131.5L76.4,131.5C76.3,131.5,76.3,131.5,76.4,131.5L76.4,131.5L76,131h-0.8l-0.2,0.5l0,0l0,0h-0.1l0.7-1.6h0.1
			L76.4,131.5z M75.3,130.9H76l-0.3-0.8l0,0l0,0l0,0l0,0L75.3,130.9z"/>
		<path d="M81.4,130.8v0.7h-0.1v-1.6h0.4c0.2,0,0.3,0,0.4,0.1s0.1,0.2,0.1,0.3s0,0.1,0,0.2c0,0,0,0.1-0.1,0.1l-0.1,0.1
			c-0.1,0-0.1,0-0.2,0l0,0l0.5,0.7h-0.1l0,0l0,0l-0.5-0.6l0,0c0,0,0,0-0.1,0H81.4L81.4,130.8L81.4,130.8z M81.4,130.7h0.3
			c0.1,0,0.1,0,0.2,0s0.1,0,0.1-0.1l0.1-0.1v-0.1c0-0.1,0-0.2-0.1-0.3s-0.2-0.1-0.3-0.1h-0.3L81.4,130.7L81.4,130.7L81.4,130.7z"/>
		<path d="M87.6,130.8v0.7h-0.1v-1.6h0.4c0.2,0,0.3,0,0.4,0.1s0.1,0.2,0.1,0.3s0,0.1,0,0.2c0,0,0,0.1-0.1,0.1l-0.1,0.1
			c-0.1,0-0.1,0-0.2,0l0,0l0.5,0.7h-0.1l0,0l0,0l-0.5-0.6l0,0c0,0,0,0-0.1,0H87.6L87.6,130.8z M87.6,130.7h0.3c0.1,0,0.1,0,0.2,0
			s0.1,0,0.1-0.1l0.1-0.1v-0.1c0-0.1,0-0.2-0.1-0.3S88,130,87.9,130h-0.3V130.7L87.6,130.7L87.6,130.7z"/>
		<path d="M94.5,129.9L94.5,129.9l-0.6,0.1v1.5h-0.1V130h-0.6v-0.1H94.5z"/>
	</g>
</g>
<line class="st3" x1="35.9" y1="75" x2="35.9" y2="82.7"/>
<circle class="st4" cx="121.1" cy="78.8" r="3.8"/>
</svg>
