<?xml version="1.0" encoding="utf-8"?>
<!-- Generator: Adobe Illustrator 21.1.0, SVG Export Plug-In . SVG Version: 6.00 Build 0)  -->
<svg version="1.1" id="Laag_1" xmlns="http://www.w3.org/2000/svg" xmlns:xlink="http://www.w3.org/1999/xlink" x="0px" y="0px"
	 viewBox="0 0 118.5 118.5" style="enable-background:new 0 0 118.5 118.5;" xml:space="preserve">
<style type="text/css">
	.st0{fill:none;stroke:#000000;stroke-miterlimit:22.9256;}
	.st1{fill:none;stroke:#000000;stroke-linejoin:bevel;stroke-miterlimit:22.9256;}
	.st2{fill:#0200FF;}
	.st3{stroke:#000000;stroke-width:0.25;stroke-miterlimit:22.9256;}
	.st4{fill-rule:evenodd;clip-rule:evenodd;stroke:#000000;stroke-width:0.25;stroke-miterlimit:22.9256;}
	.st5{fill:#FF6633;}
</style>
<path class="st0" d="M91.5,18.9"/>
<path class="st0" d="M27.2,18.9"/>
<path class="st1" d="M105,14.5"/>
<path class="st1" d="M7.1,0.5c-1.8,0-3.4,0.7-4.7,1.9C1.2,3.7,0.5,5.3,0.5,7.1"/>
<path class="st1" d="M0.5,111.4c0,1.8,0.7,3.4,1.9,4.7c1.2,1.2,2.9,1.9,4.7,1.9"/>
<path class="st1" d="M118,7.1c0-1.8-0.7-3.4-1.9-4.7c-1.2-1.2-2.9-1.9-4.7-1.9"/>
<line class="st1" x1="111.4" y1="0.5" x2="7.1" y2="0.5"/>
<path class="st1" d="M111.4,118c1.8,0,3.4-0.7,4.7-1.9c1.2-1.2,1.9-2.9,1.9-4.7"/>
<line class="st1" x1="0.5" y1="7.1" x2="0.5" y2="111.4"/>
<line class="st1" x1="7.1" y1="118" x2="111.4" y2="118"/>
<line class="st1" x1="118" y1="111.4" x2="118" y2="7.1"/>
<path class="st1" d="M78.1,105c-0.2,0-0.4,0-0.5,0"/>
<path class="st1" d="M105.1,103.4c0-7.1,0-17.7,0-21.2"/>
<path class="st1" d="M105.1,58.9c0-7.4,0-18.6,0-22.3"/>
<path class="st1" d="M78.1,105c8.5,0,21.2,0,25.4,0"/>
<path class="st1" d="M13.5,59.4c9.2,0,22.9,0,27.5,0"/>
<path class="st1" d="M103.4,105c0.5,0,1-0.3,1.2-0.5c0.3-0.3,0.5-0.9,0.5-1.2"/>
<path class="st1" d="M13.5,58.9c0,0.2,0,0.4,0,0.5"/>
<path class="st1" d="M77.6,13.4c-12.2,0-30.5,0-36.6,0"/>
<path class="st1" d="M13.4,82.2c0-7.4,0-19.1,0-22.8"/>
<path class="st1" d="M77.6,82.2c0,7.1,0,17.8,0,21.4"/>
<path class="st1" d="M77.6,104.4c0,0.2,0,0.5,0,0.6"/>
<path class="st1" d="M77.6,103.6c0,0.3,0,0.7,0,0.8"/>
<path class="st1" d="M105.1,15c0-0.5-0.3-1-0.5-1.2c-0.3-0.3-0.9-0.5-1.2-0.5"/>
<path class="st1" d="M78.1,13.3c-0.2,0-0.4,0-0.5,0"/>
<path class="st1" d="M105.1,36.7c0-7.1,0-18.1,0-21.7"/>
<path class="st1" d="M103.4,13.3c-8.5,0-21.2,0-25.4,0"/>
<path class="st1" d="M40.9,82.2c0,7.1,0,17.8,0,21.4"/>
<path class="st1" d="M40.9,103.6c0,0.5,0,1.2,0,1.4"/>
<path class="st1" d="M41.1,15.5c12.1,0,30.3,0,36.3,0"/>
<path class="st1" d="M77.6,14.8c0,14.7,0,36.8,0,44.1"/>
<path class="st1" d="M77.4,102.9c-12.1,0-30.3,0-36.3,0"/>
<path class="st1" d="M77.4,15.5c0,29.2,0,72.9,0,87.5"/>
<path class="st1" d="M77.6,13.4c0,0.2,0,0.5,0,0.6"/>
<path class="st1" d="M77.6,14c0,0.3,0,0.7,0,0.8"/>
<path class="st1" d="M105,59.4c0-0.2,0-0.4,0-0.5"/>
<path class="st1" d="M105.1,82.2c0-7.4,0-19.1,0-22.8"/>
<path class="st1" d="M13.4,58.9c0-7.4,0-19.1,0-22.8"/>
<path class="st1" d="M40.9,36.7c0,7.4,0,18.6,0,22.3"/>
<path class="st1" d="M40.4,105c-8.5,0-21.2,0-25.4,0"/>
<path class="st1" d="M40.4,105c0.2,0,0.4,0,0.5,0"/>
<path class="st1" d="M41.1,102.9c0-29.2,0-72.9,0-87.5"/>
<path class="st1" d="M13.4,103.4c0-7.1,0-17.7,0-21.2"/>
<path class="st1" d="M15,105c-0.5,0-1-0.3-1.2-0.5c-0.3-0.3-0.5-0.9-0.5-1.2"/>
<path class="st1" d="M40.9,13.4c0,0.2,0,0.5,0,0.6"/>
<path class="st1" d="M40.9,14.8c0,7.3,0,18.2,0,21.9"/>
<path class="st1" d="M40.9,14c0,0.3,0,0.7,0,0.8"/>
<path class="st1" d="M13.4,36.2c0-7.1,0-17.7,0-21.2"/>
<path class="st1" d="M13.4,15c0-0.5,0.3-1,0.5-1.2c0.3-0.3,0.9-0.5,1.2-0.5"/>
<path class="st1" d="M40.4,13.3c0.2,0,0.4,0,0.5,0"/>
<path class="st1" d="M77.6,59.4c0,7.6,0,19,0,22.8"/>
<path class="st1" d="M105,59.4c-9.2,0-22.9,0-27.5,0"/>
<path class="st1" d="M40.9,59.4c0,7.6,0,19,0,22.8"/>
<path class="st1" d="M15,13.3c8.5,0,21.2,0,25.4,0"/>
<path class="st1" d="M40.9,105c12.2,0,30.5,0,36.6,0"/>
<rect x="58.5" y="22.6" class="st2" width="1.5" height="3.1"/>
<path class="st3" d="M90.1,77.7 M91.4,78.4c0-0.3-0.2-0.4-0.5-0.4h-0.4v0.8H91C91.3,78.9,91.4,78.7,91.4,78.4z M91.8,80.1h-0.3
	c0-0.1,0-0.2-0.1-0.3c0-0.1,0-0.2,0-0.3c0-0.2,0-0.3-0.1-0.4c-0.1-0.1-0.2-0.1-0.3-0.1h-0.4v1h-0.3v-2.3H91c0.3,0,0.5,0.1,0.6,0.2
	c0.1,0.1,0.2,0.3,0.2,0.5c0,0.3-0.2,0.5-0.5,0.6c0.2,0,0.3,0.1,0.3,0.1c0.1,0.1,0.1,0.2,0.1,0.3c0,0.1,0,0.3,0,0.5
	C91.7,80,91.8,80.1,91.8,80.1L91.8,80.1z"/>
<path class="st3" d="M94.4,84.9 M94.3,83.9v-0.2h0.8v1.2h-0.2v-0.4c-0.1,0.3-0.3,0.4-0.5,0.4c-0.2,0-0.4-0.1-0.5-0.3
	c-0.1-0.2-0.2-0.5-0.2-0.9c0-0.4,0.1-0.8,0.2-1c0.1-0.2,0.3-0.3,0.6-0.3c0.2,0,0.4,0.1,0.5,0.2c0.1,0.1,0.2,0.3,0.2,0.5h-0.3
	c0-0.3-0.2-0.5-0.4-0.5c-0.2,0-0.3,0.1-0.4,0.2c-0.1,0.1-0.1,0.4-0.1,0.8c0,0.4,0,0.6,0.1,0.7c0.1,0.1,0.2,0.2,0.4,0.2
	c0.2,0,0.3-0.1,0.4-0.2c0.1-0.1,0.1-0.3,0.1-0.6H94.3z"/>
<path class="st3" d="M87.3,83.7h0.3c0.2,0,0.3,0,0.3-0.1c0.1-0.1,0.1-0.2,0.1-0.3c0-0.1,0-0.2-0.1-0.3c-0.1,0-0.2-0.1-0.3-0.1h0
	h-0.2V83.7z M87.3,84.8h0.4c0.1,0,0.2,0,0.3-0.1c0.1-0.1,0.1-0.2,0.1-0.3c0-0.2,0-0.3-0.1-0.3C87.9,84,87.8,84,87.6,84h-0.3V84.8z
	 M87,85.1v-2.3h0.6c0.2,0,0.4,0.1,0.5,0.2c0.1,0.1,0.2,0.2,0.2,0.4c0,0.1,0,0.2-0.1,0.3c-0.1,0.1-0.1,0.1-0.3,0.2
	c0.3,0,0.4,0.2,0.4,0.6c0,0.5-0.2,0.7-0.7,0.7H87z"/>
<path class="st4" d="M87.5,81.9C87.5,81.9,87.5,81.9,87.5,81.9c-0.1,0-0.1-0.1-0.1-0.1c0-1.1,0.7-2.1,1.7-2.5c0.1,0,0.1,0,0.2,0.1
	c0,0.1,0,0.1-0.1,0.2c-0.9,0.4-1.5,1.3-1.5,2.3C87.7,81.9,87.6,81.9,87.5,81.9"/>
<path class="st4" d="M90.9,86.2c-0.6,0-1.2-0.2-1.7-0.6c-0.1-0.1-0.2-0.2-0.3-0.3c0,0,0-0.1,0-0.2c0,0,0.1,0,0.2,0
	c0.1,0.1,0.2,0.2,0.3,0.3c0.4,0.3,1,0.5,1.5,0.5c0.7,0,1.4-0.3,1.8-0.8c0,0,0.1-0.1,0.2,0c0,0,0.1,0.1,0,0.2
	C92.4,85.9,91.7,86.2,90.9,86.2L90.9,86.2z"/>
<path class="st4" d="M94.2,81.8c-0.1,0-0.1-0.1-0.1-0.1c0-1-0.6-1.9-1.6-2.3c-0.1,0-0.1-0.1-0.1-0.2c0-0.1,0.1-0.1,0.2-0.1
	c1,0.4,1.7,1.4,1.7,2.5C94.3,81.8,94.2,81.8,94.2,81.8C94.2,81.8,94.2,81.8,94.2,81.8"/>
<g>
	<path class="st3" d="M27,37.1v-4.6h0.4v4.6H27z M28.8,34.3c0.5,0.3,0.9,0.7,1.2,1.2c0.3,0.5,0.4,1,0.4,1.6c0,0.9-0.4,1.7-0.9,2.3
		c-0.6,0.6-1.4,0.9-2.3,0.9c-0.9,0-1.7-0.4-2.3-0.9c-0.6-0.6-0.9-1.4-0.9-2.3c0-0.6,0.2-1.1,0.4-1.6c0.3-0.5,0.7-0.9,1.2-1.2
		l0.2,0.3c-0.4,0.3-0.8,0.6-1.1,1.1c-0.2,0.4-0.4,0.9-0.4,1.4c0,0.8,0.3,1.5,0.8,2c0.5,0.5,1.2,0.8,2,0.8c0.8,0,1.5-0.3,2-0.8
		c0.5-0.5,0.8-1.2,0.8-2c0-0.5-0.1-1-0.4-1.4c-0.2-0.4-0.6-0.8-1.1-1.1L28.8,34.3z"/>
</g>
<g>
	<path class="st3" d="M92.7,35c-0.4-0.4-0.9-0.6-1.5-0.6c-0.6,0-1.1,0.2-1.5,0.6h0c-0.4,0.4-0.6,0.9-0.6,1.5c0,0.6,0.2,1.1,0.6,1.5
		h0c0.4,0.4,0.9,0.6,1.5,0.6c0.6,0,1.1-0.2,1.5-0.6h0c0.4-0.4,0.6-0.9,0.6-1.5C93.3,35.9,93,35.4,92.7,35L92.7,35z M89.6,38.3l-1,1
		L88.4,39l1-1c-0.3-0.4-0.5-0.9-0.6-1.4h-1.4v-0.4h1.4c0-0.5,0.3-1,0.6-1.4l-1-1l0.3-0.3l1,1c0.4-0.3,0.9-0.5,1.4-0.6v-1.4h0.4V34
		c0.5,0,1,0.3,1.4,0.6l1-1l0.3,0.3l-1,1c0.3,0.4,0.5,0.9,0.6,1.4H95v0.4h-1.4c0,0.5-0.3,1-0.6,1.4l1,1l-0.3,0.3l-1-1
		c-0.4,0.3-0.9,0.5-1.4,0.6v1.4H91v-1.4C90.5,38.8,90,38.6,89.6,38.3z"/>
</g>
<polygon class="st3" points="24.9,84.4 25.4,84.4 26.5,80.1 27.7,84.4 28.2,84.4 29.5,79.4 29,79.4 27.9,83.7 26.8,79.4 26.3,79.4 
	25.2,83.7 24.1,79.4 23.6,79.4 "/>
<g>
	<path class="st5" d="M51.9,92.8c0,1.3-0.6,1.9-1.8,1.9H50l0.7,0.7c0.4,0.4,0.4,0.8,0.1,1.3c-0.4,0.4-0.7,0.4-1.3,0l-1.8-1.7
		c-0.4-0.4-0.7-0.6-0.7-0.9c0-0.7,0.3-1,1-1h2.1c0.2,0,0.3-0.1,0.3-0.2c0-0.1-0.1-0.2-0.3-0.2h-2.2c-0.5,0-0.8-0.3-0.8-0.8
		c0-0.6,0.2-0.8,0.8-0.8h2.2C51.3,90.8,51.9,91.5,51.9,92.8z"/>
	<path class="st5" d="M52.4,93.9c0-0.4,0.1-0.8,0.2-1.2c0.1-0.4,0.4-0.7,0.7-1c0.3-0.3,0.6-0.5,1-0.7c0.4-0.1,0.7-0.2,1.2-0.2
		s0.8,0.1,1.2,0.2c0.4,0.1,0.7,0.4,1,0.7c0.3,0.3,0.5,0.6,0.7,1c0.1,0.4,0.2,0.7,0.2,1.2s-0.1,0.8-0.2,1.2c-0.1,0.4-0.4,0.7-0.7,1
		c-0.3,0.3-0.6,0.5-1,0.7c-0.4,0.1-0.7,0.2-1.2,0.2s-0.8-0.1-1.2-0.2c-0.4-0.1-0.7-0.4-1-0.7c-0.3-0.3-0.5-0.6-0.7-1
		C52.5,94.7,52.4,94.3,52.4,93.9z M54.1,93.9c0,0.2,0,0.4,0.1,0.5c0.1,0.1,0.1,0.3,0.3,0.4c0.1,0.1,0.3,0.2,0.4,0.3
		c0.1,0.1,0.4,0.1,0.5,0.1c0.2,0,0.4,0,0.5-0.1c0.1-0.1,0.3-0.1,0.4-0.3s0.2-0.3,0.3-0.4c0.1-0.1,0.1-0.4,0.1-0.5
		c0-0.2,0-0.4-0.1-0.5c-0.1-0.1-0.1-0.3-0.3-0.4c-0.1-0.1-0.3-0.2-0.4-0.3c-0.1-0.1-0.4-0.1-0.5-0.1c-0.2,0-0.4,0-0.5,0.1
		c-0.1,0.1-0.3,0.1-0.4,0.3s-0.2,0.3-0.3,0.4C54.1,93.5,54.1,93.7,54.1,93.9z"/>
	<path d="M60,94.7c-0.5,0-0.8-0.3-0.8-0.8c0-0.6,0.3-0.8,0.8-0.8h2.6c0.2,0,0.3-0.1,0.3-0.2s-0.1-0.2-0.3-0.2H60
		c-0.5,0-0.7-0.3-0.7-0.8c0-0.6,0.2-0.8,0.7-0.8h3.2c0.7,0,1.2,0.2,1.3,0.7c0.2,0.5,0.2,1,0.1,1.5c-0.1,0.4-0.5,0.7-1,0.8
		c0.5,0.1,0.9,0.4,1,0.8s0.1,1-0.1,1.4c-0.2,0.5-0.7,0.7-1.3,0.7H60c-0.5,0-0.8-0.3-0.8-0.8c0-0.6,0.3-0.8,0.8-0.8h2.5
		c0.2,0,0.3-0.1,0.3-0.2c0-0.1-0.1-0.2-0.3-0.2L60,94.7L60,94.7L60,94.7z"/>
	<path d="M66.3,94.7c-0.5,0-0.8-0.3-0.8-0.8c0-0.6,0.3-0.8,0.8-0.8h2.6c0.2,0,0.3-0.1,0.3-0.2s-0.1-0.2-0.3-0.2h-2.6
		c-0.5,0-0.7-0.3-0.7-0.8c0-0.6,0.2-0.8,0.7-0.8h3.2c0.7,0,1.2,0.2,1.3,0.7c0.2,0.5,0.2,1,0.1,1.5c-0.1,0.4-0.5,0.7-1,0.8
		c0.5,0.1,0.9,0.4,1,0.8s0.1,1-0.1,1.4c-0.2,0.5-0.7,0.7-1.3,0.7h-3.2c-0.5,0-0.8-0.3-0.8-0.8c0-0.6,0.3-0.8,0.8-0.8h2.5
		c0.2,0,0.3-0.1,0.3-0.2c0-0.1-0.1-0.2-0.3-0.2L66.3,94.7L66.3,94.7z"/>
	<g>
		<path d="M47.8,98.7C47.7,98.7,47.7,98.7,47.8,98.7C47.7,98.7,47.7,98.7,47.8,98.7C47.7,98.7,47.7,98.7,47.8,98.7h-0.1h-0.1
			c-0.1,0-0.1,0-0.1,0c0,0-0.1,0-0.1,0.1l-0.1,0.1V99c0,0.1,0,0.1,0,0.1l0.1,0.1c0,0,0.1,0,0.1,0.1h0.1c0,0,0.1,0,0.1,0.1
			c0,0,0.1,0,0.1,0.1l0.1,0.1c0,0,0,0.1,0,0.1c0,0.1,0,0.1,0,0.1c0,0.1-0.1,0.1-0.1,0.1c0,0-0.1,0.1-0.1,0.1c-0.1,0-0.1,0-0.1,0
			s-0.1,0-0.2-0.1c-0.1,0-0.1-0.1-0.1-0.1l0,0l0,0l0,0l0,0c0,0,0,0,0.1,0c0,0,0,0,0.1,0h0.1h0.1c0.1,0,0.1,0,0.1,0
			c0,0,0.1,0,0.1-0.1l0.1-0.1v-0.1c0-0.1,0-0.1,0-0.1l-0.1-0.1c0,0-0.1,0-0.1-0.1h-0.1c0,0-0.1,0-0.1-0.1c0,0-0.1,0-0.1-0.1L47.1,99
			c0,0,0-0.1,0-0.1c0-0.1,0-0.1,0-0.1s0-0.1,0.1-0.1l0.1-0.1c0.1,0,0.1,0,0.1,0s0.1,0,0.1,0C47.7,98.7,47.7,98.7,47.8,98.7
			L47.8,98.7z"/>
		<path d="M52.1,99.5L52.1,99.5C52.1,99.5,52.2,99.5,52.1,99.5l0.5-0.9l0,0l0,0h0.1v1.2h-0.1v-1c0,0,0,0,0-0.1L52.1,99.5
			C52.1,99.6,52.1,99.6,52.1,99.5L52.1,99.5C52.1,99.6,52.1,99.6,52.1,99.5l-0.5-0.7c0,0,0,0,0,0.1v1h-0.1v-1.2h0.1l0,0l0,0
			L52.1,99.5L52.1,99.5z"/>
		<path d="M57.5,99.8L57.5,99.8C57.4,99.8,57.4,99.8,57.5,99.8L57.5,99.8l-0.2-0.4h-0.6l-0.1,0.4l0,0l0,0h-0.1l0.5-1.2H57L57.5,99.8
			z M56.6,99.3h0.5l-0.2-0.6l0,0l0,0l0,0l0,0L56.6,99.3z"/>
		<path d="M61.2,99.3v0.5h-0.1v-1.2h0.3c0.1,0,0.2,0,0.3,0.1c0.1,0.1,0.1,0.1,0.1,0.2c0,0.1,0,0.1,0,0.1s0,0.1-0.1,0.1l-0.1,0.1
			c-0.1,0-0.1,0-0.1,0l0,0l0.4,0.5h-0.1l0,0l0,0l-0.4-0.4l0,0c0,0,0,0-0.1,0H61.2L61.2,99.3L61.2,99.3z M61.2,99.2h0.2
			c0.1,0,0.1,0,0.1,0c0.1,0,0.1,0,0.1-0.1l0.1-0.1V99c0-0.1,0-0.1-0.1-0.2c-0.1-0.1-0.1-0.1-0.2-0.1h-0.2L61.2,99.2L61.2,99.2
			L61.2,99.2z"/>
		<path d="M65.7,99.3v0.5h-0.1v-1.2h0.3c0.1,0,0.2,0,0.3,0.1c0.1,0.1,0.1,0.1,0.1,0.2c0,0.1,0,0.1,0,0.1s0,0.1-0.1,0.1l-0.1,0.1
			c-0.1,0-0.1,0-0.1,0l0,0l0.4,0.5h-0.1l0,0l0,0l-0.4-0.4l0,0c0,0,0,0-0.1,0H65.7L65.7,99.3z M65.7,99.2h0.2c0.1,0,0.1,0,0.1,0
			c0.1,0,0.1,0,0.1-0.1l0.1-0.1V99c0-0.1,0-0.1-0.1-0.2c-0.1-0.1-0.1-0.1-0.2-0.1h-0.1L65.7,99.2L65.7,99.2L65.7,99.2z"/>
		<path d="M70.9,98.6L70.9,98.6l-0.4,0.1v1.1h-0.1v-1.1H70v-0.1H70.9z"/>
	</g>
</g>
</svg>
