<?xml version="1.0" encoding="utf-8"?>
<!-- Generator: Adobe Illustrator 21.1.0, SVG Export Plug-In . SVG Version: 6.00 Build 0)  -->
<svg version="1.1" id="Laag_1" xmlns="http://www.w3.org/2000/svg" xmlns:xlink="http://www.w3.org/1999/xlink" x="0px" y="0px"
	 viewBox="0 0 157.1 157.1" style="enable-background:new 0 0 157.1 157.1;" xml:space="preserve">
<style type="text/css">
	.st0{fill:none;stroke:#0A0C06;stroke-linejoin:bevel;stroke-miterlimit:22.9256;}
	.st1{fill:#1D1D1B;stroke:#000000;stroke-width:0.75;stroke-miterlimit:10;}
	.st2{fill:#1D1D1B;stroke:#0066FF;stroke-width:0.75;stroke-miterlimit:10;}
	.st3{fill:none;stroke:#000000;stroke-width:0.75;stroke-miterlimit:10;}
	.st4{fill:none;stroke:#000000;stroke-miterlimit:10;}
	.st5{fill:#FF6C2C;}
	.st6{fill:#1D1D1B;}
	.st7{fill:#1D1D1B;stroke:#000000;stroke-width:0.25;stroke-miterlimit:10;}
	.st8{stroke:#000000;stroke-width:0.25;stroke-miterlimit:10;}
	.st9{fill:none;stroke:#0066FF;stroke-miterlimit:22.9256;}
</style>
<path class="st0" d="M9.3,0.5C7,0.5,4.7,1.4,3.1,3.1C1.4,4.7,0.5,6.9,0.5,9.3"/>
<path class="st0" d="M0.5,147.8c0,2.3,0.9,4.6,2.6,6.2c1.6,1.6,3.9,2.6,6.2,2.6"/>
<path class="st0" d="M156.6,9.3c0-2.3-0.9-4.6-2.6-6.2c-1.6-1.6-3.9-2.6-6.2-2.6"/>
<line class="st0" x1="147.8" y1="0.5" x2="9.3" y2="0.5"/>
<path class="st0" d="M147.8,156.6c2.3,0,4.6-0.9,6.2-2.6c1.6-1.6,2.6-3.9,2.6-6.2"/>
<line class="st0" x1="0.5" y1="9.3" x2="0.5" y2="147.8"/>
<line class="st0" x1="9.3" y1="156.6" x2="147.8" y2="156.6"/>
<line class="st0" x1="156.6" y1="147.8" x2="156.6" y2="9.3"/>
<path class="st0" d="M139.4,48.5c-12.2,0-30.4,0-36.5,0"/>
<path class="st0" d="M139.4,137.3c0-39.3,0-98.3,0-117.6"/>
<path class="st0" d="M19.7,139.5c39.1,0,98.2,0,117.7,0"/>
<path class="st0" d="M17.7,78.8c12.2,0,30.4,0,36.5,0"/>
<path class="st0" d="M54.2,108.4c-12.2,0-30.4,0-36.5,0"/>
<path class="st0" d="M137.3,139.4c0.6,0,1.3-0.4,1.5-0.6c0.4-0.4,0.6-1.2,0.6-1.5"/>
<path class="st0" d="M102.9,138.5c0,0.3,0,0.7,0,0.8"/>
<path class="st0" d="M102.9,17.6c0,44.3,0,99.7,0,121.8"/>
<path class="st0" d="M139.4,19.7c0-0.6-0.4-1.3-0.6-1.5c-0.4-0.4-1.2-0.6-1.5-0.6"/>
<path class="st0" d="M137.3,17.6c-11.2,0-28.1,0-33.7,0"/>
<path class="st0" d="M54.2,17.6c0,40.8,0,101.7,0,121.9"/>
<path class="st0" d="M54.2,20.4c16.2,0,40.4,0,48.4,0"/>
<path class="st0" d="M102.6,136.6c-16.1,0-40.2,0-48.2,0"/>
<path class="st0" d="M102.9,17.6c0,0.3,0,0.7,0,0.8"/>
<path class="st0" d="M102.9,18.4c0,0.4,0,0.9,0,1.1"/>
<path class="st0" d="M17.7,48.5c12.2,0,30.4,0,36.5,0"/>
<path class="st0" d="M17.6,137.4c0-39.4,0-98.5,0-117.8"/>
<path class="st0" d="M19.7,139.5c-0.6,0-1.3-0.4-1.5-0.6c-0.4-0.4-0.6-1.2-0.6-1.5"/>
<path class="st0" d="M17.6,19.7c0-0.6,0.4-1.3,0.6-1.5c0.4-0.4,1.2-0.6,1.5-0.6"/>
<path class="st0" d="M53.5,17.6c0.2,0,0.5,0,0.7,0"/>
<path class="st0" d="M139.4,78.8c-12.2,0-30.4,0-36.5,0"/>
<path class="st0" d="M102.9,108.4c12.2,0,30.4,0,36.5,0"/>
<path class="st0" d="M19.7,17.6c39.1,0,98.1,0,117.6,0"/>
<rect x="35.7" y="120.4" class="st1" width="0.5" height="7.7"/>
<rect x="35.7" y="90.1" class="st1" width="0.5" height="7.7"/>
<rect x="35.7" y="59.1" class="st1" width="0.5" height="7.7"/>
<rect x="35.7" y="28.9" class="st2" width="0.5" height="7.7"/>
<path class="st3" d="M118.6,126.8c0.7,0.7,1.6,1.1,2.5,1.1c1,0,1.9-0.4,2.5-1.1l0,0c0.7-0.7,1.1-1.6,1.1-2.5c0-1-0.4-1.9-1.1-2.5
	l0,0c-0.7-0.7-1.6-1.1-2.5-1.1c-1,0-1.9,0.4-2.5,1.1l0,0c-0.7,0.7-1.1,1.6-1.1,2.5C117.5,125.2,117.9,126.1,118.6,126.8L118.6,126.8
	z"/>
<path class="st4" d="M118.6,96.5c0.7,0.7,1.6,1.1,2.5,1.1c1,0,1.9-0.4,2.5-1.1l0,0c0.7-0.7,1.1-1.6,1.1-2.5c0-1-0.4-1.9-1.1-2.5l0,0
	c-0.7-0.7-1.6-1.1-2.5-1.1c-1,0-1.9,0.4-2.5,1.1l0,0c-0.7,0.7-1.1,1.6-1.1,2.5S117.9,95.8,118.6,96.5L118.6,96.5z"/>
<path class="st4" d="M118.6,65.5c0.7,0.7,1.6,1.1,2.5,1.1c1,0,1.9-0.4,2.5-1.1l0,0c0.7-0.7,1.1-1.6,1.1-2.5c0-1-0.4-1.9-1.1-2.5l0,0
	c-0.7-0.7-1.6-1.1-2.5-1.1c-1,0-1.9,0.4-2.5,1.1l0,0c-0.7,0.7-1.1,1.6-1.1,2.5S117.9,64.8,118.6,65.5L118.6,65.5z"/>
<rect x="77.5" y="29.7" width="2.1" height="4.2"/>
<g>
	<path class="st5" d="M69.2,122.8c0,1.7-0.8,2.5-2.4,2.6h-0.2l1,0.9c0.6,0.6,0.6,1.1,0.1,1.6c-0.5,0.6-1,0.6-1.7,0l-2.3-2.3
		c-0.6-0.5-0.9-0.8-0.9-1.1c0-0.9,0.4-1.3,1.2-1.3h2.8c0.3,0,0.5-0.1,0.5-0.4c0-0.2-0.2-0.4-0.5-0.4h-3c-0.7,0-1.1-0.4-1.1-1.1
		s0.4-1.1,1.1-1.1h2.9C68.4,120.3,69.2,121.1,69.2,122.8z"/>
	<path class="st5" d="M69.9,124.3c0-0.6,0.1-1.1,0.3-1.6c0.2-0.5,0.5-0.9,0.9-1.3c0.4-0.4,0.8-0.7,1.3-0.9c0.5-0.2,1-0.3,1.6-0.3
		c0.6,0,1.1,0.1,1.6,0.3c0.5,0.2,0.9,0.5,1.3,0.9c0.4,0.4,0.7,0.8,0.9,1.3c0.2,0.5,0.3,1,0.3,1.6c0,0.6-0.1,1.1-0.3,1.6
		c-0.2,0.5-0.5,0.9-0.9,1.3c-0.4,0.4-0.8,0.7-1.3,0.9c-0.5,0.2-1,0.3-1.6,0.3s-1.1-0.1-1.6-0.3c-0.5-0.2-0.9-0.5-1.3-0.9
		c-0.4-0.4-0.7-0.8-0.9-1.3C70,125.3,69.9,124.8,69.9,124.3z M72.1,124.3c0,0.3,0.1,0.5,0.2,0.7s0.2,0.4,0.4,0.6
		c0.2,0.2,0.4,0.3,0.6,0.4c0.2,0.1,0.5,0.2,0.7,0.2s0.5-0.1,0.7-0.2c0.2-0.1,0.4-0.2,0.6-0.4c0.2-0.2,0.3-0.4,0.4-0.6
		c0.1-0.2,0.2-0.5,0.2-0.7s-0.1-0.5-0.2-0.7c-0.1-0.2-0.3-0.4-0.4-0.6c-0.2-0.2-0.4-0.3-0.6-0.4c-0.2-0.1-0.5-0.2-0.7-0.2
		s-0.5,0.1-0.7,0.2c-0.2,0.1-0.4,0.3-0.6,0.4c-0.2,0.2-0.3,0.4-0.4,0.6C72.2,123.8,72.1,124,72.1,124.3z"/>
	<path class="st6" d="M80,125.4c-0.7,0-1.1-0.4-1.1-1.1s0.4-1.1,1.1-1.1h3.4c0.3,0,0.5-0.1,0.5-0.4c0-0.2-0.2-0.4-0.5-0.4H80
		c-0.7,0-1-0.4-1-1.1s0.4-1.1,1-1.1h4.3c1,0,1.5,0.4,1.8,1s0.3,1.3,0.1,1.9c-0.2,0.6-0.7,1-1.4,1.1c0.7,0.1,1.2,0.5,1.4,1.1
		c0.3,0.6,0.2,1.2-0.1,1.9c-0.3,0.7-0.8,1-1.8,1h-4.2c-0.7,0-1.1-0.4-1.1-1.1s0.4-1.1,1.1-1.1h3.4c0.3,0,0.5-0.1,0.5-0.4
		c0-0.2-0.2-0.4-0.5-0.4H80C80,125.3,80,125.4,80,125.4z"/>
	<path class="st6" d="M88.4,125.4c-0.7,0-1.1-0.4-1.1-1.1s0.4-1.1,1.1-1.1h3.4c0.3,0,0.5-0.1,0.5-0.4c0-0.2-0.2-0.4-0.5-0.4h-3.5
		c-0.7,0-1-0.4-1-1.1s0.4-1.1,1-1.1h4.3c1,0,1.5,0.4,1.8,1s0.3,1.3,0.1,1.9c-0.2,0.6-0.7,1-1.4,1.1c0.7,0.1,1.2,0.5,1.4,1.1
		c0.3,0.6,0.2,1.2-0.1,1.9c-0.3,0.7-0.8,1-1.8,1h-4.2c-0.7,0-1.1-0.4-1.1-1.1s0.4-1.1,1.1-1.1h3.4c0.3,0,0.5-0.1,0.5-0.4
		c0-0.2-0.2-0.4-0.5-0.4h-3.4C88.4,125.3,88.4,125.4,88.4,125.4z"/>
	<g>
		<path class="st7" d="M63.7,130.8C63.7,130.8,63.6,130.8,63.7,130.8C63.6,130.8,63.6,130.8,63.7,130.8l-0.1-0.1
			c-0.1,0-0.1-0.1-0.1-0.1c-0.1,0-0.1,0-0.2,0c-0.1,0-0.1,0-0.2,0c-0.1,0-0.1,0.1-0.1,0.1c-0.1,0.1-0.1,0.1-0.1,0.1
			c0,0.1,0,0.1,0,0.1s0,0.1,0.1,0.2c0,0.1,0.1,0.1,0.1,0.1c0.1,0,0.1,0.1,0.1,0.1c0.1,0,0.1,0.1,0.2,0.1c0.1,0,0.1,0.1,0.2,0.1
			s0.1,0.1,0.1,0.1c0.1,0.1,0.1,0.1,0.1,0.1c0,0.1,0.1,0.1,0.1,0.2c0,0.1,0,0.2-0.1,0.2c0,0.1-0.1,0.1-0.1,0.2s-0.1,0.1-0.2,0.1
			c-0.1,0-0.2,0.1-0.2,0.1c-0.1,0-0.2,0-0.3-0.1c-0.1-0.1-0.2-0.1-0.2-0.2l0.1-0.1c0,0,0,0,0.1,0c0,0,0,0,0.1,0c0,0,0,0,0.1,0.1
			l0.1,0.1l0.1,0.1c0.1,0,0.1,0,0.1,0.1c0.1,0,0.1,0,0.1,0c0.1,0,0.1,0,0.2-0.1c0.1,0,0.1-0.1,0.1-0.1c0.1-0.1,0.1-0.1,0.1-0.1
			c0-0.1,0.1-0.1,0.1-0.2c0-0.1,0-0.1-0.1-0.2c0-0.1-0.1-0.1-0.1-0.1c-0.1,0-0.1-0.1-0.1-0.1c-0.2,0-0.3,0-0.3,0
			c-0.1,0-0.1-0.1-0.2-0.1c-0.1,0-0.1-0.1-0.1-0.1c-0.1-0.1-0.1-0.1-0.1-0.1c0-0.1-0.1-0.1-0.1-0.2s0-0.1,0.1-0.2
			c0-0.1,0.1-0.1,0.1-0.2s0.1-0.1,0.2-0.1c0.1,0,0.1-0.1,0.2-0.1s0.2,0,0.2,0.1C63.6,130.7,63.6,130.7,63.7,130.8L63.7,130.8z"/>
		<path class="st7" d="M69.5,131.7C69.5,131.7,69.5,131.7,69.5,131.7C69.5,131.7,69.5,131.7,69.5,131.7l0.7-1.1l0,0l0,0h0.1v1.6
			h-0.1v-1.3c0,0,0,0,0-0.1l-0.6,1.1c0,0,0,0.1-0.1,0.1l0,0c0,0-0.1,0-0.1-0.1l-0.6-1.1c0,0,0,0,0,0.1v1.3h-0.1v-1.6h0.1l0,0l0,0
			L69.5,131.7C69.5,131.7,69.5,131.7,69.5,131.7z"/>
		<path class="st8" d="M76.5,132.2h-0.1c0,0,0,0-0.1,0l0,0l-0.2-0.5h-0.8l-0.2,0.5l0,0c0,0,0,0-0.1,0H75l0.7-1.6h0.1L76.5,132.2z
			 M75.5,131.6h0.7l-0.3-0.8v-0.1l0,0l0,0v0.1L75.5,131.6z"/>
		<path class="st7" d="M81.5,131.4v0.7h-0.1v-1.6h0.4c0.2,0,0.3,0.1,0.4,0.1s0.2,0.2,0.2,0.3c0,0.1,0,0.1-0.1,0.2
			c0,0.1-0.1,0.1-0.1,0.2c-0.1,0.1-0.1,0.1-0.2,0.1c-0.1,0-0.1,0.1-0.2,0.1l0.1,0.1l0.6,0.7h-0.1c0,0,0,0-0.1,0l0,0l-0.5-0.6
			l-0.1-0.1h-0.1L81.5,131.4L81.5,131.4z M81.5,131.3h0.3c0.1,0,0.2,0,0.2,0c0.1,0,0.1-0.1,0.2-0.1c0.1-0.1,0.1-0.1,0.1-0.1
			c0-0.1,0.1-0.1,0.1-0.2c0-0.1-0.1-0.2-0.1-0.3c-0.1-0.1-0.2-0.1-0.3-0.1h-0.3L81.5,131.3L81.5,131.3z"/>
		<path class="st7" d="M87.6,131.4v0.7h-0.1v-1.6h0.4c0.2,0,0.3,0.1,0.4,0.1c0.1,0.1,0.2,0.2,0.2,0.3c0,0.1,0,0.1-0.1,0.2
			c0,0.1-0.1,0.1-0.1,0.2c-0.1,0.1-0.1,0.1-0.2,0.1c-0.1,0-0.1,0.1-0.2,0.1l0.1,0.1l0.6,0.7h-0.1c0,0,0,0-0.1,0l0,0l-0.5-0.6
			l-0.1-0.1h-0.1L87.6,131.4L87.6,131.4z M87.6,131.3h0.3c0.1,0,0.2,0,0.2,0c0.1,0,0.1-0.1,0.2-0.1c0.1-0.1,0.1-0.1,0.1-0.1
			c0-0.1,0.1-0.1,0.1-0.2c0-0.1-0.1-0.2-0.1-0.3s-0.2-0.1-0.3-0.1h-0.3L87.6,131.3L87.6,131.3z"/>
		<path class="st7" d="M94.5,130.6v0.1h-0.5v1.5h-0.1v-1.5h-0.6v-0.1H94.5z"/>
	</g>
</g>
<circle class="st9" cx="121.1" cy="32.7" r="3.8"/>
</svg>
