<?xml version="1.0" encoding="utf-8"?>
<!-- Generator: Adobe Illustrator 21.1.0, SVG Export Plug-In . SVG Version: 6.00 Build 0)  -->
<svg version="1.1" id="Laag_1" xmlns="http://www.w3.org/2000/svg" xmlns:xlink="http://www.w3.org/1999/xlink" x="0px" y="0px"
	 viewBox="0 0 72.8 268.6" style="enable-background:new 0 0 72.8 268.6;" xml:space="preserve">
<style type="text/css">
	.st0{fill:none;stroke:#1D1D1B;stroke-width:0.216;stroke-linejoin:bevel;stroke-miterlimit:22.9256;}
	.st1{fill:none;stroke:#1D1D1B;stroke-width:2;stroke-linejoin:bevel;stroke-miterlimit:22.9256;}
	.st2{fill:none;stroke:#1D1D1B;stroke-width:0.5;stroke-linejoin:bevel;stroke-miterlimit:22.9256;}
	.st3{fill:#1D1D1B;stroke:#0200FF;stroke-width:2;stroke-linejoin:bevel;stroke-miterlimit:22.9256;}
	.st4{fill:#FF6633;}
</style>
<line class="st0" x1="60.4" y1="0.8" x2="12.4" y2="0.8"/>
<line class="st0" x1="72" y1="12.4" x2="72" y2="256.3"/>
<line class="st0" x1="60.4" y1="267.8" x2="12.4" y2="267.8"/>
<line class="st0" x1="0.8" y1="256.3" x2="0.8" y2="12.4"/>
<path class="st0" d="M72,12.4C72,6,66.8,0.8,60.4,0.8"/>
<path class="st0" d="M60.4,267.8c3.1,0,6-1.2,8.2-3.4c2.2-2.2,3.4-5.1,3.4-8.2"/>
<path class="st0" d="M12.4,0.8c-3.1,0-6,1.2-8.2,3.4C2,6.4,0.8,9.3,0.8,12.4"/>
<path class="st0" d="M0.8,256.3c0,3.1,1.2,6,3.4,8.2c2.2,2.2,5.1,3.4,8.2,3.4"/>
<path class="st1" d="M12.4,1c16,0,32,0,48.1,0"/>
<line class="st0" x1="12.4" y1="1" x2="12.4" y2="0.8"/>
<line class="st0" x1="60.4" y1="0.8" x2="60.4" y2="1"/>
<path class="st0" d="M70.9,12.4c0-5.8-4.7-10.5-10.5-10.5"/>
<path class="st0" d="M12.4,1.9c16,0,32.1,0,48.1,0"/>
<path class="st0" d="M12.4,1.9C6.6,1.9,1.9,6.6,1.9,12.4"/>
<line class="st0" x1="1.9" y1="12.4" x2="1.9" y2="256.3"/>
<path class="st0" d="M1.9,256.3c0,5.8,4.7,10.5,10.5,10.5"/>
<path class="st0" d="M60.5,266.7c-16,0-32.1,0-48.1,0"/>
<path class="st0" d="M60.5,266.7c5.8,0,10.5-4.7,10.5-10.5"/>
<line class="st0" x1="70.9" y1="256.3" x2="70.9" y2="12.4"/>
<line class="st2" x1="46.6" y1="77.8" x2="56.4" y2="77.8"/>
<path class="st2" d="M56.4,77.8c3.7,0,6.7,3,6.7,6.7c0,3.7-3,6.7-6.7,6.7"/>
<line class="st2" x1="56.4" y1="91.1" x2="46.6" y2="91.1"/>
<path class="st2" d="M46.6,91.1c-3.7,0-6.7-3-6.7-6.7c0-3.7,3-6.7,6.7-6.7"/>
<line class="st2" x1="46.6" y1="104.5" x2="56.4" y2="104.5"/>
<path class="st2" d="M56.4,104.5c3.7,0,6.7,3,6.7,6.7c0,3.7-3,6.7-6.7,6.7"/>
<line class="st2" x1="56.4" y1="117.8" x2="46.6" y2="117.8"/>
<path class="st2" d="M46.6,117.8c-3.7,0-6.7-3-6.7-6.7c0-3.7,3-6.7,6.7-6.7"/>
<line class="st2" x1="46.6" y1="131.2" x2="56.4" y2="131.2"/>
<path class="st2" d="M56.4,131.2c3.7,0,6.7,3,6.7,6.7c0,3.7-3,6.7-6.7,6.7"/>
<line class="st2" x1="56.4" y1="144.6" x2="46.6" y2="144.6"/>
<path class="st2" d="M46.6,144.6c-3.7,0-6.7-3-6.7-6.7c0-3.7,3-6.7,6.7-6.7"/>
<line class="st2" x1="46.6" y1="157.9" x2="56.4" y2="157.9"/>
<path class="st2" d="M56.4,157.9c3.7,0,6.7,3,6.7,6.7s-3,6.7-6.7,6.7"/>
<line class="st2" x1="56.4" y1="171.3" x2="46.6" y2="171.3"/>
<path class="st2" d="M46.6,171.3c-3.7,0-6.7-3-6.7-6.7c0-3.7,3-6.7,6.7-6.7"/>
<line class="st2" x1="46.6" y1="184.6" x2="56.4" y2="184.6"/>
<path class="st2" d="M56.4,184.6c3.7,0,6.7,3,6.7,6.7c0,3.7-3,6.7-6.7,6.7"/>
<line class="st2" x1="56.4" y1="198" x2="46.6" y2="198"/>
<path class="st2" d="M46.6,198c-3.7,0-6.7-3-6.7-6.7c0-3.7,3-6.7,6.7-6.7"/>
<path class="st2" d="M16.4,91.1c-3.7,0-6.7-3-6.7-6.7c0-3.7,3-6.7,6.7-6.7"/>
<line class="st2" x1="16.4" y1="77.8" x2="26.2" y2="77.8"/>
<path class="st2" d="M26.2,77.8c3.7,0,6.7,3,6.7,6.7c0,3.7-3,6.7-6.7,6.7"/>
<line class="st2" x1="26.2" y1="91.1" x2="16.4" y2="91.1"/>
<path class="st2" d="M16.4,117.8c-3.7,0-6.7-3-6.7-6.7c0-3.7,3-6.7,6.7-6.7"/>
<line class="st2" x1="16.4" y1="104.5" x2="26.2" y2="104.5"/>
<path class="st2" d="M26.2,104.5c3.7,0,6.7,3,6.7,6.7c0,3.7-3,6.7-6.7,6.7"/>
<line class="st2" x1="26.2" y1="117.8" x2="16.4" y2="117.8"/>
<path class="st2" d="M16.4,144.6c-3.7,0-6.7-3-6.7-6.7c0-3.7,3-6.7,6.7-6.7"/>
<line class="st2" x1="16.4" y1="131.2" x2="26.2" y2="131.2"/>
<path class="st2" d="M26.2,131.2c3.7,0,6.7,3,6.7,6.7c0,3.7-3,6.7-6.7,6.7"/>
<line class="st2" x1="26.2" y1="144.6" x2="16.4" y2="144.6"/>
<path class="st2" d="M16.4,171.3c-3.7,0-6.7-3-6.7-6.7s3-6.7,6.7-6.7"/>
<line class="st2" x1="16.4" y1="157.9" x2="26.2" y2="157.9"/>
<path class="st2" d="M26.2,157.9c3.7,0,6.7,3,6.7,6.7c0,3.7-3,6.7-6.7,6.7"/>
<line class="st2" x1="26.2" y1="171.3" x2="16.4" y2="171.3"/>
<path class="st2" d="M16.4,198c-3.7,0-6.7-3-6.7-6.7c0-3.7,3-6.7,6.7-6.7"/>
<line class="st2" x1="16.4" y1="184.6" x2="26.2" y2="184.6"/>
<path class="st2" d="M26.2,184.6c3.7,0,6.7,3,6.7,6.7c0,3.7-3,6.7-6.7,6.7"/>
<line class="st2" x1="26.2" y1="198" x2="16.4" y2="198"/>
<path class="st2" d="M28.4,54.2c0-4.4,3.6-8,8-8c4.4,0,8,3.6,8,8"/>
<path class="st2" d="M44.4,54.2c0,4.4-3.6,8-8,8c-4.4,0-8-3.6-8-8"/>
<path class="st2" d="M26.6,25.7c0-5.4,4.4-9.8,9.8-9.8s9.8,4.4,9.8,9.8"/>
<path class="st2" d="M46.2,25.7c0,5.4-4.4,9.8-9.8,9.8s-9.8-4.4-9.8-9.8"/>
<path class="st3" d="M57.9,15.7c0,0.3,0.2,0.6,0.4,0.7c0.2,0.1,0.6,0.1,0.8,0c0.2-0.1,0.4-0.4,0.4-0.7"/>
<path class="st3" d="M59.5,15.7c0-0.3-0.2-0.6-0.4-0.7c-0.2-0.1-0.6-0.1-0.8,0c-0.2,0.1-0.4,0.4-0.4,0.7"/>
<path class="st2" d="M26.7,26.9c0.1,0.9,0.3,1.7,0.6,2.5c0.4,1,1,2,1.8,2.9"/>
<path class="st2" d="M30,33.1c1.5,1.3,3.3,2.1,5.2,2.3"/>
<path class="st2" d="M37.3,35.5c0.1,0,0.3,0,0.4,0"/>
<path class="st2" d="M37.9,35.4c1.8-0.3,3.5-1.1,4.9-2.3"/>
<path class="st2" d="M43,33c0.1-0.1,0.1-0.1,0.2-0.2"/>
<path class="st2" d="M43.4,32.5c0,0,0.1-0.1,0.1-0.1"/>
<path class="st2" d="M43.8,32.1c0-0.1,0.1-0.1,0.1-0.2"/>
<path class="st2" d="M44,31.9c0.6-0.8,1.1-1.6,1.5-2.5c0.4-0.9,0.6-1.8,0.7-2.8"/>
<line class="st0" x1="60.4" y1="267.8" x2="15" y2="267.8"/>
<line class="st0" x1="0.8" y1="256.3" x2="0.8" y2="12.4"/>
<line class="st0" x1="60.4" y1="267.8" x2="60.4" y2="267.6"/>
<path class="st1" d="M60.4,267.6c-16,0-32,0-48.1,0"/>
<line class="st0" x1="12.4" y1="267.6" x2="12.4" y2="267.8"/>
<line class="st0" x1="12.4" y1="267.8" x2="15" y2="267.8"/>
<line class="st0" x1="15" y1="267.8" x2="15" y2="267.8"/>
<path class="st0" d="M1.6,260.2c1.7,4.5,6,7.6,10.8,7.6"/>
<line class="st0" x1="1" y1="256.3" x2="0.8" y2="256.3"/>
<path class="st0" d="M0.8,256.3c0,1.3,0.2,2.7,0.7,4"/>
<line class="st0" x1="1.5" y1="260.2" x2="1.6" y2="260.2"/>
<line class="st1" x1="1" y1="256.3" x2="1" y2="12.4"/>
<line class="st0" x1="1" y1="12.4" x2="0.8" y2="12.4"/>
<line class="st0" x1="1.9" y1="12.4" x2="1" y2="12.4"/>
<line class="st0" x1="1" y1="256.3" x2="1.9" y2="256.3"/>
<line class="st0" x1="12.4" y1="267.6" x2="12.4" y2="266.7"/>
<path class="st1" d="M12.4,267.6c-0.7,0-1.5-0.1-2.2-0.2c-0.7-0.1-1.4-0.4-2.1-0.6c-1.4-0.6-2.7-1.4-3.7-2.5
	c-1.1-1.1-1.9-2.3-2.5-3.7c-0.6-1.4-0.8-2.8-0.8-4.3"/>
<path class="st1" d="M71.8,256.3c0,0.7-0.1,1.5-0.2,2.2c-0.1,0.7-0.4,1.4-0.6,2.1c-0.6,1.4-1.4,2.7-2.5,3.7
	c-1.1,1.1-2.3,1.9-3.7,2.5c-1.4,0.6-2.8,0.8-4.3,0.8"/>
<path class="st0" d="M60.5,266.7c0,0.3,0,0.6,0,0.9"/>
<line class="st0" x1="70.9" y1="256.3" x2="71.8" y2="256.3"/>
<line class="st1" x1="71.8" y1="256.3" x2="71.8" y2="12.4"/>
<line class="st0" x1="71.8" y1="12.4" x2="70.9" y2="12.4"/>
<line class="st0" x1="60.4" y1="1" x2="60.5" y2="1.9"/>
<path class="st1" d="M60.4,1c0.7,0,1.5,0.1,2.2,0.2c0.7,0.1,1.4,0.4,2.1,0.6c1.4,0.6,2.7,1.4,3.7,2.5c1.1,1.1,1.9,2.3,2.5,3.7
	c0.6,1.4,0.8,2.8,0.8,4.3"/>
<line class="st0" x1="71.8" y1="256.3" x2="72" y2="256.3"/>
<line class="st0" x1="72" y1="12.4" x2="71.8" y2="12.4"/>
<path class="st1" d="M1,12.4c0-0.7,0.1-1.5,0.2-2.2c0.1-0.7,0.4-1.4,0.6-2.1c0.6-1.4,1.4-2.7,2.5-3.7c1.1-1.1,2.3-1.9,3.7-2.5
	C9.4,1.3,10.9,1,12.4,1"/>
<path class="st0" d="M12.4,1.9c0-0.3,0-0.6,0-0.9"/>
<path class="st2" d="M42.8,89.9c0.8,0.6,1.7,0.9,2.7,1.1"/>
<path class="st2" d="M41.4,88.6c-0.9-1.2-1.4-2.6-1.4-4.1c0-1.5,0.5-2.9,1.4-4.1"/>
<path class="st2" d="M45.5,77.9c-0.9,0.2-1.8,0.5-2.6,1"/>
<path class="st2" d="M60.3,79c-0.8-0.6-1.7-0.9-2.7-1.1"/>
<path class="st2" d="M61.7,80.4c0.9,1.2,1.4,2.6,1.4,4.1c0,1.5-0.5,2.9-1.4,4.1"/>
<path class="st2" d="M57.5,91.1c0.9-0.2,1.8-0.5,2.6-1"/>
<path class="st2" d="M12.6,196.8c0.8,0.6,1.7,0.9,2.7,1.1"/>
<path class="st2" d="M11.1,195.4c-0.9-1.2-1.4-2.6-1.4-4.1c0-1.5,0.5-2.9,1.4-4.1"/>
<path class="st2" d="M15.3,184.7c-0.9,0.2-1.8,0.5-2.6,1"/>
<path class="st2" d="M30,185.8c-0.8-0.6-1.7-0.9-2.7-1.1"/>
<path class="st2" d="M31.4,187.2c0.9,1.2,1.4,2.6,1.4,4.1c0,1.5-0.5,2.9-1.4,4.1"/>
<path class="st2" d="M27.3,197.9c0.9-0.2,1.8-0.5,2.6-1"/>
<path class="st2" d="M42.8,196.8c0.8,0.6,1.7,0.9,2.7,1.1"/>
<path class="st2" d="M41.4,195.4c-0.9-1.2-1.4-2.6-1.4-4.1c0-1.5,0.5-2.9,1.4-4.1"/>
<path class="st2" d="M45.5,184.7c-0.9,0.2-1.8,0.5-2.6,1"/>
<path class="st2" d="M60.3,185.8c-0.8-0.6-1.7-0.9-2.7-1.1"/>
<path class="st2" d="M61.7,187.2c0.9,1.2,1.4,2.6,1.4,4.1c0,1.5-0.5,2.9-1.4,4.1"/>
<path class="st2" d="M57.5,197.9c0.9-0.2,1.8-0.5,2.6-1"/>
<path class="st2" d="M42.8,170.1c0.8,0.6,1.7,0.9,2.7,1.1"/>
<path class="st2" d="M41.4,168.7c-0.9-1.2-1.4-2.6-1.4-4.1c0-1.5,0.5-2.9,1.4-4.1"/>
<path class="st2" d="M43.5,158.7c-0.2,0.1-0.4,0.2-0.6,0.3"/>
<path class="st2" d="M45.5,158c-0.7,0.1-1.4,0.3-2,0.7"/>
<path class="st2" d="M60.3,159.1c-0.8-0.6-1.7-0.9-2.7-1.1"/>
<path class="st2" d="M61.7,160.5c0.9,1.2,1.4,2.6,1.4,4.1c0,1.5-0.5,2.9-1.4,4.1"/>
<path class="st2" d="M57.5,171.2c0.9-0.2,1.8-0.5,2.6-1"/>
<path class="st2" d="M12.6,170.1c0.8,0.6,1.7,0.9,2.7,1.1"/>
<path class="st2" d="M11.1,168.7c-0.9-1.2-1.4-2.6-1.4-4.1c0-1.5,0.5-2.9,1.4-4.1"/>
<path class="st2" d="M15.3,158c-0.9,0.2-1.8,0.5-2.6,1"/>
<path class="st2" d="M30,159.1c-0.8-0.6-1.7-0.9-2.7-1.1"/>
<path class="st2" d="M31.4,160.5c0.9,1.2,1.4,2.6,1.4,4.1c0,1.5-0.5,2.9-1.4,4.1"/>
<path class="st2" d="M27.3,171.2c0.9-0.2,1.8-0.5,2.6-1"/>
<path class="st2" d="M12.6,143.3c0.8,0.6,1.7,0.9,2.7,1.1"/>
<path class="st2" d="M11.1,142c-0.9-1.2-1.4-2.6-1.4-4.1c0-1.5,0.5-2.9,1.4-4.1"/>
<path class="st2" d="M12.7,132.3c0,0,0.1-0.1,0.1-0.1"/>
<path class="st2" d="M15.3,131.3c-0.8,0.1-1.7,0.4-2.4,0.9"/>
<path class="st2" d="M30,132.4c-0.8-0.6-1.7-0.9-2.7-1.1"/>
<path class="st2" d="M31.4,133.8c0.9,1.2,1.4,2.6,1.4,4.1c0,1.5-0.5,2.9-1.4,4.1"/>
<path class="st2" d="M27.3,144.5c0.9-0.2,1.8-0.5,2.6-1"/>
<path class="st2" d="M42.8,143.3c0.8,0.6,1.7,0.9,2.7,1.1"/>
<path class="st2" d="M41.4,142c-0.9-1.2-1.4-2.6-1.4-4.1c0-1.5,0.5-2.9,1.4-4.1"/>
<path class="st2" d="M43,132.3c0,0,0.1-0.1,0.1-0.1"/>
<path class="st2" d="M45.5,131.3c-0.8,0.1-1.7,0.4-2.4,0.9"/>
<path class="st2" d="M60.3,132.4c-0.8-0.6-1.7-0.9-2.7-1.1"/>
<path class="st2" d="M61.7,133.8c0.9,1.2,1.4,2.6,1.4,4.1c0,1.5-0.5,2.9-1.4,4.1"/>
<path class="st2" d="M57.5,144.5c0.9-0.2,1.8-0.5,2.6-1"/>
<path class="st2" d="M12.6,116.6c0.8,0.6,1.7,0.9,2.7,1.1"/>
<path class="st2" d="M11.1,115.3c-0.9-1.2-1.4-2.6-1.4-4.1c0-1.5,0.5-2.9,1.4-4.1"/>
<path class="st2" d="M15.3,104.6c-0.9,0.2-1.8,0.5-2.6,1"/>
<path class="st2" d="M30,105.7c-0.8-0.6-1.7-0.9-2.7-1.1"/>
<path class="st2" d="M31.4,107.1c0.9,1.2,1.4,2.6,1.4,4.1c0,1.5-0.5,2.9-1.4,4.1"/>
<path class="st2" d="M27.3,117.8c0.9-0.2,1.8-0.5,2.6-1"/>
<path class="st2" d="M42.8,116.6c0.8,0.6,1.7,0.9,2.7,1.1"/>
<path class="st2" d="M41.4,115.3c-0.9-1.2-1.4-2.6-1.4-4.1c0-1.5,0.5-2.9,1.4-4.1"/>
<path class="st2" d="M45.5,104.6c-0.9,0.2-1.8,0.5-2.6,1"/>
<path class="st2" d="M60.3,105.7c-0.8-0.6-1.7-0.9-2.7-1.1"/>
<path class="st2" d="M61.7,107.1c0.9,1.2,1.4,2.6,1.4,4.1c0,1.5-0.5,2.9-1.4,4.1"/>
<path class="st2" d="M57.5,117.8c0.9-0.2,1.8-0.5,2.6-1"/>
<path class="st2" d="M12.6,89.9c0.8,0.6,1.7,0.9,2.7,1.1"/>
<path class="st2" d="M11.1,88.6c-0.9-1.2-1.4-2.6-1.4-4.1c0-1.5,0.5-2.9,1.4-4.1"/>
<path class="st2" d="M15.3,77.9c-0.9,0.2-1.8,0.5-2.6,1"/>
<path class="st2" d="M30,79c-0.8-0.6-1.7-0.9-2.7-1.1"/>
<path class="st2" d="M31.4,80.4c0.9,1.2,1.4,2.6,1.4,4.1c0,1.5-0.5,2.9-1.4,4.1"/>
<path class="st2" d="M27.3,91.1c0.9-0.2,1.8-0.5,2.6-1"/>
<path class="st2" d="M46.2,24.8c-0.1-0.9-0.3-1.9-0.7-2.8c-0.4-0.9-0.9-1.7-1.5-2.5"/>
<path class="st2" d="M44,19.5c0,0-0.1-0.1-0.1-0.1"/>
<path class="st2" d="M43.6,19c0,0-0.1-0.1-0.1-0.1"/>
<path class="st2" d="M43.2,18.6c-0.1-0.1-0.1-0.1-0.2-0.2"/>
<path class="st2" d="M42.8,18.3c-1.4-1.2-3.1-2-4.9-2.3"/>
<path class="st2" d="M37.7,16c-0.1,0-0.3,0-0.4,0"/>
<path class="st2" d="M35.4,16c-2,0.2-3.9,1-5.4,2.3"/>
<path class="st2" d="M29.1,19.2C28.4,20,27.8,21,27.3,22c-0.3,0.8-0.5,1.7-0.7,2.5"/>
<path class="st2" d="M44.4,55c0,0,0,0.1,0,0.1"/>
<path class="st2" d="M44.4,55.2c-0.1,0.7-0.3,1.4-0.5,2.1c-0.3,0.8-0.7,1.5-1.3,2.1"/>
<path class="st2" d="M42.2,59.7c0,0-0.1,0.1-0.1,0.1c-1.2,1.2-2.7,1.9-4.3,2.2"/>
<path class="st2" d="M37.2,62.2c0.1,0,0.3,0,0.4-0.1"/>
<path class="st2" d="M36.8,62.2c0.1,0,0.2,0,0.3,0"/>
<path class="st2" d="M36.8,62.2c-0.1,0-0.1,0-0.2,0"/>
<path class="st2" d="M36.6,62.2c-0.1,0-0.1,0-0.2,0"/>
<path class="st2" d="M36,62.2c-0.1,0-0.1,0-0.2,0"/>
<path class="st2" d="M35.8,62.2c-0.1,0-0.1,0-0.2,0"/>
<path class="st2" d="M31,60.1c1.3,1.1,2.9,1.9,4.6,2"/>
<path class="st2" d="M30.9,60c0,0-0.1-0.1-0.1-0.1"/>
<path class="st2" d="M30.7,59.8c0,0-0.1-0.1-0.1-0.1"/>
<path class="st2" d="M30.3,59.4c0.1,0.1,0.1,0.2,0.2,0.2"/>
<path class="st2" d="M30.3,59.4c0,0-0.1-0.1-0.1-0.1"/>
<path class="st2" d="M28.5,55.3c0.2,1.4,0.8,2.7,1.6,3.8"/>
<path class="st2" d="M30.2,49.1c-1,1.2-1.6,2.6-1.7,4.1"/>
<path class="st2" d="M30.7,48.5c-0.2,0.2-0.3,0.4-0.5,0.6"/>
<path class="st2" d="M30.7,48.5c0,0,0.1-0.1,0.1-0.1"/>
<path class="st2" d="M35.6,46.2c-1.7,0.2-3.3,0.9-4.6,2"/>
<path class="st2" d="M35.6,46.2c0.1,0,0.1,0,0.2,0"/>
<path class="st2" d="M35.8,46.2c0.1,0,0.1,0,0.2,0"/>
<path class="st2" d="M36.4,46.2c0.1,0,0.1,0,0.2,0"/>
<path class="st2" d="M36.6,46.2c0.1,0,0.1,0,0.2,0"/>
<path class="st2" d="M37.2,46.2c-0.1,0-0.2,0-0.3,0"/>
<path class="st2" d="M37.6,46.3c-0.1,0-0.2,0-0.3,0"/>
<path class="st2" d="M41.9,48.4c-1.1-1.1-2.6-1.8-4.1-2.1"/>
<path class="st2" d="M42.2,48.7c-0.1-0.1-0.1-0.2-0.2-0.2"/>
<path class="st2" d="M44.4,53.2c-0.2-1.5-0.8-2.9-1.7-4.1"/>
<path class="st2" d="M44.4,53.3c0,0,0,0.1,0,0.1"/>
<path class="st2" d="M28.6,54.2c0,4.3,3.5,7.8,7.8,7.8c4.3,0,7.8-3.5,7.8-7.8"/>
<path class="st2" d="M44.2,54.2c0-4.3-3.5-7.8-7.8-7.8c-4.3,0-7.8,3.5-7.8,7.8"/>
<path class="st2" d="M26.8,25.7c0,5.3,4.3,9.6,9.6,9.6c5.3,0,9.6-4.3,9.6-9.6"/>
<path class="st2" d="M46,25.7c0-5.3-4.3-9.6-9.6-9.6c-5.3,0-9.6,4.3-9.6,9.6"/>
<line class="st2" x1="46.6" y1="91" x2="56.4" y2="91"/>
<path class="st2" d="M56.4,91c3.6,0,6.5-2.9,6.5-6.5c0-3.6-2.9-6.5-6.5-6.5"/>
<line class="st2" x1="56.4" y1="78" x2="46.6" y2="78"/>
<path class="st2" d="M46.6,78c-3.6,0-6.5,2.9-6.5,6.5c0,3.6,2.9,6.5,6.5,6.5"/>
<path class="st2" d="M16.4,78c-3.6,0-6.5,2.9-6.5,6.5c0,3.6,2.9,6.5,6.5,6.5"/>
<line class="st2" x1="16.4" y1="91" x2="26.2" y2="91"/>
<path class="st2" d="M26.2,91c3.6,0,6.5-2.9,6.5-6.5c0-3.6-2.9-6.5-6.5-6.5"/>
<line class="st2" x1="26.2" y1="78" x2="16.4" y2="78"/>
<line class="st2" x1="56.4" y1="104.7" x2="46.6" y2="104.7"/>
<path class="st2" d="M46.6,104.7c-3.6,0-6.5,2.9-6.5,6.5c0,3.6,2.9,6.5,6.5,6.5"/>
<line class="st2" x1="46.6" y1="117.7" x2="56.4" y2="117.7"/>
<path class="st2" d="M56.4,117.7c3.6,0,6.5-2.9,6.5-6.5c0-3.6-2.9-6.5-6.5-6.5"/>
<path class="st2" d="M26.2,117.7c3.6,0,6.5-2.9,6.5-6.5c0-3.6-2.9-6.5-6.5-6.5"/>
<line class="st2" x1="26.2" y1="104.7" x2="16.4" y2="104.7"/>
<path class="st2" d="M16.4,104.7c-3.6,0-6.5,2.9-6.5,6.5c0,3.6,2.9,6.5,6.5,6.5"/>
<line class="st2" x1="16.4" y1="117.7" x2="26.2" y2="117.7"/>
<path class="st2" d="M26.2,144.4c3.6,0,6.5-2.9,6.5-6.5c0-3.6-2.9-6.5-6.5-6.5"/>
<line class="st2" x1="26.2" y1="131.4" x2="16.4" y2="131.4"/>
<path class="st2" d="M16.4,131.4c-3.6,0-6.5,2.9-6.5,6.5c0,3.6,2.9,6.5,6.5,6.5"/>
<line class="st2" x1="16.4" y1="144.4" x2="26.2" y2="144.4"/>
<line class="st2" x1="56.4" y1="131.4" x2="46.6" y2="131.4"/>
<path class="st2" d="M46.6,131.4c-3.6,0-6.5,2.9-6.5,6.5c0,3.6,2.9,6.5,6.5,6.5"/>
<line class="st2" x1="46.6" y1="144.4" x2="56.4" y2="144.4"/>
<path class="st2" d="M56.4,144.4c3.6,0,6.5-2.9,6.5-6.5c0-3.6-2.9-6.5-6.5-6.5"/>
<line class="st2" x1="56.4" y1="158.1" x2="46.6" y2="158.1"/>
<path class="st2" d="M46.6,158.1c-3.6,0-6.5,2.9-6.5,6.5c0,3.6,2.9,6.5,6.5,6.5"/>
<line class="st2" x1="46.6" y1="171.1" x2="56.4" y2="171.1"/>
<path class="st2" d="M56.4,171.1c3.6,0,6.5-2.9,6.5-6.5c0-3.6-2.9-6.5-6.5-6.5"/>
<path class="st2" d="M26.2,171.1c3.6,0,6.5-2.9,6.5-6.5c0-3.6-2.9-6.5-6.5-6.5"/>
<line class="st2" x1="26.2" y1="158.1" x2="16.4" y2="158.1"/>
<path class="st2" d="M16.4,158.1c-3.6,0-6.5,2.9-6.5,6.5c0,3.6,2.9,6.5,6.5,6.5"/>
<line class="st2" x1="16.4" y1="171.1" x2="26.2" y2="171.1"/>
<path class="st2" d="M26.2,197.8c3.6,0,6.5-2.9,6.5-6.5c0-3.6-2.9-6.5-6.5-6.5"/>
<line class="st2" x1="26.2" y1="184.8" x2="16.4" y2="184.8"/>
<path class="st2" d="M16.4,184.8c-3.6,0-6.5,2.9-6.5,6.5c0,3.6,2.9,6.5,6.5,6.5"/>
<line class="st2" x1="16.4" y1="197.8" x2="26.2" y2="197.8"/>
<line class="st2" x1="56.4" y1="184.8" x2="46.6" y2="184.8"/>
<path class="st2" d="M46.6,184.8c-3.6,0-6.5,2.9-6.5,6.5c0,3.6,2.9,6.5,6.5,6.5"/>
<line class="st2" x1="46.6" y1="197.8" x2="56.4" y2="197.8"/>
<path class="st2" d="M56.4,197.8c3.6,0,6.5-2.9,6.5-6.5c0-3.6-2.9-6.5-6.5-6.5"/>
<path class="st2" d="M62.1,87.7c0.2-0.4,0.4-0.8,0.6-1.3"/>
<path class="st2" d="M10,83.2c0.4-2,1.7-3.6,3.4-4.5"/>
<path class="st2" d="M62.1,114.4c0.2-0.4,0.4-0.8,0.6-1.3"/>
<path class="st2" d="M10,109.9c0.4-2,1.7-3.6,3.4-4.5"/>
<path class="st2" d="M10,136.6c0.4-2,1.7-3.6,3.4-4.5"/>
<path class="st2" d="M62.1,141.1c0.2-0.4,0.4-0.8,0.6-1.3"/>
<path class="st2" d="M62.1,167.8c0.2-0.4,0.4-0.8,0.6-1.3"/>
<path class="st2" d="M10,163.3c0.4-2,1.7-3.6,3.4-4.5"/>
<path class="st2" d="M10,190c0.4-2,1.7-3.6,3.4-4.5"/>
<path class="st2" d="M62.1,194.4c0.1-0.1,0.1-0.2,0.1-0.3"/>
<path d="M24.4,193.6v-4.5h-0.5l-0.8,0.7v0.5l0.8-0.7v4H24.4z M21.6,192.4c0-0.2,0-0.4-0.1-0.5c-0.1-0.1-0.2-0.3-0.3-0.4
	c-0.1-0.1-0.1-0.1-0.2-0.1c-0.1,0-0.2-0.1-0.3-0.1c-0.1,0-0.2-0.1-0.4-0.1l-0.5-0.1c-0.1,0-0.2,0-0.2-0.1c-0.1,0-0.1-0.1-0.2-0.1
	c-0.1,0-0.1-0.1-0.2-0.1c-0.1-0.1-0.1-0.1-0.2-0.2c0-0.1,0-0.2,0-0.3c0-0.2,0-0.3,0.1-0.4c0.1-0.1,0.2-0.2,0.3-0.3
	c0.1-0.1,0.3-0.1,0.5-0.1c0.2,0,0.3,0,0.4,0c0.1,0,0.2,0.1,0.3,0.1c0.1,0.1,0.2,0.1,0.3,0.2l0.3-0.3c-0.1-0.1-0.3-0.2-0.4-0.3
	c-0.1-0.1-0.3-0.1-0.4-0.2c-0.2,0-0.3-0.1-0.5-0.1c-0.3,0-0.6,0.1-0.8,0.2c-0.2,0.1-0.4,0.3-0.5,0.4c-0.1,0.2-0.2,0.4-0.2,0.7
	c0,0.2,0,0.3,0.1,0.5c0.1,0.1,0.1,0.3,0.3,0.4c0.1,0.1,0.2,0.2,0.4,0.2c0.1,0.1,0.3,0.1,0.5,0.1l0.5,0.1c0.1,0,0.2,0,0.3,0.1
	c0.1,0,0.1,0,0.2,0.1c0,0,0.1,0.1,0.1,0.1c0.1,0.1,0.1,0.1,0.2,0.2c0,0.1,0.1,0.2,0.1,0.3c0,0.2,0,0.3-0.1,0.4
	c-0.1,0.1-0.2,0.2-0.4,0.3c-0.2,0.1-0.3,0.1-0.6,0.1c-0.2,0-0.3,0-0.5,0c-0.1,0-0.3-0.1-0.4-0.2c-0.1-0.1-0.2-0.2-0.4-0.3l-0.3,0.3
	c0.1,0.1,0.3,0.3,0.4,0.3c0.2,0.1,0.3,0.2,0.5,0.2c0.2,0,0.4,0.1,0.6,0.1c0.2,0,0.4,0,0.6-0.1c0.2-0.1,0.4-0.1,0.5-0.3
	c0.1-0.1,0.2-0.2,0.3-0.4C21.6,192.8,21.6,192.6,21.6,192.4z"/>
<path d="M55,193.6v-0.4h-1.9l1.6-2c0.1-0.1,0.1-0.2,0.2-0.3c0.1-0.1,0.1-0.2,0.1-0.3c0-0.1,0-0.2,0-0.3c0-0.2-0.1-0.5-0.2-0.6
	c-0.1-0.2-0.2-0.3-0.4-0.4c-0.2-0.1-0.4-0.1-0.6-0.2c-0.2,0-0.4,0-0.5,0.1c-0.2,0.1-0.3,0.1-0.4,0.3c-0.1,0.1-0.2,0.2-0.2,0.4
	c-0.1,0.1-0.1,0.3-0.1,0.5H53c0-0.1,0-0.3,0.1-0.4c0-0.1,0.1-0.2,0.2-0.3c0.1-0.1,0.2-0.1,0.2-0.1c0.1,0,0.2,0,0.3,0
	c0.2,0,0.3,0,0.4,0.1c0.1,0.1,0.2,0.2,0.3,0.3c0.1,0.1,0.1,0.3,0.1,0.4c0,0.1,0,0.2-0.1,0.3c0,0.1-0.1,0.2-0.2,0.3l-1.8,2.2v0.4H55z
	 M51.5,192.4c0-0.2,0-0.4-0.1-0.5c-0.1-0.1-0.2-0.3-0.3-0.4c-0.1-0.1-0.1-0.1-0.2-0.1c-0.1,0-0.2-0.1-0.3-0.1
	c-0.1,0-0.2-0.1-0.4-0.1l-0.5-0.1c-0.1,0-0.2,0-0.2-0.1c-0.1,0-0.1-0.1-0.2-0.1c-0.1,0-0.1-0.1-0.2-0.1c-0.1-0.1-0.1-0.1-0.2-0.2
	c0-0.1,0-0.2,0-0.3c0-0.2,0-0.3,0.1-0.4c0.1-0.1,0.2-0.2,0.3-0.3c0.1-0.1,0.3-0.1,0.5-0.1c0.2,0,0.3,0,0.4,0c0.1,0,0.2,0.1,0.3,0.1
	c0.1,0.1,0.2,0.1,0.3,0.2l0.3-0.3c-0.1-0.1-0.3-0.2-0.4-0.3c-0.1-0.1-0.3-0.1-0.4-0.2c-0.2,0-0.3-0.1-0.5-0.1
	c-0.3,0-0.6,0.1-0.8,0.2c-0.2,0.1-0.4,0.3-0.5,0.4c-0.1,0.2-0.2,0.4-0.2,0.7c0,0.2,0,0.3,0.1,0.5c0.1,0.1,0.1,0.3,0.3,0.4
	c0.1,0.1,0.2,0.2,0.4,0.2c0.1,0.1,0.3,0.1,0.5,0.1l0.5,0.1c0.1,0,0.2,0,0.3,0.1c0.1,0,0.1,0,0.2,0.1c0,0,0.1,0.1,0.1,0.1
	c0.1,0.1,0.1,0.1,0.2,0.2c0,0.1,0.1,0.2,0.1,0.3c0,0.2,0,0.3-0.1,0.4c-0.1,0.1-0.2,0.2-0.4,0.3c-0.2,0.1-0.3,0.1-0.6,0.1
	c-0.2,0-0.3,0-0.5,0c-0.1,0-0.3-0.1-0.4-0.2c-0.1-0.1-0.2-0.2-0.4-0.3l-0.3,0.3c0.1,0.1,0.3,0.3,0.4,0.3c0.2,0.1,0.3,0.2,0.5,0.2
	c0.2,0,0.4,0.1,0.6,0.1c0.2,0,0.4,0,0.6-0.1c0.2-0.1,0.4-0.1,0.5-0.3c0.1-0.1,0.2-0.2,0.3-0.4C51.5,192.8,51.5,192.6,51.5,192.4z"/>
<rect x="36.2" y="23.6" width="0.4" height="4.5"/>
<path d="M35.6,56.3c0.3,0.1,0.5,0.2,0.8,0.2c0.3,0,0.6-0.1,0.8-0.2h0c0.3-0.1,0.5-0.3,0.7-0.5l0,0l0,0l0,0l0,0
	c0.2-0.2,0.4-0.4,0.5-0.7v0c0.1-0.3,0.2-0.5,0.2-0.8c0-0.3-0.1-0.6-0.2-0.8v0c-0.1-0.3-0.3-0.5-0.5-0.7l0,0l0,0l0,0l0,0
	c-0.2-0.2-0.4-0.4-0.7-0.5h0c-0.3-0.1-0.5-0.2-0.8-0.2c-0.3,0-0.6,0.1-0.8,0.2h0c-0.3,0.1-0.5,0.3-0.7,0.5l0,0l0,0l0,0l0,0
	c-0.2,0.2-0.4,0.4-0.5,0.7v0c-0.1,0.3-0.2,0.5-0.2,0.8c0,0.3,0.1,0.6,0.2,0.8v0c0.1,0.3,0.3,0.5,0.5,0.7l0,0l0,0l0,0l0,0
	C35.1,56,35.4,56.2,35.6,56.3L35.6,56.3z M36.5,56.9c-0.4,0-0.7-0.1-1-0.2v0c-0.3-0.1-0.6-0.3-0.9-0.6h0l0,0l0,0v0
	c-0.2-0.2-0.4-0.5-0.6-0.9h0c-0.1-0.3-0.2-0.6-0.2-1c0-0.4,0.1-0.7,0.2-1l0,0c0.1-0.3,0.3-0.6,0.6-0.9v0l0,0l0,0h0
	c0.2-0.2,0.5-0.4,0.9-0.6v0c0.3-0.1,0.6-0.2,1-0.2c0.4,0,0.7,0.1,1,0.2l0,0c0.3,0.1,0.6,0.3,0.9,0.6h0l0,0l0,0v0
	c0.2,0.2,0.4,0.5,0.6,0.9l0,0c0.1,0.3,0.2,0.6,0.2,1c0,0.4-0.1,0.7-0.2,1h0c-0.1,0.3-0.3,0.6-0.6,0.9v0l0,0l0,0h0
	c-0.2,0.2-0.5,0.4-0.9,0.6l0,0C37.2,56.8,36.8,56.9,36.5,56.9z"/>
<rect x="21.1" y="82.3" width="0.4" height="4.5"/>
<rect x="21.1" y="109" width="0.4" height="4.5"/>
<rect x="21.1" y="135.7" width="0.4" height="4.5"/>
<rect x="21.1" y="162.4" width="0.4" height="4.5"/>
<path d="M50.8,86.6c0.3,0.1,0.5,0.2,0.8,0.2c0.3,0,0.6-0.1,0.8-0.2h0c0.3-0.1,0.5-0.3,0.7-0.5l0,0l0,0l0,0l0,0
	c0.2-0.2,0.4-0.4,0.5-0.7v0c0.1-0.3,0.2-0.5,0.2-0.8c0-0.3-0.1-0.6-0.2-0.8v0c-0.1-0.3-0.3-0.5-0.5-0.7l0,0l0,0l0,0l0,0
	c-0.2-0.2-0.4-0.4-0.7-0.5h0c-0.3-0.1-0.5-0.2-0.8-0.2c-0.3,0-0.6,0.1-0.8,0.2h0c-0.3,0.1-0.5,0.3-0.7,0.5l0,0l0,0l0,0l0,0
	c-0.2,0.2-0.4,0.4-0.5,0.7v0c-0.1,0.3-0.2,0.5-0.2,0.8c0,0.3,0.1,0.6,0.2,0.8v0c0.1,0.3,0.3,0.5,0.5,0.7l0,0l0,0l0,0l0,0
	C50.3,86.3,50.5,86.5,50.8,86.6L50.8,86.6z M51.6,87.2c-0.4,0-0.7-0.1-1-0.2l0,0c-0.3-0.1-0.6-0.3-0.9-0.6h0l0,0l0,0v0
	c-0.2-0.2-0.4-0.5-0.6-0.9l0,0c-0.1-0.3-0.2-0.6-0.2-1c0-0.4,0.1-0.7,0.2-1l0,0c0.1-0.3,0.3-0.6,0.6-0.9v0l0,0l0,0h0
	c0.2-0.2,0.5-0.4,0.9-0.6l0,0c0.3-0.1,0.6-0.2,1-0.2c0.4,0,0.7,0.1,1,0.2l0,0c0.3,0.1,0.6,0.3,0.9,0.6h0l0,0l0,0v0
	c0.2,0.2,0.4,0.5,0.6,0.9l0,0c0.1,0.3,0.2,0.6,0.2,1c0,0.4-0.1,0.7-0.2,1l0,0c-0.1,0.3-0.3,0.6-0.6,0.9v0l0,0l0,0h0
	c-0.2,0.2-0.5,0.4-0.9,0.6l0,0C52.3,87.1,52,87.2,51.6,87.2z"/>
<path d="M50.8,113.3c0.3,0.1,0.5,0.2,0.8,0.2c0.3,0,0.6-0.1,0.8-0.2h0c0.3-0.1,0.5-0.3,0.7-0.5l0,0l0,0l0,0l0,0
	c0.2-0.2,0.4-0.4,0.5-0.7v0c0.1-0.3,0.2-0.5,0.2-0.8c0-0.3-0.1-0.6-0.2-0.8v0c-0.1-0.3-0.3-0.5-0.5-0.7l0,0l0,0l0,0l0,0
	c-0.2-0.2-0.4-0.4-0.7-0.5h0c-0.3-0.1-0.5-0.2-0.8-0.2c-0.3,0-0.6,0.1-0.8,0.2h0c-0.3,0.1-0.5,0.3-0.7,0.5l0,0l0,0l0,0l0,0
	c-0.2,0.2-0.4,0.4-0.5,0.7v0c-0.1,0.3-0.2,0.5-0.2,0.8c0,0.3,0.1,0.6,0.2,0.8v0c0.1,0.3,0.3,0.5,0.5,0.7l0,0l0,0l0,0l0,0
	C50.3,113,50.5,113.2,50.8,113.3L50.8,113.3z M51.6,113.9c-0.4,0-0.7-0.1-1-0.2l0,0c-0.3-0.1-0.6-0.3-0.9-0.6h0l0,0l0,0v0
	c-0.2-0.2-0.4-0.5-0.6-0.9h0c-0.1-0.3-0.2-0.6-0.2-1c0-0.4,0.1-0.7,0.2-1l0,0c0.1-0.3,0.3-0.6,0.6-0.9v0l0,0l0,0h0
	c0.2-0.2,0.5-0.4,0.9-0.6l0,0c0.3-0.1,0.6-0.2,1-0.2c0.4,0,0.7,0.1,1,0.2l0,0c0.3,0.1,0.6,0.3,0.9,0.6h0l0,0l0,0v0
	c0.2,0.2,0.4,0.5,0.6,0.9l0,0c0.1,0.3,0.2,0.6,0.2,1c0,0.4-0.1,0.7-0.2,1h0c-0.1,0.3-0.3,0.6-0.6,0.9v0l0,0l0,0h0
	c-0.2,0.2-0.5,0.4-0.9,0.6l0,0C52.3,113.8,52,113.9,51.6,113.9z"/>
<path d="M50.8,140c0.3,0.1,0.5,0.2,0.8,0.2c0.3,0,0.6-0.1,0.8-0.2h0c0.3-0.1,0.5-0.3,0.7-0.5l0,0l0,0l0,0l0,0
	c0.2-0.2,0.4-0.4,0.5-0.7v0c0.1-0.3,0.2-0.5,0.2-0.8c0-0.3-0.1-0.6-0.2-0.8v0c-0.1-0.3-0.3-0.5-0.5-0.7l0,0l0,0l0,0l0,0
	c-0.2-0.2-0.4-0.4-0.7-0.5h0c-0.3-0.1-0.5-0.2-0.8-0.2c-0.3,0-0.6,0.1-0.8,0.2h0c-0.3,0.1-0.5,0.3-0.7,0.5l0,0l0,0l0,0l0,0
	c-0.2,0.2-0.4,0.4-0.5,0.7v0c-0.1,0.3-0.2,0.5-0.2,0.8c0,0.3,0.1,0.6,0.2,0.8v0c0.1,0.3,0.3,0.5,0.5,0.7l0,0l0,0l0,0l0,0
	C50.3,139.7,50.5,139.9,50.8,140L50.8,140z M51.6,140.6c-0.4,0-0.7-0.1-1-0.2l0,0c-0.3-0.1-0.6-0.3-0.9-0.6h0l0,0l0,0v0
	c-0.2-0.2-0.4-0.5-0.6-0.9l0,0c-0.1-0.3-0.2-0.6-0.2-1c0-0.4,0.1-0.7,0.2-1h0c0.1-0.3,0.3-0.6,0.6-0.9v0l0,0l0,0h0
	c0.2-0.2,0.5-0.4,0.9-0.6l0,0c0.3-0.1,0.6-0.2,1-0.2c0.4,0,0.7,0.1,1,0.2l0,0c0.3,0.1,0.6,0.3,0.9,0.6h0l0,0l0,0v0
	c0.2,0.2,0.4,0.5,0.6,0.9h0c0.1,0.3,0.2,0.6,0.2,1c0,0.4-0.1,0.7-0.2,1l0,0c-0.1,0.3-0.3,0.6-0.6,0.9v0l0,0l0,0h0
	c-0.2,0.2-0.5,0.4-0.9,0.6l0,0C52.3,140.5,52,140.6,51.6,140.6z"/>
<path d="M50.8,166.7c0.3,0.1,0.5,0.2,0.8,0.2c0.3,0,0.6-0.1,0.8-0.2h0c0.3-0.1,0.5-0.3,0.7-0.5l0,0l0,0l0,0l0,0
	c0.2-0.2,0.4-0.4,0.5-0.7v0c0.1-0.3,0.2-0.5,0.2-0.8c0-0.3-0.1-0.6-0.2-0.8v0c-0.1-0.3-0.3-0.5-0.5-0.7l0,0l0,0l0,0l0,0
	c-0.2-0.2-0.4-0.4-0.7-0.5h0c-0.3-0.1-0.5-0.2-0.8-0.2c-0.3,0-0.6,0.1-0.8,0.2h0c-0.3,0.1-0.5,0.3-0.7,0.5l0,0l0,0l0,0l0,0
	c-0.2,0.2-0.4,0.4-0.5,0.7v0c-0.1,0.3-0.2,0.5-0.2,0.8c0,0.3,0.1,0.6,0.2,0.8v0c0.1,0.3,0.3,0.5,0.5,0.7l0,0l0,0l0,0l0,0
	C50.3,166.4,50.5,166.6,50.8,166.7L50.8,166.7z M51.6,167.3c-0.4,0-0.7-0.1-1-0.2l0,0c-0.3-0.1-0.6-0.3-0.9-0.6h0l0,0l0,0v0
	c-0.2-0.2-0.4-0.5-0.6-0.9h0c-0.1-0.3-0.2-0.6-0.2-1c0-0.4,0.1-0.7,0.2-1h0c0.1-0.3,0.3-0.6,0.6-0.9v0l0,0l0,0h0
	c0.2-0.2,0.5-0.4,0.9-0.6l0,0c0.3-0.1,0.6-0.2,1-0.2c0.4,0,0.7,0.1,1,0.2l0,0c0.3,0.1,0.6,0.3,0.9,0.6h0l0,0l0,0v0
	c0.2,0.2,0.4,0.5,0.6,0.9h0c0.1,0.3,0.2,0.6,0.2,1c0,0.4-0.1,0.7-0.2,1h0c-0.1,0.3-0.3,0.6-0.6,0.9v0l0,0l0,0h0
	c-0.2,0.2-0.5,0.4-0.9,0.6l0,0C52.3,167.2,52,167.3,51.6,167.3z"/>
<path class="st4" d="M20.4,239.2c0,2.7-1.3,4.2-3.9,4.2h-0.4l1.6,1.5c0.9,0.9,1,1.8,0.2,2.7c-0.8,0.9-1.7,0.9-2.8,0l-3.8-3.8
	c-1-0.8-1.4-1.4-1.4-1.9c0-1.5,0.7-2.2,2.1-2.2h4.6c0.5,0,0.7-0.2,0.7-0.6c0-0.4-0.2-0.6-0.7-0.6h-4.9c-1.2,0-1.7-0.6-1.8-1.8
	c0-1.2,0.6-1.8,1.7-1.8h4.7C19,235,20.4,236.4,20.4,239.2z"/>
<path class="st4" d="M21.4,241.5c0-0.9,0.2-1.8,0.5-2.6c0.4-0.8,0.8-1.5,1.4-2.2c0.6-0.6,1.3-1.1,2.1-1.5c0.8-0.4,1.7-0.5,2.6-0.5
	c0.9,0,1.8,0.2,2.6,0.5c0.8,0.4,1.5,0.8,2.2,1.5c0.6,0.6,1.1,1.3,1.5,2.2s0.5,1.7,0.5,2.6s-0.2,1.8-0.5,2.6
	c-0.4,0.8-0.8,1.5-1.5,2.1c-0.6,0.6-1.3,1.1-2.2,1.4s-1.7,0.5-2.6,0.5s-1.8-0.2-2.6-0.5c-0.8-0.4-1.5-0.8-2.1-1.4s-1.1-1.3-1.4-2.1
	C21.6,243.3,21.4,242.5,21.4,241.5z M25.1,241.6c0,0.4,0.1,0.8,0.2,1.2c0.2,0.4,0.4,0.7,0.7,1c0.3,0.3,0.6,0.5,1,0.7
	c0.4,0.2,0.8,0.2,1.2,0.2s0.8-0.1,1.2-0.2c0.4-0.2,0.7-0.4,1-0.7s0.5-0.6,0.7-1c0.2-0.4,0.2-0.8,0.2-1.2s-0.1-0.8-0.2-1.2
	c-0.2-0.4-0.4-0.7-0.7-1c-0.3-0.3-0.6-0.5-1-0.7c-0.4-0.2-0.8-0.2-1.2-0.2s-0.8,0.1-1.2,0.2c-0.4,0.2-0.7,0.4-1,0.7
	c-0.3,0.3-0.5,0.6-0.7,1C25.2,240.8,25.1,241.2,25.1,241.6z"/>
<path d="M38.1,243.4c-1.2,0-1.8-0.6-1.8-1.8c0-1.2,0.6-1.8,1.7-1.8h5.6c0.5,0,0.7-0.2,0.7-0.6c0-0.4-0.2-0.6-0.7-0.6H38
	c-1.1,0-1.7-0.6-1.7-1.8c0-1.2,0.6-1.8,1.7-1.8h7c1.6,0,2.6,0.6,3,1.7c0.4,1.1,0.5,2.2,0.1,3.2c-0.4,1-1.1,1.6-2.3,1.7
	c1.2,0.2,1.9,0.8,2.3,1.8c0.4,1,0.4,2.1-0.1,3.2c-0.4,1.1-1.4,1.7-2.9,1.7h-6.9c-1.2,0-1.8-0.6-1.8-1.8c0-1.2,0.6-1.8,1.8-1.8h5.6
	c0.5,0,0.7-0.2,0.7-0.6c0-0.4-0.2-0.6-0.7-0.6L38.1,243.4L38.1,243.4L38.1,243.4z"/>
<path d="M51.8,243.4c-1.2,0-1.8-0.6-1.8-1.8c0-1.2,0.6-1.8,1.7-1.8h5.6c0.5,0,0.7-0.2,0.7-0.6c0-0.4-0.2-0.6-0.7-0.6h-5.7
	c-1.1,0-1.7-0.6-1.7-1.8c0-1.2,0.6-1.8,1.7-1.8h7c1.6,0,2.6,0.6,3,1.7c0.4,1.1,0.5,2.2,0.1,3.2c-0.4,1-1.1,1.6-2.3,1.7
	c1.2,0.2,1.9,0.8,2.3,1.8c0.4,1,0.4,2.1-0.1,3.2c-0.4,1.1-1.4,1.7-2.9,1.7h-6.9c-1.2,0-1.8-0.6-1.8-1.8c0-1.2,0.6-1.8,1.8-1.8h5.6
	c0.5,0,0.7-0.2,0.7-0.6c0-0.4-0.2-0.6-0.7-0.6L51.8,243.4L51.8,243.4z"/>
<g>
	<path d="M11.2,252.2C11.2,252.3,11.2,252.3,11.2,252.2c-0.1,0-0.1,0-0.1,0c0,0-0.1,0-0.1-0.1c0,0-0.1-0.1-0.2-0.1
		c-0.1,0-0.1,0-0.2,0c-0.1,0-0.2,0-0.2,0s-0.1,0.1-0.2,0.1s-0.1,0.1-0.1,0.2c0,0.1,0,0.1,0,0.2c0,0.1,0,0.2,0.1,0.2
		c0,0.1,0.1,0.1,0.2,0.1c0.1,0,0.1,0.1,0.2,0.1s0.2,0.1,0.2,0.1c0.1,0,0.2,0.1,0.2,0.1c0.1,0,0.1,0.1,0.2,0.1c0.1,0,0.1,0.1,0.1,0.2
		c0,0.1,0.1,0.2,0.1,0.3c0,0.1,0,0.2-0.1,0.3c0,0.1-0.1,0.2-0.2,0.2c-0.1,0.1-0.2,0.1-0.3,0.2c-0.1,0-0.2,0.1-0.4,0.1
		c-0.2,0-0.3,0-0.4-0.1c-0.1-0.1-0.2-0.1-0.3-0.2l0.1-0.1c0,0,0,0,0.1,0c0,0,0,0,0,0s0,0,0.1,0.1c0,0,0.1,0,0.1,0.1
		c0,0,0.1,0,0.1,0.1c0,0,0.1,0,0.2,0.1c0.1,0,0.1,0,0.2,0c0.1,0,0.2,0,0.3,0c0.1,0,0.2-0.1,0.2-0.1c0.1-0.1,0.1-0.1,0.1-0.2
		s0-0.2,0-0.2c0-0.1,0-0.2-0.1-0.2c0-0.1-0.1-0.1-0.1-0.2c-0.1,0-0.1-0.1-0.2-0.1c-0.1,0-0.2-0.1-0.2-0.1c-0.1,0-0.2-0.1-0.2-0.1
		c-0.1,0-0.1-0.1-0.2-0.1s-0.1-0.1-0.2-0.2c0-0.1-0.1-0.2-0.1-0.3c0-0.1,0-0.2,0.1-0.2c0-0.1,0.1-0.2,0.1-0.2
		c0.1-0.1,0.1-0.1,0.2-0.2c0.1,0,0.2-0.1,0.3-0.1c0.1,0,0.3,0,0.4,0.1C11.1,252,11.2,252,11.2,252.2L11.2,252.2z"/>
	<path d="M20.8,253.9C20.8,253.9,20.8,253.8,20.8,253.9c0-0.1,0-0.1,0.1-0.1l1-1.8c0,0,0,0,0,0c0,0,0,0,0,0H22v2.6h-0.2v-2.2
		c0,0,0-0.1,0-0.1l-1,1.8c0,0,0,0-0.1,0h0c0,0-0.1,0-0.1,0l-1.1-1.8c0,0,0,0.1,0,0.1v2.2h-0.2v-2.6h0.1c0,0,0,0,0,0c0,0,0,0,0,0
		l1.1,1.8C20.7,253.8,20.8,253.8,20.8,253.9z"/>
	<path d="M32.4,254.5h-0.1c0,0,0,0,0,0c0,0,0,0,0,0l-0.3-0.8h-1.3l-0.3,0.8c0,0,0,0,0,0c0,0,0,0,0,0h-0.1l1.1-2.6h0.2L32.4,254.5z
		 M30.7,253.6h1.2l-0.5-1.3c0,0,0,0,0-0.1c0,0,0-0.1,0-0.1c0,0,0,0.1,0,0.1c0,0,0,0.1,0,0.1L30.7,253.6z"/>
	<path d="M40.7,253.3v1.2h-0.2v-2.6h0.7c0.3,0,0.5,0.1,0.7,0.2c0.2,0.1,0.2,0.3,0.2,0.5c0,0.1,0,0.2-0.1,0.3c0,0.1-0.1,0.2-0.1,0.2
		c-0.1,0.1-0.1,0.1-0.2,0.2c-0.1,0-0.2,0.1-0.3,0.1c0,0,0.1,0,0.1,0.1l0.9,1.1h-0.2c0,0,0,0-0.1,0c0,0,0,0,0,0l-0.8-1.1
		c0,0,0,0-0.1-0.1c0,0-0.1,0-0.1,0L40.7,253.3L40.7,253.3L40.7,253.3z M40.7,253.2h0.5c0.1,0,0.2,0,0.3,0c0.1,0,0.2-0.1,0.2-0.1
		c0.1-0.1,0.1-0.1,0.1-0.2c0-0.1,0.1-0.2,0.1-0.2c0-0.2-0.1-0.3-0.2-0.4c-0.1-0.1-0.3-0.1-0.5-0.1h-0.5L40.7,253.2L40.7,253.2
		L40.7,253.2z"/>
	<path d="M50.6,253.3v1.2h-0.2v-2.6h0.7c0.3,0,0.5,0.1,0.7,0.2c0.2,0.1,0.2,0.3,0.2,0.5c0,0.1,0,0.2-0.1,0.3c0,0.1-0.1,0.2-0.2,0.2
		c-0.1,0.1-0.1,0.1-0.2,0.2c-0.1,0-0.2,0.1-0.3,0.1c0,0,0.1,0,0.1,0.1l0.9,1.1h-0.2c0,0,0,0-0.1,0c0,0,0,0,0,0l-0.8-1.1
		c0,0,0,0-0.1-0.1c0,0-0.1,0-0.1,0L50.6,253.3L50.6,253.3z M50.6,253.2h0.5c0.1,0,0.2,0,0.3,0c0.1,0,0.2-0.1,0.2-0.1
		c0.1-0.1,0.1-0.1,0.1-0.2c0-0.1,0.1-0.2,0.1-0.2c0-0.2-0.1-0.3-0.2-0.4c-0.1-0.1-0.3-0.1-0.5-0.1h-0.5L50.6,253.2L50.6,253.2
		L50.6,253.2z"/>
	<path d="M62,251.9v0.2h-0.9v2.4h-0.2v-2.4H60v-0.2H62z"/>
</g>
</svg>
