<svg id="svg" version="1.1" xmlns="http://www.w3.org/2000/svg" width="200" height="200" viewBox="0, 0, 400,165.74585635359114">
    <g id="svgg">
        <path id="path0"
              d="M174.167 0.565 C 174.167 1.251,174.498 1.151,169.379 2.006 C 166.765 2.443,165.156 2.797,164.456 3.089 C 162.891 3.742,161.751 4.100,159.978 4.493 C 158.945 4.721,158.053 5.041,157.478 5.387 C 156.363 6.058,155.917 6.236,154.265 6.670 C 153.387 6.900,152.634 7.236,152.009 7.674 C 151.493 8.036,150.456 8.547,149.705 8.810 C 148.888 9.096,148.034 9.539,147.578 9.912 C 147.159 10.256,146.201 10.791,145.450 11.102 C 144.616 11.447,143.921 11.859,143.667 12.159 C 143.438 12.429,142.671 12.911,141.964 13.230 C 141.240 13.556,140.330 14.133,139.881 14.550 C 139.442 14.958,138.701 15.484,138.234 15.719 C 137.767 15.954,137.259 16.339,137.105 16.574 C 136.950 16.810,136.409 17.237,135.902 17.523 C 135.395 17.809,134.778 18.297,134.531 18.608 C 134.285 18.918,133.708 19.427,133.250 19.739 C 131.527 20.912,125.375 27.035,123.917 29.028 C 123.642 29.404,123.030 30.095,122.556 30.564 C 122.083 31.033,121.569 31.672,121.414 31.985 C 121.258 32.297,120.812 32.897,120.422 33.318 C 120.032 33.739,119.580 34.368,119.418 34.715 C 119.255 35.062,118.795 35.711,118.395 36.156 C 117.994 36.601,117.430 37.442,117.141 38.024 C 116.853 38.607,116.334 39.421,115.989 39.833 C 115.644 40.246,115.181 41.033,114.959 41.583 C 114.738 42.133,114.215 43.082,113.797 43.691 C 113.380 44.300,112.907 45.200,112.746 45.691 C 112.404 46.737,111.997 47.577,111.424 48.422 C 111.197 48.757,110.814 49.680,110.574 50.474 C 110.334 51.267,109.812 52.561,109.413 53.349 C 108.950 54.264,108.481 55.588,108.113 57.016 C 107.797 58.245,107.332 59.737,107.079 60.332 C 106.624 61.407,106.323 62.759,105.686 66.583 C 105.504 67.683,105.165 69.408,104.934 70.417 C 103.550 76.462,103.677 90.390,105.173 96.604 C 105.352 97.349,105.684 99.149,105.910 100.604 C 106.353 103.457,106.600 104.430,107.259 105.921 C 107.492 106.447,107.904 107.810,108.174 108.948 C 108.490 110.278,108.899 111.475,109.320 112.300 C 109.680 113.006,110.205 114.293,110.485 115.160 C 110.766 116.027,111.263 117.169,111.589 117.698 C 111.915 118.227,112.407 119.280,112.680 120.038 C 112.954 120.796,113.403 121.697,113.678 122.039 C 114.177 122.661,115.166 124.584,115.167 124.935 C 115.167 125.037,115.453 125.449,115.802 125.852 C 116.152 126.254,116.711 127.078,117.046 127.683 C 117.381 128.287,117.957 129.148,118.327 129.596 C 118.696 130.043,119.158 130.749,119.351 131.163 C 119.545 131.578,120.070 132.306,120.518 132.782 C 120.967 133.257,121.333 133.720,121.333 133.810 C 121.333 133.900,121.802 134.494,122.375 135.131 C 122.948 135.767,123.792 136.765,124.250 137.348 C 125.398 138.809,131.176 144.568,132.500 145.572 C 133.096 146.023,133.963 146.745,134.426 147.176 C 134.890 147.606,135.490 148.074,135.760 148.215 C 136.029 148.357,136.550 148.785,136.917 149.168 C 137.283 149.550,137.996 150.073,138.500 150.331 C 139.004 150.589,139.604 151.003,139.833 151.250 C 140.063 151.498,140.775 151.964,141.417 152.287 C 142.058 152.610,142.925 153.192,143.343 153.580 C 143.760 153.968,144.398 154.382,144.759 154.499 C 145.698 154.803,146.899 155.427,147.167 155.750 C 147.454 156.096,148.650 156.700,149.780 157.070 C 150.254 157.225,150.936 157.565,151.296 157.825 C 152.261 158.524,152.774 158.755,154.250 159.156 C 154.983 159.355,156.071 159.811,156.668 160.170 C 157.490 160.665,158.275 160.947,159.918 161.338 C 161.109 161.621,162.543 162.069,163.105 162.334 C 164.414 162.949,165.638 163.262,168.010 163.588 C 169.059 163.733,170.573 164.003,171.375 164.189 L 172.833 164.528 172.833 165.097 L 172.833 165.667 186.333 165.667 L 199.833 165.667 199.833 165.104 C 199.833 164.450,200.341 164.271,203.667 163.754 C 206.954 163.242,208.078 162.974,209.289 162.414 C 209.955 162.107,211.157 161.697,211.959 161.505 C 214.595 160.873,214.840 160.791,215.750 160.243 C 216.730 159.653,217.456 159.362,219.250 158.842 C 219.960 158.635,220.701 158.276,221.143 157.923 C 221.585 157.570,222.425 157.161,223.291 156.880 C 224.292 156.554,224.930 156.227,225.441 155.777 C 225.860 155.408,226.711 154.928,227.449 154.644 C 228.246 154.337,229.001 153.901,229.446 153.491 C 229.839 153.128,230.556 152.654,231.039 152.437 C 231.522 152.219,232.179 151.763,232.500 151.422 C 232.821 151.081,233.658 150.512,234.359 150.157 C 235.103 149.781,235.785 149.301,235.995 149.007 C 236.193 148.729,236.706 148.303,237.136 148.061 C 237.565 147.819,238.260 147.275,238.679 146.852 C 239.099 146.429,239.744 145.907,240.112 145.691 C 240.480 145.475,240.908 145.085,241.062 144.824 C 241.217 144.563,241.584 144.180,241.880 143.972 C 243.084 143.127,249.246 136.663,250.002 135.453 C 250.275 135.015,250.608 134.615,250.741 134.564 C 250.875 134.512,251.319 133.933,251.729 133.277 C 252.139 132.620,252.712 131.858,253.003 131.583 C 253.293 131.308,253.822 130.555,254.178 129.910 C 254.534 129.265,255.060 128.515,255.348 128.244 C 255.635 127.972,256.113 127.222,256.410 126.576 C 256.707 125.931,257.176 125.143,257.452 124.826 C 258.023 124.171,258.338 123.596,258.813 122.346 C 258.996 121.865,259.411 121.085,259.737 120.611 C 260.062 120.138,260.560 119.112,260.843 118.333 C 261.125 117.554,261.573 116.578,261.837 116.165 C 262.477 115.163,262.759 114.459,263.076 113.073 C 263.222 112.437,263.675 111.242,264.082 110.417 C 264.649 109.268,264.925 108.409,265.260 106.750 C 265.501 105.558,265.945 103.946,266.246 103.167 C 266.856 101.589,267.357 98.965,267.740 95.333 C 267.880 94.004,268.146 91.758,268.330 90.342 C 269.049 84.809,269.036 84.692,267.607 83.812 L 266.775 83.300 257.512 83.316 C 245.683 83.336,245.667 83.339,245.667 85.736 C 245.667 89.284,244.884 95.091,244.159 96.917 C 243.905 97.558,243.537 98.833,243.343 99.750 C 242.889 101.893,242.602 102.755,241.827 104.314 C 241.480 105.012,241.000 106.232,240.760 107.024 C 240.494 107.904,240.035 108.904,239.583 109.593 C 239.175 110.214,238.725 111.073,238.582 111.504 C 238.439 111.934,238.075 112.578,237.772 112.935 C 237.470 113.292,236.874 114.224,236.449 115.008 C 236.024 115.792,235.479 116.617,235.239 116.841 C 234.998 117.066,234.649 117.550,234.464 117.917 C 234.278 118.283,233.685 119.046,233.146 119.611 C 232.608 120.176,232.167 120.720,232.167 120.820 C 232.167 120.985,231.422 121.857,229.662 123.750 C 228.193 125.331,225.503 127.839,224.796 128.287 C 224.374 128.555,223.827 129.014,223.580 129.307 C 223.333 129.600,222.783 130.038,222.357 130.279 C 221.932 130.521,221.246 131.037,220.833 131.426 C 220.421 131.815,219.618 132.366,219.049 132.649 C 218.480 132.932,217.750 133.396,217.428 133.679 C 217.105 133.962,216.221 134.455,215.462 134.775 C 214.704 135.094,213.896 135.529,213.667 135.742 C 213.106 136.262,212.316 136.646,210.917 137.078 C 210.275 137.276,209.235 137.749,208.606 138.129 C 207.824 138.600,207.057 138.903,206.189 139.084 C 204.857 139.360,203.341 139.833,201.474 140.555 C 200.864 140.790,199.739 141.063,198.974 141.161 C 198.209 141.259,196.683 141.456,195.583 141.599 C 191.578 142.119,190.348 142.202,186.667 142.202 C 182.858 142.202,181.446 142.100,176.833 141.494 C 172.951 140.984,172.363 140.858,170.959 140.228 C 170.249 139.909,168.839 139.462,167.826 139.234 C 165.636 138.740,165.525 138.700,164.293 137.954 C 163.767 137.635,162.706 137.177,161.935 136.937 C 161.033 136.655,160.217 136.262,159.647 135.834 C 159.160 135.468,158.270 134.980,157.669 134.751 C 157.069 134.522,156.204 134.024,155.747 133.645 C 155.290 133.266,154.451 132.733,153.881 132.460 C 153.306 132.184,152.662 131.723,152.433 131.424 C 152.207 131.127,151.598 130.670,151.080 130.408 C 150.562 130.146,149.975 129.737,149.776 129.500 C 149.577 129.264,148.986 128.754,148.464 128.368 C 146.231 126.719,139.917 119.971,139.087 118.347 C 138.872 117.927,138.421 117.321,138.085 117.000 C 137.749 116.679,137.294 116.042,137.074 115.583 C 136.854 115.125,136.420 114.475,136.109 114.140 C 135.533 113.518,135.109 112.720,134.585 111.274 C 134.424 110.829,134.088 110.229,133.837 109.941 C 133.234 109.246,133.125 109.021,132.508 107.191 C 132.218 106.333,131.803 105.358,131.585 105.024 C 131.053 104.210,130.760 103.407,130.257 101.390 C 130.025 100.458,129.609 99.132,129.333 98.443 C 127.408 93.634,126.995 80.725,128.442 70.583 C 128.769 68.291,128.985 67.317,129.359 66.454 C 129.634 65.821,130.031 64.358,130.264 63.121 C 130.604 61.320,130.829 60.612,131.492 59.250 C 131.939 58.333,132.462 56.997,132.655 56.279 C 132.991 55.030,133.277 54.386,134.019 53.213 C 134.206 52.918,134.574 52.068,134.837 51.324 C 135.104 50.567,135.606 49.592,135.975 49.111 C 136.338 48.637,136.824 47.782,137.055 47.210 C 137.286 46.638,137.811 45.738,138.221 45.210 C 138.631 44.682,139.154 43.875,139.383 43.417 C 139.613 42.958,140.003 42.396,140.250 42.167 C 140.497 41.938,140.882 41.392,141.104 40.955 C 141.327 40.518,141.863 39.767,142.296 39.285 C 142.729 38.803,143.451 37.905,143.901 37.288 C 144.350 36.671,144.773 36.167,144.839 36.167 C 144.905 36.167,145.287 35.735,145.688 35.208 C 146.302 34.400,147.191 33.430,148.884 31.720 C 150.016 30.578,151.758 28.974,152.518 28.376 C 153.806 27.364,155.117 26.282,156.119 25.406 C 156.597 24.989,157.347 24.458,157.786 24.227 C 158.224 23.996,158.883 23.520,159.250 23.170 C 159.617 22.819,160.413 22.292,161.021 22.000 C 161.628 21.707,162.415 21.214,162.771 20.903 C 163.126 20.593,163.935 20.139,164.569 19.894 C 165.202 19.650,165.999 19.199,166.338 18.893 C 167.001 18.294,167.640 17.985,169.239 17.491 C 169.797 17.319,170.515 16.982,170.835 16.743 C 171.775 16.039,172.484 15.731,174.223 15.269 C 175.124 15.030,176.324 14.579,176.889 14.267 C 177.631 13.858,178.514 13.578,180.064 13.257 C 181.244 13.013,182.795 12.601,183.509 12.340 C 186.413 11.280,193.942 10.439,200.583 10.433 C 206.886 10.427,214.473 11.235,217.059 12.188 C 217.781 12.455,219.320 12.862,220.478 13.093 C 222.816 13.560,224.123 13.937,224.500 14.252 C 225.020 14.687,226.134 15.131,227.602 15.489 C 228.822 15.786,229.276 15.988,229.909 16.510 C 230.607 17.088,232.439 17.833,233.157 17.833 C 233.270 17.833,233.756 18.230,234.237 18.716 C 234.826 19.309,235.353 19.670,235.848 19.817 C 236.815 20.106,237.882 20.651,238.053 20.943 C 238.320 21.401,239.451 21.971,240.182 22.016 C 241.218 22.079,241.333 22.144,241.333 22.659 C 241.333 23.545,242.858 24.042,243.526 23.374 C 243.676 23.224,242.021 22.000,241.669 22.000 C 241.576 22.000,241.500 21.784,241.500 21.519 C 241.500 20.999,240.637 20.085,239.677 19.588 C 239.396 19.443,239.167 19.257,239.167 19.175 C 239.167 18.821,238.271 18.009,237.453 17.622 C 236.954 17.386,236.366 16.939,236.106 16.598 C 235.817 16.219,235.196 15.770,234.447 15.396 C 233.789 15.068,232.987 14.549,232.667 14.242 C 232.346 13.935,231.633 13.486,231.083 13.246 C 230.533 13.005,229.783 12.521,229.417 12.169 C 228.959 11.731,228.344 11.388,227.457 11.076 C 226.620 10.783,225.900 10.391,225.419 9.967 C 224.887 9.499,224.242 9.167,223.153 8.802 C 222.316 8.521,221.395 8.087,221.107 7.837 C 220.392 7.216,220.121 7.092,218.583 6.680 C 217.850 6.484,216.500 5.950,215.583 5.494 C 214.399 4.905,213.434 4.565,212.250 4.319 C 211.333 4.129,209.908 3.687,209.083 3.338 C 207.555 2.692,205.969 2.304,203.583 1.996 C 202.850 1.901,201.481 1.666,200.542 1.473 L 198.833 1.123 198.833 0.562 L 198.833 0.000 186.500 0.000 L 174.167 0.000 174.167 0.565 M151.083 50.450 C 149.889 50.608,148.757 51.046,148.313 51.522 C 148.059 51.794,147.389 52.257,146.825 52.550 C 146.027 52.965,145.708 53.249,145.382 53.833 C 145.152 54.246,144.709 54.819,144.398 55.107 C 142.870 56.518,142.418 59.151,142.484 66.250 C 142.520 70.045,142.473 72.261,142.344 72.959 C 141.928 75.213,143.563 77.167,145.866 77.167 C 147.710 77.167,148.254 76.835,149.236 75.113 L 149.694 74.310 149.674 67.666 L 149.654 61.023 150.079 60.220 C 150.312 59.778,150.611 59.135,150.744 58.791 C 151.120 57.809,152.890 57.413,154.728 57.900 C 156.001 58.237,156.045 58.281,156.588 59.795 L 157.051 61.083 157.017 67.698 C 156.984 74.075,156.995 74.336,157.324 74.982 C 158.731 77.740,162.589 78.044,163.883 75.500 L 164.349 74.583 164.244 68.417 C 164.068 57.992,163.940 56.946,162.677 55.576 C 162.318 55.186,161.876 54.578,161.695 54.225 C 161.312 53.479,160.809 52.986,160.023 52.589 C 159.714 52.433,159.152 52.025,158.773 51.682 C 157.489 50.522,154.342 50.017,151.083 50.450 M176.665 50.496 C 175.365 50.664,174.610 50.945,174.153 51.431 C 173.935 51.663,173.278 52.081,172.693 52.360 C 170.130 53.584,167.975 56.438,167.254 59.565 C 167.003 60.654,166.693 61.796,166.565 62.101 C 166.261 62.828,166.262 65.045,166.566 65.634 C 166.694 65.882,167.005 66.943,167.256 67.993 C 167.816 70.336,168.025 70.851,168.622 71.355 C 168.878 71.572,169.291 72.096,169.538 72.518 C 169.784 72.940,170.195 73.423,170.450 73.590 C 170.705 73.757,171.252 74.237,171.665 74.657 C 172.220 75.221,172.676 75.502,173.409 75.730 C 173.954 75.899,174.671 76.256,175.002 76.521 C 176.696 77.883,182.106 77.835,183.973 76.441 C 184.646 75.939,185.086 75.973,187.235 76.696 C 189.971 77.616,191.782 77.076,192.422 75.149 C 192.668 74.409,192.691 73.531,192.626 67.366 C 192.544 59.755,192.467 59.104,191.526 58.120 C 191.283 57.864,190.821 57.116,190.500 56.457 C 190.077 55.587,189.738 55.137,189.266 54.820 C 188.909 54.580,188.481 54.120,188.317 53.800 C 187.986 53.155,187.565 52.830,186.622 52.490 C 186.276 52.366,185.655 51.985,185.242 51.644 C 183.843 50.487,180.350 50.020,176.665 50.496 M202.437 50.517 C 201.529 50.649,200.000 51.353,200.000 51.638 C 200.000 51.706,199.756 51.903,199.458 52.076 C 197.866 53.002,196.486 54.617,195.989 56.135 C 195.789 56.748,195.489 57.400,195.323 57.583 C 194.639 58.340,194.608 58.673,194.494 66.500 C 194.372 74.805,194.379 74.886,195.383 75.978 C 196.568 77.267,199.457 77.544,200.615 76.479 C 201.690 75.491,201.716 75.277,201.680 67.978 C 201.640 59.935,201.771 59.268,203.627 58.086 C 204.694 57.406,207.167 57.891,207.167 58.780 C 207.167 58.906,207.326 59.438,207.521 59.962 C 207.863 60.882,207.874 61.155,207.844 67.452 C 207.813 73.782,207.823 74.012,208.165 74.785 C 209.467 77.729,213.352 78.155,214.708 75.503 L 215.167 74.607 215.167 67.655 L 215.167 60.704 215.720 59.894 C 216.024 59.448,216.318 58.960,216.374 58.809 C 216.660 58.040,217.617 57.616,218.795 57.735 C 221.080 57.966,221.215 58.509,221.248 67.583 C 221.276 75.231,221.270 75.188,222.534 76.254 C 223.793 77.316,226.025 77.545,227.013 76.714 C 228.216 75.701,228.239 75.549,228.301 67.895 C 228.378 58.311,228.149 56.310,226.831 55.060 C 226.466 54.715,226.120 54.279,226.062 54.091 C 225.852 53.415,225.275 52.796,224.572 52.495 C 224.177 52.326,223.644 51.950,223.386 51.660 C 221.744 49.814,215.175 49.816,213.810 51.663 C 213.513 52.065,213.218 52.207,212.220 52.429 C 210.819 52.740,210.638 52.678,209.475 51.489 C 208.469 50.461,205.567 50.060,202.437 50.517 M254.167 50.566 C 252.840 50.776,251.993 51.135,251.635 51.639 C 251.515 51.808,250.919 52.183,250.311 52.472 C 249.674 52.776,249.080 53.192,248.908 53.457 C 248.744 53.710,248.291 54.199,247.901 54.544 C 247.464 54.932,247.103 55.442,246.958 55.878 C 246.804 56.342,246.529 56.716,246.154 56.970 C 243.778 58.579,243.657 68.753,245.990 70.716 C 246.240 70.926,246.686 71.552,246.982 72.107 C 247.364 72.825,247.706 73.221,248.166 73.479 C 248.521 73.679,248.964 74.089,249.150 74.390 C 249.518 74.986,249.714 75.108,251.324 75.745 C 251.915 75.979,252.555 76.317,252.746 76.496 C 254.218 77.879,260.403 77.847,262.114 76.446 C 262.372 76.235,262.996 75.894,263.500 75.689 C 264.994 75.081,265.195 74.948,265.600 74.307 C 265.812 73.971,266.284 73.528,266.650 73.323 C 267.131 73.052,267.462 72.670,267.854 71.933 C 268.151 71.374,268.606 70.717,268.866 70.472 C 270.722 68.727,270.703 59.040,268.840 57.083 C 268.579 56.808,268.194 56.216,267.985 55.766 C 267.715 55.184,267.401 54.825,266.892 54.516 C 266.499 54.278,266.175 54.004,266.172 53.908 C 266.162 53.562,265.069 52.676,264.333 52.417 C 263.922 52.271,263.359 51.934,263.084 51.668 C 261.846 50.470,257.875 49.980,254.167 50.566 M280.752 50.500 C 279.339 50.756,279.179 50.823,278.472 51.463 C 278.095 51.804,277.403 52.271,276.935 52.500 C 276.412 52.756,275.941 53.142,275.715 53.500 C 275.512 53.821,275.050 54.388,274.688 54.759 C 274.147 55.315,273.942 55.730,273.537 57.093 C 272.596 60.253,272.519 60.828,272.426 65.333 C 272.378 67.671,272.290 70.599,272.232 71.841 C 272.113 74.355,272.233 74.804,273.359 76.087 C 274.482 77.367,276.934 77.654,278.087 76.641 C 279.395 75.493,279.377 75.615,279.398 67.806 L 279.417 60.856 279.866 60.386 C 280.113 60.128,280.473 59.560,280.666 59.123 C 281.309 57.669,283.061 57.248,285.165 58.041 L 286.247 58.449 286.696 59.600 L 287.146 60.750 287.156 67.517 C 287.163 72.162,287.227 74.461,287.359 74.850 C 288.292 77.602,292.567 78.080,293.833 75.575 L 294.250 74.750 294.250 66.750 C 294.250 57.930,294.204 57.476,293.195 56.292 C 292.941 55.994,292.421 55.217,292.039 54.564 C 291.440 53.541,291.189 53.284,290.198 52.686 C 289.567 52.305,288.877 51.808,288.665 51.581 C 287.735 50.591,283.469 50.008,280.752 50.500 M240.712 50.761 C 239.951 50.891,239.123 51.180,238.462 51.545 C 237.887 51.864,237.117 52.219,236.750 52.335 C 235.452 52.745,234.507 53.328,234.104 53.968 C 233.885 54.314,233.442 54.829,233.120 55.112 C 231.435 56.592,231.000 59.107,231.000 67.381 C 231.000 71.017,230.936 73.134,230.816 73.479 C 230.700 73.810,230.690 74.083,230.787 74.212 C 230.873 74.324,231.069 74.760,231.224 75.180 C 231.820 76.795,232.589 77.236,234.650 77.142 C 236.215 77.071,236.893 76.646,237.779 75.181 L 238.309 74.306 238.226 68.821 C 238.102 60.587,238.647 58.949,241.828 58.001 C 243.060 57.635,243.750 57.040,243.926 56.195 C 243.977 55.950,244.099 55.450,244.197 55.083 C 244.980 52.152,243.476 50.287,240.712 50.761 M156.364 51.556 C 156.668 51.685,157.584 52.213,158.400 52.729 C 159.217 53.245,159.984 53.667,160.106 53.667 C 160.228 53.667,160.525 54.060,160.767 54.542 C 161.009 55.023,161.569 55.908,162.012 56.509 C 163.248 58.187,163.194 57.793,163.360 66.310 L 163.511 74.036 163.076 74.778 C 162.575 75.632,162.595 75.623,161.188 75.709 L 160.126 75.774 159.288 75.004 L 158.451 74.235 158.434 67.576 C 158.417 61.022,158.411 60.909,158.055 60.409 C 157.856 60.130,157.510 59.493,157.286 58.993 C 156.101 56.348,151.343 55.822,150.026 58.191 C 149.689 58.796,149.294 59.401,148.747 60.150 L 148.333 60.716 148.333 67.501 L 148.333 74.286 147.646 75.067 L 146.960 75.847 145.771 75.799 L 144.583 75.750 144.042 74.939 L 143.500 74.129 143.503 67.356 C 143.507 58.936,143.743 57.177,145.019 56.040 C 145.285 55.803,145.684 55.226,145.905 54.758 C 146.381 53.754,146.700 53.445,147.542 53.175 C 147.886 53.064,148.544 52.715,149.005 52.398 C 150.757 51.192,154.508 50.763,156.364 51.556 M181.443 51.320 C 182.099 51.396,182.924 51.613,183.277 51.802 C 184.149 52.271,186.149 53.245,186.702 53.470 C 186.951 53.571,187.340 53.948,187.567 54.307 C 187.794 54.667,188.318 55.238,188.731 55.577 C 189.197 55.959,189.557 56.425,189.679 56.805 C 189.788 57.141,190.298 58.234,190.813 59.233 L 191.750 61.049 191.799 67.650 C 191.857 75.393,191.903 75.157,190.272 75.495 C 189.045 75.750,188.939 75.748,187.531 75.436 C 185.573 75.003,184.198 75.073,182.874 75.674 C 180.555 76.726,178.899 76.710,175.750 75.607 C 174.833 75.286,173.871 74.978,173.611 74.922 C 173.138 74.820,170.000 71.884,170.000 71.544 C 170.000 71.451,169.698 71.047,169.330 70.646 C 167.267 68.402,167.187 58.350,169.222 57.043 C 169.330 56.973,169.847 56.380,170.370 55.724 C 171.531 54.270,172.484 53.469,173.689 52.937 C 174.191 52.714,174.839 52.334,175.128 52.090 C 176.048 51.316,178.663 50.997,181.443 51.320 M207.205 51.451 C 207.596 51.608,208.329 52.026,208.833 52.381 C 210.987 53.896,212.921 53.860,214.630 52.274 C 216.242 50.777,220.932 50.780,222.431 52.280 C 222.656 52.504,223.232 52.862,223.711 53.074 C 224.723 53.523,225.003 53.805,225.457 54.833 C 225.639 55.246,225.985 55.764,226.226 55.986 C 227.366 57.034,227.411 57.409,227.466 66.130 L 227.515 74.010 227.064 74.838 C 226.625 75.645,226.594 75.667,225.849 75.669 C 225.428 75.670,224.913 75.717,224.705 75.773 C 224.404 75.853,224.153 75.701,223.486 75.034 L 222.645 74.193 222.681 67.555 L 222.716 60.917 221.835 59.208 C 220.300 56.231,217.941 55.792,215.599 58.046 C 214.368 59.231,214.333 59.486,214.333 67.331 L 214.333 74.101 213.852 74.861 L 213.370 75.620 212.158 75.739 L 210.947 75.859 210.182 75.094 L 209.417 74.330 209.333 67.623 C 209.252 61.114,209.240 60.902,208.895 60.417 C 208.699 60.142,208.316 59.425,208.044 58.823 C 207.417 57.438,206.959 57.079,205.497 56.833 L 204.337 56.637 203.143 57.279 C 200.885 58.494,200.822 58.781,200.852 67.681 C 200.868 72.241,200.818 74.376,200.690 74.597 C 199.779 76.174,197.661 76.174,196.180 74.597 C 195.782 74.174,195.494 61.726,195.850 60.333 C 195.932 60.012,196.195 58.925,196.435 57.917 C 196.674 56.908,197.030 55.858,197.224 55.583 C 197.804 54.763,199.467 53.191,200.131 52.836 C 200.471 52.654,201.056 52.274,201.431 51.992 C 202.519 51.174,205.753 50.871,207.205 51.451 M259.328 51.339 C 260.018 51.428,260.886 51.667,261.274 51.875 C 261.955 52.240,262.837 52.678,264.298 53.378 C 264.691 53.566,265.137 53.931,265.290 54.189 C 265.442 54.447,265.880 54.883,266.262 55.157 C 266.883 55.603,267.500 56.507,267.500 56.971 C 267.500 57.064,267.770 57.495,268.101 57.928 C 269.976 60.385,270.008 67.122,268.156 69.583 C 267.811 70.042,267.341 70.843,267.112 71.365 C 266.780 72.119,266.558 72.382,266.028 72.652 C 265.661 72.839,265.189 73.238,264.978 73.538 C 264.435 74.312,264.261 74.419,262.583 75.014 C 261.758 75.307,260.746 75.742,260.333 75.981 C 259.198 76.638,255.672 76.638,254.417 75.980 C 253.958 75.739,253.058 75.378,252.417 75.176 C 250.772 74.658,250.191 74.342,249.866 73.791 C 249.711 73.527,249.231 73.094,248.800 72.829 C 248.144 72.425,247.924 72.147,247.453 71.131 C 247.144 70.463,246.764 69.813,246.610 69.686 C 244.807 68.206,244.795 59.240,246.595 58.060 C 246.813 57.918,247.190 57.377,247.433 56.859 C 248.076 55.484,250.138 53.439,251.333 52.989 C 251.838 52.799,252.438 52.470,252.667 52.259 C 253.641 51.359,256.471 50.968,259.328 51.339 M286.441 51.509 C 286.703 51.608,287.067 51.826,287.250 51.995 C 287.433 52.163,287.888 52.477,288.261 52.692 C 290.706 54.103,290.572 53.984,291.415 55.485 C 291.858 56.272,292.425 57.254,292.676 57.667 C 293.436 58.915,293.500 59.659,293.499 67.217 C 293.499 75.030,293.478 75.181,292.380 75.429 C 292.125 75.486,291.638 75.603,291.296 75.689 C 290.641 75.852,289.617 75.469,288.678 74.710 L 288.276 74.384 288.263 67.567 L 288.250 60.750 287.691 59.500 C 286.962 57.868,286.696 57.605,285.242 57.075 C 283.048 56.275,281.003 56.792,279.922 58.420 C 279.594 58.914,279.251 59.365,279.160 59.421 C 278.532 59.809,278.468 60.576,278.490 67.421 L 278.512 74.091 278.001 74.862 C 277.491 75.633,277.489 75.634,276.291 75.754 L 275.091 75.875 274.379 75.088 L 273.667 74.301 273.679 72.359 C 273.758 59.390,274.003 57.037,275.436 55.443 C 275.838 54.996,276.167 54.540,276.167 54.430 C 276.167 54.052,277.204 53.170,277.854 52.994 C 278.212 52.898,278.747 52.608,279.044 52.351 C 279.538 51.921,280.623 51.474,281.667 51.270 C 282.352 51.136,285.929 51.315,286.441 51.509 M242.360 51.721 C 242.856 52.098,243.220 53.759,243.115 55.158 C 242.996 56.726,242.722 57.010,240.938 57.406 C 239.565 57.712,239.531 57.740,238.084 59.778 C 236.874 61.482,236.833 61.759,236.833 68.326 C 236.833 74.599,236.879 74.269,235.860 75.375 C 235.473 75.795,235.335 75.833,234.215 75.833 L 232.993 75.833 232.485 75.042 L 231.978 74.250 232.038 66.583 C 232.109 57.664,232.100 57.721,233.710 56.020 C 234.198 55.505,234.759 54.821,234.956 54.500 C 235.331 53.889,235.977 53.576,238.833 52.620 C 239.521 52.389,240.496 52.046,241.000 51.856 C 242.083 51.448,242.011 51.456,242.360 51.721 M178.833 56.693 C 176.414 57.031,175.597 57.545,173.970 59.750 C 172.231 62.106,171.884 66.021,173.333 66.917 C 173.428 66.975,173.661 67.330,173.853 67.705 C 175.618 71.164,180.926 72.236,183.429 69.639 C 183.900 69.150,184.551 68.512,184.875 68.221 C 186.715 66.569,186.733 61.367,184.906 59.539 C 184.595 59.228,184.107 58.679,183.821 58.318 C 183.197 57.530,182.959 57.393,181.523 56.995 C 180.915 56.826,180.304 56.656,180.167 56.615 C 180.029 56.575,179.429 56.610,178.833 56.693 M256.000 56.820 C 253.700 57.338,252.135 58.605,251.326 60.605 C 251.108 61.143,250.758 61.838,250.548 62.148 C 249.972 63.002,250.002 64.713,250.610 65.602 C 250.854 65.958,251.261 66.700,251.514 67.250 C 251.956 68.210,253.772 70.100,254.755 70.625 C 255.752 71.157,259.280 71.120,260.199 70.567 C 261.476 69.799,262.868 68.178,263.445 66.787 C 263.779 65.980,264.116 65.281,264.193 65.234 C 264.384 65.115,264.372 62.710,264.179 62.591 C 264.095 62.539,263.897 62.103,263.740 61.623 C 263.145 59.807,262.059 58.331,260.667 57.447 C 260.336 57.238,257.429 56.440,257.285 56.520 C 257.266 56.530,256.688 56.666,256.000 56.820 M181.432 57.896 C 182.687 58.166,182.784 58.225,183.066 58.900 C 183.191 59.200,183.631 59.722,184.044 60.060 C 185.912 61.590,185.786 66.551,183.848 67.808 C 183.427 68.081,182.896 68.605,182.667 68.972 C 181.977 70.077,178.728 70.676,177.500 69.925 C 176.448 69.281,174.928 67.668,174.512 66.753 C 174.262 66.202,173.931 65.647,173.778 65.521 C 173.404 65.213,173.374 62.812,173.741 62.507 C 173.874 62.397,174.113 61.957,174.273 61.529 C 175.484 58.278,177.780 57.112,181.432 57.896 M258.967 57.776 C 259.835 57.880,260.191 58.108,261.026 59.092 C 261.177 59.270,261.561 59.653,261.879 59.942 C 263.378 61.305,263.219 68.000,261.686 68.000 C 261.545 68.000,261.036 68.416,260.555 68.924 C 259.220 70.336,255.902 70.750,254.884 69.632 C 253.985 68.643,253.451 68.167,253.242 68.167 C 251.782 68.167,251.224 61.869,252.536 60.191 C 254.306 57.925,255.736 57.388,258.967 57.776 "
              stroke="none" fill="#a0be3f" fill-rule="evenodd"></path>
        <path id="path1"
              d="M151.417 51.318 C 150.484 51.504,149.969 51.734,149.005 52.398 C 148.544 52.715,147.886 53.064,147.542 53.175 C 146.700 53.445,146.381 53.754,145.905 54.758 C 145.684 55.226,145.285 55.803,145.019 56.040 C 143.743 57.177,143.507 58.936,143.503 67.356 L 143.500 74.129 144.042 74.939 L 144.583 75.750 145.771 75.799 L 146.960 75.847 147.646 75.067 L 148.333 74.286 148.333 67.501 L 148.333 60.716 148.747 60.150 C 149.294 59.401,149.689 58.796,150.026 58.191 C 151.343 55.822,156.101 56.348,157.286 58.993 C 157.510 59.493,157.856 60.130,158.055 60.409 C 158.411 60.909,158.417 61.022,158.434 67.576 L 158.451 74.235 159.288 75.004 L 160.126 75.774 161.188 75.709 C 162.595 75.623,162.575 75.632,163.076 74.778 L 163.511 74.036 163.360 66.310 C 163.194 57.793,163.248 58.187,162.012 56.509 C 161.569 55.908,161.009 55.023,160.767 54.542 C 160.525 54.060,160.228 53.667,160.106 53.667 C 159.984 53.667,159.217 53.245,158.400 52.729 C 156.152 51.308,153.824 50.838,151.417 51.318 M176.785 51.423 C 176.041 51.571,175.474 51.800,175.128 52.090 C 174.839 52.334,174.191 52.714,173.689 52.937 C 172.484 53.469,171.531 54.270,170.370 55.724 C 169.847 56.380,169.330 56.973,169.222 57.043 C 167.187 58.350,167.267 68.402,169.330 70.646 C 169.698 71.047,170.000 71.451,170.000 71.544 C 170.000 71.884,173.138 74.820,173.611 74.922 C 173.871 74.978,174.833 75.286,175.750 75.607 C 178.899 76.710,180.555 76.726,182.874 75.674 C 184.198 75.073,185.573 75.003,187.531 75.436 C 188.939 75.748,189.045 75.750,190.272 75.495 C 191.903 75.157,191.857 75.393,191.799 67.650 L 191.750 61.049 190.813 59.233 C 190.298 58.234,189.788 57.141,189.679 56.805 C 189.557 56.425,189.197 55.959,188.731 55.577 C 188.318 55.238,187.794 54.667,187.567 54.307 C 187.340 53.948,186.951 53.571,186.702 53.470 C 186.149 53.245,184.149 52.271,183.277 51.802 C 182.140 51.191,178.902 51.002,176.785 51.423 M202.931 51.343 C 202.439 51.425,201.840 51.685,201.431 51.992 C 201.056 52.274,200.471 52.654,200.131 52.836 C 199.467 53.191,197.804 54.763,197.224 55.583 C 197.030 55.858,196.674 56.908,196.435 57.917 C 196.195 58.925,195.932 60.012,195.850 60.333 C 195.494 61.726,195.782 74.174,196.180 74.597 C 197.353 75.846,199.522 76.165,200.282 75.200 C 200.863 74.464,200.875 74.303,200.852 67.681 C 200.822 58.781,200.885 58.494,203.143 57.279 L 204.337 56.637 205.497 56.833 C 206.959 57.079,207.417 57.438,208.044 58.823 C 208.316 59.425,208.699 60.142,208.895 60.417 C 209.240 60.902,209.252 61.114,209.333 67.623 L 209.417 74.330 210.182 75.094 L 210.947 75.859 212.158 75.739 L 213.370 75.620 213.852 74.861 L 214.333 74.101 214.333 67.331 C 214.333 59.486,214.368 59.231,215.599 58.046 C 217.941 55.792,220.300 56.231,221.835 59.208 L 222.716 60.917 222.681 67.555 L 222.645 74.193 223.486 75.034 C 224.153 75.701,224.404 75.853,224.705 75.773 C 224.913 75.717,225.428 75.670,225.849 75.669 C 226.594 75.667,226.625 75.645,227.064 74.838 L 227.515 74.010 227.466 66.130 C 227.411 57.409,227.366 57.034,226.226 55.986 C 225.985 55.764,225.639 55.246,225.457 54.833 C 225.003 53.805,224.723 53.523,223.711 53.074 C 223.232 52.862,222.656 52.504,222.431 52.280 C 220.932 50.780,216.242 50.777,214.630 52.274 C 212.921 53.860,210.987 53.896,208.833 52.381 C 207.134 51.186,205.543 50.906,202.931 51.343 M255.234 51.333 C 253.991 51.515,253.139 51.822,252.667 52.259 C 252.438 52.470,251.838 52.799,251.333 52.989 C 250.138 53.439,248.076 55.484,247.433 56.859 C 247.190 57.377,246.813 57.918,246.595 58.060 C 244.795 59.240,244.807 68.206,246.610 69.686 C 246.764 69.813,247.144 70.463,247.453 71.131 C 247.924 72.147,248.144 72.425,248.800 72.829 C 249.231 73.094,249.711 73.527,249.866 73.791 C 250.191 74.342,250.772 74.658,252.417 75.176 C 253.058 75.378,253.958 75.739,254.417 75.980 C 255.672 76.638,259.198 76.638,260.333 75.981 C 260.746 75.742,261.758 75.307,262.583 75.014 C 264.261 74.419,264.435 74.312,264.978 73.538 C 265.189 73.238,265.661 72.839,266.028 72.652 C 266.558 72.382,266.780 72.119,267.112 71.365 C 267.341 70.843,267.811 70.042,268.156 69.583 C 270.008 67.122,269.976 60.385,268.101 57.928 C 267.770 57.495,267.500 57.064,267.500 56.971 C 267.500 56.507,266.883 55.603,266.262 55.157 C 265.880 54.883,265.442 54.447,265.290 54.189 C 265.137 53.931,264.691 53.566,264.298 53.378 C 262.837 52.678,261.955 52.240,261.274 51.875 C 260.152 51.274,257.350 51.023,255.234 51.333 M281.667 51.270 C 280.623 51.474,279.538 51.921,279.044 52.351 C 278.747 52.608,278.212 52.898,277.854 52.994 C 277.204 53.170,276.167 54.052,276.167 54.430 C 276.167 54.540,275.838 54.996,275.436 55.443 C 274.003 57.037,273.758 59.390,273.679 72.359 L 273.667 74.301 274.379 75.088 L 275.091 75.875 276.291 75.754 C 277.489 75.634,277.491 75.633,278.001 74.862 L 278.512 74.091 278.490 67.421 C 278.468 60.576,278.532 59.809,279.160 59.421 C 279.251 59.365,279.594 58.914,279.922 58.420 C 281.003 56.792,283.048 56.275,285.242 57.075 C 286.696 57.605,286.962 57.868,287.691 59.500 L 288.250 60.750 288.263 67.567 L 288.276 74.384 288.678 74.710 C 289.617 75.469,290.641 75.852,291.296 75.689 C 291.638 75.603,292.125 75.486,292.380 75.429 C 293.478 75.181,293.499 75.030,293.499 67.217 C 293.500 59.659,293.436 58.915,292.676 57.667 C 292.425 57.254,291.858 56.272,291.415 55.485 C 290.572 53.984,290.706 54.103,288.261 52.692 C 287.888 52.477,287.433 52.163,287.250 51.995 C 286.602 51.400,283.235 50.963,281.667 51.270 M241.000 51.856 C 240.496 52.046,239.521 52.389,238.833 52.620 C 235.977 53.576,235.331 53.889,234.956 54.500 C 234.759 54.821,234.198 55.505,233.710 56.020 C 232.100 57.721,232.109 57.664,232.038 66.583 L 231.978 74.250 232.485 75.042 L 232.993 75.833 234.215 75.833 C 235.335 75.833,235.473 75.795,235.860 75.375 C 236.879 74.269,236.833 74.599,236.833 68.326 C 236.833 61.759,236.874 61.482,238.084 59.778 C 239.531 57.740,239.565 57.712,240.938 57.406 C 243.075 56.931,243.688 55.545,242.924 52.916 C 242.500 51.460,242.318 51.360,241.000 51.856 M181.523 56.995 C 182.959 57.393,183.197 57.530,183.821 58.318 C 184.107 58.679,184.595 59.228,184.906 59.539 C 186.733 61.367,186.715 66.569,184.875 68.221 C 184.551 68.512,183.900 69.150,183.429 69.639 C 180.926 72.236,175.618 71.164,173.853 67.705 C 173.661 67.330,173.428 66.975,173.333 66.917 C 172.503 66.403,172.189 63.314,172.804 61.710 C 173.108 60.919,174.408 59.031,175.302 58.083 C 176.047 57.294,179.216 56.337,180.167 56.615 C 180.304 56.656,180.915 56.826,181.523 56.995 M258.785 56.842 C 261.364 57.443,262.836 58.864,263.740 61.623 C 263.897 62.103,264.095 62.539,264.179 62.591 C 264.372 62.710,264.384 65.115,264.193 65.234 C 264.116 65.281,263.779 65.980,263.445 66.787 C 262.868 68.178,261.476 69.799,260.199 70.567 C 259.280 71.120,255.752 71.157,254.755 70.625 C 253.772 70.100,251.956 68.210,251.514 67.250 C 251.261 66.700,250.854 65.958,250.610 65.602 C 250.002 64.713,249.972 63.002,250.548 62.148 C 250.758 61.838,251.108 61.143,251.326 60.605 C 252.135 58.605,253.700 57.338,256.000 56.820 C 256.688 56.666,257.266 56.530,257.285 56.520 C 257.305 56.509,257.980 56.654,258.785 56.842 "
              stroke="none" fill="#312422" fill-rule="evenodd"></path>
    </g>
</svg>