<?xml version="1.0" encoding="utf-8"?>
<!-- Generator: Adobe Illustrator 24.0.2, SVG Export Plug-In . SVG Version: 6.00 Build 0)  -->
<svg version="1.1" id="Layer_1" xmlns="http://www.w3.org/2000/svg" xmlns:xlink="http://www.w3.org/1999/xlink" x="0px" y="0px"
	 viewBox="0 0 1000 1000" style="enable-background:new 0 0 1000 1000;" xml:space="preserve">
<style type="text/css">
	.st0{fill:none;stroke:#000000;stroke-width:0.375;stroke-linecap:round;stroke-linejoin:round;stroke-miterlimit:10;}
	.st1{fill:#241A16;}
	.st2{fill-rule:evenodd;clip-rule:evenodd;fill:#241A16;}
	.st3{fill-rule:evenodd;clip-rule:evenodd;fill:#231915;}
	.st4{fill:none;stroke:#231915;stroke-width:0.255;stroke-miterlimit:22.926;}
	.st5{fill:none;stroke:#231F20;stroke-width:0.25;stroke-linecap:round;stroke-linejoin:round;stroke-miterlimit:10;}
	.st6{fill:none;stroke:#241A16;stroke-width:0.7;stroke-miterlimit:10;}
	.st7{fill:none;stroke:#160706;stroke-width:0.25;stroke-miterlimit:10;}
	.st8{fill:none;stroke:#231F20;stroke-width:0.25;stroke-miterlimit:10;}
	.st9{fill:#231F20;}
	.st10{fill-rule:evenodd;clip-rule:evenodd;fill:#231F20;}
	.st11{fill:#231F20;stroke:#231F20;stroke-width:0.05;stroke-miterlimit:10;}
</style>
<g>
	<g>
		<line class="st0" x1="143.32" y1="17.93" x2="231.36" y2="17.22"/>
		<line class="st0" x1="143.35" y1="21.25" x2="231.38" y2="20.53"/>
		<line class="st0" x1="137.09" y1="24.62" x2="140.52" y2="24.59"/>
		<line class="st0" x1="238.28" y1="23.79" x2="234.85" y2="23.82"/>
		<line class="st0" x1="137.19" y1="36.78" x2="140.62" y2="36.75"/>
		<line class="st0" x1="238.38" y1="35.95" x2="234.95" y2="35.98"/>
		<line class="st0" x1="999.26" y1="155.79" x2="1000" y2="240.92"/>
		<line class="st0" x1="995.83" y1="155.82" x2="996.57" y2="240.94"/>
		<line class="st0" x1="993.2" y1="247.61" x2="993.17" y2="244.29"/>
		<line class="st0" x1="992.35" y1="149.76" x2="992.37" y2="152.53"/>
		<line class="st0" x1="980.62" y1="247.71" x2="980.59" y2="244.39"/>
		<line class="st0" x1="979.77" y1="149.87" x2="979.79" y2="152.63"/>
		<line class="st0" x1="863.84" y1="34.17" x2="894.14" y2="33.92"/>
		<line class="st0" x1="241.84" y1="39.24" x2="744.93" y2="35.15"/>
		<line class="st0" x1="97.78" y1="40.42" x2="133.79" y2="40.12"/>
		<line class="st0" x1="860.44" y1="37.51" x2="894.17" y2="37.24"/>
		<line class="st0" x1="241.87" y1="42.56" x2="748.39" y2="38.43"/>
		<line class="st0" x1="97.8" y1="43.73" x2="133.82" y2="43.44"/>
		<line class="st0" x1="860.62" y1="57.41" x2="864.04" y2="57.38"/>
		<line class="st0" x1="748.56" y1="58.33" x2="745.13" y2="58.36"/>
		<line class="st0" x1="752.02" y1="61.62" x2="857.21" y2="60.76"/>
		<line class="st0" x1="752.04" y1="64.38" x2="857.24" y2="63.52"/>
		<line class="st0" x1="982.47" y1="853.01" x2="982.73" y2="882.32"/>
		<line class="st0" x1="977.22" y1="251.05" x2="981.47" y2="738.05"/>
		<line class="st0" x1="976.01" y1="111.75" x2="976.31" y2="146.58"/>
		<line class="st0" x1="978.07" y1="741.39" x2="973.79" y2="251.08"/>
		<line class="st0" x1="979.01" y1="849.73" x2="979.3" y2="882.34"/>
		<line class="st0" x1="972.58" y1="111.78" x2="972.88" y2="146.61"/>
		<line class="st0" x1="958.06" y1="741.55" x2="958.03" y2="738.23"/>
		<line class="st0" x1="959" y1="849.89" x2="959.03" y2="853.2"/>
		<line class="st0" x1="954.65" y1="744.34" x2="955.54" y2="846.6"/>
		<line class="st0" x1="951.22" y1="744.37" x2="952.11" y2="846.63"/>
		<line class="st0" x1="847.72" y1="283.07" x2="719.72" y2="160.83"/>
		<line class="st0" x1="17.28" y1="119.57" x2="20.71" y2="119.54"/>
		<line class="st0" x1="976.01" y1="111.75" x2="972.58" y2="111.78"/>
		<line class="st0" x1="725.62" y1="836.87" x2="851.46" y2="713.12"/>
		<line class="st0" x1="902.23" y1="960.92" x2="902.2" y2="958.16"/>
		<line class="st0" x1="894.14" y1="33.92" x2="894.17" y2="37.24"/>
		<line class="st0" x1="697.05" y1="183.68" x2="825.04" y2="305.36"/>
		<line class="st0" x1="17.53" y1="148.87" x2="41.55" y2="148.67"/>
		<line class="st0" x1="41.57" y1="151.99" x2="21" y2="152.16"/>
		<line class="st0" x1="976.31" y1="146.58" x2="972.88" y2="146.61"/>
		<line class="st0" x1="45.04" y1="155.28" x2="48.46" y2="155.25"/>
		<line class="st0" x1="979.77" y1="149.87" x2="992.34" y2="149.76"/>
		<line class="st0" x1="979.79" y1="152.63" x2="992.37" y2="152.53"/>
		<line class="st0" x1="999.26" y1="155.79" x2="995.83" y2="155.82"/>
		<line class="st0" x1="828.41" y1="691.2" x2="702.56" y2="814.94"/>
		<line class="st0" x1="864.04" y1="57.39" x2="863.84" y2="34.17"/>
		<line class="st0" x1="860.62" y1="57.41" x2="860.44" y2="37.51"/>
		<line class="st0" x1="866.78" y1="961.21" x2="866.76" y2="958.44"/>
		<line class="st0" x1="857.21" y1="60.76" x2="857.24" y2="63.52"/>
		<line class="st0" x1="863.38" y1="964.55" x2="863.49" y2="977.26"/>
		<line class="st0" x1="859.95" y1="964.58" x2="860.06" y2="977.29"/>
		<line class="st0" x1="1000" y1="240.92" x2="996.57" y2="240.94"/>
		<line class="st0" x1="354.57" y1="247.29" x2="640.99" y2="244.95"/>
		<line class="st0" x1="993.17" y1="244.29" x2="980.6" y2="244.39"/>
		<line class="st0" x1="993.2" y1="247.61" x2="980.63" y2="247.71"/>
		<line class="st0" x1="45.92" y1="256.99" x2="49.35" y2="256.96"/>
		<line class="st0" x1="977.22" y1="251.05" x2="973.79" y2="251.08"/>
		<line class="st0" x1="21.94" y1="260.5" x2="42.52" y2="260.33"/>
		<line class="st0" x1="18.54" y1="263.84" x2="42.55" y2="263.65"/>
		<line class="st0" x1="641.15" y1="263.19" x2="354.73" y2="265.53"/>
		<line class="st0" x1="765.73" y1="978.06" x2="765.62" y2="965.35"/>
		<line class="st0" x1="762.3" y1="978.09" x2="762.19" y2="965.38"/>
		<line class="st0" x1="752.02" y1="61.62" x2="752.05" y2="64.38"/>
		<line class="st0" x1="758.73" y1="962.09" x2="758.71" y2="959.33"/>
		<line class="st0" x1="748.39" y1="38.43" x2="748.56" y2="58.33"/>
		<line class="st0" x1="744.93" y1="35.14" x2="745.13" y2="58.36"/>
		<line class="st0" x1="674.4" y1="798.59" x2="673.72" y2="720.09"/>
		<line class="st0" x1="376.19" y1="365.96" x2="622.01" y2="363.96"/>
		<line class="st0" x1="641.86" y1="344.45" x2="640.99" y2="244.95"/>
		<line class="st0" x1="298.02" y1="186.94" x2="274.95" y2="164.46"/>
		<line class="st0" x1="851.47" y1="713.12" x2="828.41" y2="691.2"/>
		<line class="st0" x1="281.57" y1="202.55" x2="258.52" y2="180.63"/>
		<line class="st0" x1="835.03" y1="729.28" x2="811.97" y2="707.36"/>
		<line class="st0" x1="804.59" y1="714.05" x2="828.22" y2="735.97"/>
		<line class="st0" x1="251.14" y1="187.87" x2="274.2" y2="209.79"/>
		<line class="st0" x1="825.04" y1="305.36" x2="847.71" y2="283.07"/>
		<line class="st0" x1="280.85" y1="840.49" x2="303.52" y2="818.2"/>
		<line class="st0" x1="808.32" y1="289.47" x2="831" y2="267.18"/>
		<line class="st0" x1="264.13" y1="824.6" x2="286.8" y2="802.3"/>
		<line class="st0" x1="279.31" y1="795.73" x2="256.64" y2="818.02"/>
		<line class="st0" x1="824.07" y1="260.04" x2="800.83" y2="282.34"/>
		<line class="st0" x1="580.16" y1="546.73" x2="579.35" y2="453.31"/>
		<line class="st0" x1="796.66" y1="722.41" x2="819.72" y2="744.34"/>
		<line class="st0" x1="243.21" y1="195.68" x2="266.26" y2="217.6"/>
		<line class="st0" x1="271.24" y1="787.51" x2="248.56" y2="809.8"/>
		<line class="st0" x1="815.43" y1="252.37" x2="792.76" y2="274.67"/>
		<line class="st0" x1="203.91" y1="279.47" x2="180.28" y2="257.55"/>
		<line class="st0" x1="757.37" y1="805.65" x2="734.3" y2="783.73"/>
		<line class="st0" x1="195.41" y1="287.28" x2="172.35" y2="265.36"/>
		<line class="st0" x1="748.86" y1="814.01" x2="725.8" y2="792.09"/>
		<line class="st0" x1="719" y1="798.78" x2="742.06" y2="820.7"/>
		<line class="st0" x1="164.98" y1="272.6" x2="188.61" y2="294.52"/>
		<line class="st0" x1="729.34" y1="213.83" x2="752.01" y2="191.53"/>
		<line class="st0" x1="184.57" y1="749.52" x2="207.82" y2="727.21"/>
		<line class="st0" x1="720.69" y1="206.16" x2="743.37" y2="183.86"/>
		<line class="st0" x1="176.5" y1="741.29" x2="199.17" y2="718.99"/>
		<line class="st0" x1="192.25" y1="712.41" x2="169.01" y2="734.71"/>
		<line class="st0" x1="736.45" y1="176.73" x2="713.77" y2="199.03"/>
		<line class="st0" x1="419.84" y1="454.61" x2="420.65" y2="548.03"/>
		<line class="st0" x1="702.56" y1="814.94" x2="725.62" y2="836.86"/>
		<line class="st0" x1="149.11" y1="288.76" x2="172.17" y2="310.68"/>
		<line class="st0" x1="175.54" y1="696.52" x2="152.86" y2="718.82"/>
		<line class="st0" x1="719.73" y1="160.83" x2="697.05" y2="183.68"/>
		<line class="st0" x1="355.44" y1="346.78" x2="354.57" y2="247.29"/>
		<line class="st0" x1="330.7" y1="722.89" x2="331.39" y2="801.39"/>
		<line class="st0" x1="666.8" y1="713.52" x2="337.51" y2="716.2"/>
		<line class="st0" x1="981.47" y1="738.05" x2="958.03" y2="738.23"/>
		<line class="st0" x1="978.07" y1="741.39" x2="958.06" y2="741.54"/>
		<line class="st0" x1="22.78" y1="750.83" x2="26.21" y2="750.8"/>
		<line class="st0" x1="954.65" y1="744.34" x2="951.22" y2="744.37"/>
		<line class="st0" x1="6.8" y1="754.28" x2="19.95" y2="754.17"/>
		<line class="st0" x1="6.83" y1="757.59" x2="19.98" y2="757.49"/>
		<line class="st0" x1="0" y1="760.97" x2="3.43" y2="760.94"/>
		<line class="st0" x1="255.07" y1="966.2" x2="254.87" y2="943.53"/>
		<line class="st0" x1="251.62" y1="963.46" x2="251.45" y2="943.56"/>
		<line class="st0" x1="241.84" y1="39.24" x2="241.87" y2="42.56"/>
		<line class="st0" x1="247.98" y1="940.27" x2="247.95" y2="936.95"/>
		<line class="st0" x1="238.28" y1="23.79" x2="238.38" y2="35.95"/>
		<line class="st0" x1="234.85" y1="23.82" x2="234.95" y2="35.98"/>
		<line class="st0" x1="231.36" y1="17.22" x2="231.38" y2="20.53"/>
		<line class="st0" x1="338.31" y1="807.97" x2="667.6" y2="805.29"/>
		<line class="st0" x1="303.52" y1="818.2" x2="175.54" y2="696.52"/>
		<line class="st0" x1="0.74" y1="845.54" x2="4.17" y2="845.52"/>
		<line class="st0" x1="20.78" y1="848.7" x2="7.63" y2="848.81"/>
		<line class="st0" x1="20.81" y1="852.01" x2="7.66" y2="852.12"/>
		<line class="st0" x1="955.54" y1="846.61" x2="952.11" y2="846.63"/>
		<line class="st0" x1="23.7" y1="855.31" x2="27.12" y2="855.28"/>
		<line class="st0" x1="959" y1="849.89" x2="979.01" y2="849.73"/>
		<line class="st0" x1="959.03" y1="853.21" x2="982.47" y2="853.02"/>
		<line class="st0" x1="172.17" y1="310.69" x2="298.02" y2="186.94"/>
		<line class="st0" x1="143.32" y1="17.93" x2="143.35" y2="21.25"/>
		<line class="st0" x1="140.62" y1="36.75" x2="140.51" y2="24.59"/>
		<line class="st0" x1="137.19" y1="36.78" x2="137.09" y2="24.62"/>
		<line class="st0" x1="142.79" y1="941.12" x2="142.77" y2="937.82"/>
		<line class="st0" x1="133.79" y1="40.12" x2="133.82" y2="43.44"/>
		<line class="st0" x1="139.39" y1="944.47" x2="139.56" y2="964.37"/>
		<line class="st0" x1="136.16" y1="967.16" x2="135.97" y2="944.5"/>
		<line class="st0" x1="152.86" y1="718.81" x2="280.85" y2="840.49"/>
		<line class="st0" x1="24" y1="890.13" x2="27.43" y2="890.1"/>
		<line class="st0" x1="982.73" y1="882.32" x2="979.3" y2="882.34"/>
		<line class="st0" x1="274.95" y1="164.46" x2="149.11" y2="288.77"/>
		<line class="st0" x1="105.86" y1="967.41" x2="105.83" y2="964.64"/>
		<line class="st0" x1="97.78" y1="40.42" x2="97.8" y2="43.73"/>
		<line class="st0" x1="247.95" y1="936.95" x2="142.77" y2="937.81"/>
		<line class="st0" x1="247.98" y1="940.27" x2="142.79" y2="941.12"/>
		<line class="st0" x1="251.44" y1="943.56" x2="254.87" y2="943.53"/>
		<line class="st0" x1="139.39" y1="944.47" x2="135.96" y2="944.5"/>
		<line class="st0" x1="49.35" y1="256.96" x2="48.46" y2="155.25"/>
		<line class="st0" x1="45.92" y1="256.99" x2="45.03" y2="155.28"/>
		<line class="st0" x1="41.57" y1="151.99" x2="41.55" y2="148.68"/>
		<line class="st0" x1="42.52" y1="260.33" x2="42.54" y2="263.64"/>
		<line class="st0" x1="251.62" y1="963.46" x2="758.71" y2="959.32"/>
		<line class="st0" x1="139.57" y1="964.37" x2="105.84" y2="964.64"/>
		<line class="st0" x1="902.2" y1="958.15" x2="866.76" y2="958.44"/>
		<line class="st0" x1="136.16" y1="967.16" x2="105.86" y2="967.41"/>
		<line class="st0" x1="758.73" y1="962.09" x2="255.07" y2="966.2"/>
		<line class="st0" x1="902.23" y1="960.92" x2="866.78" y2="961.21"/>
		<line class="st0" x1="762.19" y1="965.38" x2="765.62" y2="965.35"/>
		<line class="st0" x1="863.38" y1="964.55" x2="859.95" y2="964.58"/>
		<line class="st0" x1="762.3" y1="978.09" x2="765.73" y2="978.06"/>
		<line class="st0" x1="863.49" y1="977.27" x2="860.06" y2="977.29"/>
		<line class="st0" x1="21" y1="152.16" x2="20.71" y2="119.54"/>
		<line class="st0" x1="26.22" y1="750.8" x2="21.94" y2="260.5"/>
		<line class="st0" x1="27.43" y1="890.1" x2="27.12" y2="855.28"/>
		<line class="st0" x1="17.53" y1="148.87" x2="17.28" y2="119.57"/>
		<line class="st0" x1="22.78" y1="750.83" x2="18.54" y2="263.84"/>
		<line class="st0" x1="24" y1="890.13" x2="23.69" y2="855.31"/>
		<line class="st0" x1="20.81" y1="852.01" x2="20.78" y2="848.7"/>
		<line class="st0" x1="19.95" y1="754.17" x2="19.98" y2="757.49"/>
		<line class="st0" x1="7.66" y1="852.12" x2="7.63" y2="848.81"/>
		<line class="st0" x1="6.8" y1="754.28" x2="6.84" y2="757.59"/>
		<line class="st0" x1="4.17" y1="845.52" x2="3.43" y2="760.94"/>
		<line class="st0" x1="0.74" y1="845.54" x2="0" y2="760.97"/>
		<polyline class="st0" points="1.31,845.54 1.91,848.3 4.22,851.04 7.65,851.57 		"/>
		<polyline class="st0" points="27.12,855.28 26.52,851.97 23.65,849.78 20.78,849.25 		"/>
		<polyline class="st0" points="23.7,855.31 23.1,853.1 20.81,852.57 		"/>
		<polyline class="st0" points="4.74,845.51 5.33,847.72 7.63,848.24 		"/>
		<polyline class="st0" points="142.77,938.36 139.35,938.94 137.08,941.17 136.53,944.49 		"/>
		<polyline class="st0" points="142.8,941.68 140.52,942.25 139.96,944.46 		"/>
		<polyline class="st0" points="136.16,967.16 138.44,966.59 139,964.38 		"/>
		<polyline class="st0" points="24.57,890.12 25.23,901.18 28.19,912.21 32.29,922.68 37.51,932.03 44.45,940.82 53.1,949.04 
			62.31,955.6 72.07,960.5 82.96,964.28 94.42,966.95 105.86,967.41 		"/>
		<polyline class="st0" points="28,890.1 28.66,900.6 31.05,911.07 35.13,921 40.36,930.35 47.29,938.59 55.36,946.26 64,952.83 
			73.76,957.72 84.08,961.51 94.96,963.63 105.83,964.09 		"/>
		<polygon class="st0" points="125.24,895.38 124.62,889.3 122.28,883.8 118.81,878.85 114.2,874.47 109.03,871.74 102.72,870.14 
			96.43,869.64 90.72,870.79 84.45,873.05 79.92,876.96 75.95,881.42 73.14,886.97 71.48,893.06 71.53,898.59 73.29,904.65 
			76.2,910.16 80.25,914.55 84.85,918.38 91.15,920.54 96.88,921.59 103.17,920.99 109.44,919.29 114.56,916.48 119.09,912.02 
			122.48,907.02 124.73,901.47 		"/>
		<polyline class="st0" points="81.39,587.28 83.15,592.79 86.63,597.74 91.23,601.57 96.97,604.29 103.28,605.34 108.99,604.74 
			114.68,603.04 119.8,599.68 123.77,595.23 126.57,589.67 127.66,583.59 127.05,578.06 		"/>
		<polyline class="st0" points="6.81,754.83 3.38,755.42 1.12,757.64 0.57,760.96 		"/>
		<polyline class="st0" points="19.98,756.94 22.83,756.36 25.67,753.58 26.21,750.81 		"/>
		<polyline class="st0" points="19.95,753.62 22.23,753.05 22.79,750.83 		"/>
		<polyline class="st0" points="6.84,758.15 4.56,758.72 4,760.93 		"/>
		<polyline class="st0" points="458.32,867.79 453.69,861.2 448.5,855.71 442.17,851.34 435.28,848.64 427.83,847.03 419.83,846.55 
			412.41,847.72 405,850.54 398.17,854.46 392.5,859.49 387.98,865.6 384.61,872.27 382.95,879.46 382.45,886.66 383.65,894.38 
			386.01,901.55 390.06,907.6 395.26,913.64 401.01,918.01 407.9,921.28 415.35,923.43 423.36,923.91 430.79,923.29 438.2,920.48 
			445.03,917.1 451.28,912.08 		"/>
		<polyline class="st0" points="331.96,801.38 332.56,804.14 334.87,806.88 338.3,807.41 		"/>
		<polyline class="st0" points="254.3,943.54 253.7,940.23 250.82,938.04 247.96,937.5 		"/>
		<polyline class="st0" points="250.87,943.56 250.28,941.36 247.99,940.82 		"/>
		<polyline class="st0" points="252.19,963.45 252.78,965.66 255.07,966.19 		"/>
		<polygon class="st0" points="455.94,660.51 455.31,653.88 452.97,647.27 449.49,641.77 444.3,636.83 438.56,633.56 432.24,630.85 
			425.37,629.8 418.52,630.41 411.67,632.12 405.98,635.49 400.3,639.41 396.35,644.97 393.54,651.07 391.89,657.72 391.94,664.35 
			393.72,670.97 396.62,677.02 400.67,682.52 406.42,686.34 412.17,689.61 419.05,691.22 425.91,691.71 432.76,690.55 
			439.02,687.74 444.72,684.37 449.82,679.35 453.2,673.8 455.43,667.15 		"/>
		<polyline class="st0" points="337.51,716.75 334.09,717.33 331.82,719.56 331.28,722.89 		"/>
		<polyline class="st0" points="120.88,460.36 127.7,455.89 133.38,450.86 137.89,444.74 140.69,438.08 142.34,430.89 
			142.85,423.15 141.64,415.97 138.72,408.81 134.66,402.2 129.47,396.72 123.15,392.35 116.25,389.09 108.81,387.49 101.37,387 
			93.37,388.17 85.96,390.44 79.71,394.36 73.47,399.38 68.93,404.95 65.57,411.61 63.34,418.82 62.84,426.57 63.47,433.75 
			66.39,440.9 69.88,447.51 75.08,453.55 		"/>
		<polygon class="st0" points="217.87,503.24 217.24,496.61 214.9,490 211.41,483.95 206.8,479.01 201.04,474.64 194.73,471.92 
			187.85,470.32 180.99,469.82 174.14,470.98 167.3,473.25 161.62,477.17 156.51,481.63 152.56,487.2 149.75,493.85 148.1,500.49 
			148.15,507.13 149.93,513.75 152.84,520.36 156.9,525.85 162.08,530.24 167.83,534.05 174.71,536.21 181.58,537.26 188.44,536.65 
			195.28,534.94 201.54,532.12 207.22,527.65 211.76,522.64 215.13,516.53 217.36,509.88 		"/>
		<polyline class="st0" points="42.54,263.1 45.4,262.52 48.23,259.73 48.78,256.96 		"/>
		<polyline class="st0" points="47.89,155.25 47.29,151.95 44.42,149.75 41.55,149.23 		"/>
		<polyline class="st0" points="44.46,155.28 43.87,153.08 41.58,152.54 		"/>
		<polyline class="st0" points="42.51,259.78 44.8,259.21 45.35,256.99 		"/>
		<polyline class="st0" points="21.94,261.05 19.66,261.62 19.11,263.84 		"/>
		<polyline class="st0" points="18.11,148.86 18.7,151.07 20.99,151.61 		"/>
		<polyline class="st0" points="97.78,40.97 86.35,41.62 74.94,44.47 64.11,48.43 54.44,53.48 45.35,60.19 36.84,68.56 30.06,77.45 
			25,86.89 21.09,97.43 18.33,108.51 17.85,119.57 		"/>
		<polyline class="st0" points="97.81,44.29 86.95,44.93 76.11,47.23 65.85,51.18 56.18,56.24 47.66,62.94 39.72,70.75 32.93,79.09 
			27.87,88.53 23.95,98.51 21.76,109.03 21.28,119.54 		"/>
		<polygon class="st0" points="118.41,112.12 117.78,106.04 115.45,100.53 111.98,95.58 107.36,91.19 102.2,88.47 95.9,86.87 
			89.6,86.37 83.9,87.52 77.62,89.79 73.08,93.69 69.12,98.15 66.31,103.69 64.65,109.79 64.7,115.32 66.47,121.38 69.37,126.89 
			73.42,131.27 78.02,135.11 84.32,137.27 90.05,138.32 96.34,137.72 102.61,136.01 107.73,133.21 112.27,128.75 115.65,123.75 
			117.89,118.2 		"/>
		<polyline class="st0" points="143.32,18.49 139.9,19.07 137.63,21.3 137.09,24.62 		"/>
		<polyline class="st0" points="133.82,42.88 136.67,42.31 139.5,39.53 140.05,36.76 		"/>
		<polyline class="st0" points="133.79,39.57 136.07,39 136.62,36.78 		"/>
		<polyline class="st0" points="143.35,21.8 141.07,22.38 140.51,24.59 		"/>
		<polygon class="st0" points="404.4,454.73 403.78,449.21 401.46,444.25 397.98,439.86 393.38,436.58 388.22,434.41 382.49,433.9 
			376.79,434.51 371.66,436.76 367.11,440.11 363.72,444.56 361.48,449.56 360.96,455.09 361.57,460.61 363.9,465.57 367.38,469.96 
			371.98,473.24 377.14,475.41 382.86,475.92 388.58,475.32 393.7,473.06 398.25,469.71 401.64,465.26 403.88,460.26 		"/>
		<polyline class="st0" points="356.01,346.78 357.2,352.85 360.11,358.35 364.15,362.19 369.89,364.91 376.19,365.96 		"/>
		<polyline class="st0" points="411,95.91 405.29,97.62 400.18,100.97 396.22,105.43 393.4,110.97 392.31,117.07 392.94,122.59 
			394.7,128.1 398.17,133.05 402.78,136.88 408.52,139.6 414.82,140.65 420.53,140.05 		"/>
		<polyline class="st0" points="237.7,23.8 237.1,20.49 234.23,18.3 231.36,17.77 		"/>
		<polyline class="st0" points="235.52,35.98 236.12,38.73 238.43,41.48 241.87,42 		"/>
		<polyline class="st0" points="238.95,35.95 239.55,38.15 241.84,38.69 		"/>
		<polyline class="st0" points="234.27,23.83 233.68,21.62 231.39,21.09 		"/>
		<polyline class="st0" points="589.01,905.98 594.71,904.27 599.83,900.92 603.79,896.46 606.6,890.91 607.69,884.82 
			607.07,879.29 605.31,873.79 601.83,868.83 597.23,865.01 591.49,862.28 585.19,861.24 579.47,861.83 		"/>
		<polyline class="st0" points="667.94,805.18 670.8,804.6 673.63,801.81 674.18,799.05 		"/>
		<polygon class="st0" points="611.44,659.24 610.81,652.61 608.47,646 604.99,640.5 599.8,635.57 594.05,632.3 587.74,629.58 
			580.87,628.54 574.01,629.14 567.17,630.86 561.48,634.23 555.8,638.14 551.85,643.7 549.04,649.8 547.38,656.45 547.44,663.08 
			549.21,669.7 552.13,675.76 556.18,681.25 561.93,685.08 567.67,688.35 574.55,689.95 581.41,690.45 588.26,689.28 594.53,686.47 
			600.22,683.1 605.32,678.09 608.7,672.53 610.93,665.88 		"/>
		<polygon class="st0" points="520.54,659.98 519.93,655.01 517.6,650.06 514.13,646.21 509.53,643.49 504.38,641.87 498.66,641.92 
			493.53,643.62 488.98,646.42 485.58,650.32 483.34,655.31 482.81,660.29 483.42,665.26 485.75,670.21 489.22,674.06 
			493.82,676.78 498.98,678.4 504.7,678.36 509.83,676.66 514.37,673.85 517.77,669.96 520.01,664.96 		"/>
		<polyline class="st0" points="866.76,958.44 863.34,959.02 861.07,961.25 860.52,964.57 		"/>
		<polyline class="st0" points="765.05,965.35 764.45,962.04 761.57,959.86 758.71,959.32 		"/>
		<polyline class="st0" points="902.23,960.92 913.66,960.27 925.06,957.41 935.89,953.45 945.56,948.4 954.65,941.69 
			963.16,933.33 969.94,924.43 975.01,914.99 978.92,904.46 981.68,893.38 982.15,882.31 		"/>
		<polyline class="st0" points="902.2,957.6 913.06,956.96 923.89,954.66 934.16,950.71 943.83,945.65 952.35,938.95 960.28,931.14 
			967.07,922.8 972.13,913.36 976.05,903.38 978.24,892.85 978.72,882.35 		"/>
		<polygon class="st0" points="935.33,888.78 934.7,882.7 932.37,877.2 928.89,872.26 924.29,867.87 919.11,865.14 912.81,863.53 
			906.51,863.03 900.81,864.19 894.54,866.45 890,870.36 886.04,874.82 883.23,880.36 881.57,886.46 881.61,891.99 883.38,898.04 
			886.29,903.56 890.33,907.94 894.94,911.78 901.24,913.94 906.97,914.99 913.25,914.39 919.53,912.68 924.65,909.88 
			929.18,905.42 932.57,900.42 934.81,894.87 		"/>
		<polyline class="st0" points="952.68,846.63 953.28,849.39 955.59,852.13 959.03,852.66 		"/>
		<polyline class="st0" points="956.12,846.6 956.71,848.81 959,849.34 		"/>
		<polyline class="st0" points="981.9,853.02 981.31,850.81 979.02,850.29 		"/>
		<polyline class="st0" points="879.7,541.52 872.88,546 867.2,551.02 862.68,557.14 859.89,563.8 858.23,570.99 857.73,578.74 
			858.93,585.92 861.86,593.07 865.92,599.68 871.1,605.16 877.43,609.53 884.33,612.8 891.77,614.39 899.21,614.88 907.2,613.72 
			914.61,611.44 920.87,607.52 927.11,602.5 931.65,596.93 935.01,590.27 937.24,583.06 937.74,575.32 937.11,568.14 934.19,560.98 
			930.69,554.37 925.5,548.33 		"/>
		<polyline class="st0" points="958.03,738.23 954.6,738.81 952.33,741.04 951.8,744.36 		"/>
		<polyline class="st0" points="958.06,741.55 955.78,742.12 955.22,744.34 		"/>
		<polyline class="st0" points="978.06,740.83 980.34,740.26 980.9,738.05 		"/>
		<polyline class="st0" points="548.73,89.81 521.27,87.27 493.82,86.94 465.81,88.27 438.39,91.26 411,95.91 		"/>
		<polyline class="st0" points="75.08,454.1 72.46,480.66 72.11,507.2 73.49,534.27 76.59,560.78 81.39,587.28 		"/>
		<polyline class="st0" points="451.85,912.07 479.31,914.62 506.75,914.94 534.76,913.61 562.18,910.62 589.58,905.97 		"/>
		<polyline class="st0" points="925.49,547.78 928.12,521.23 928.46,494.68 927.08,467.61 923.99,441.1 919.18,414.6 		"/>
		<polyline class="st0" points="541.69,134.65 517.66,132.63 493.07,132.28 469.07,133.58 445.08,135.99 421.1,140.05 		"/>
		<polyline class="st0" points="121.45,460.91 119.36,484.14 119.01,507.92 120.35,531.12 122.84,554.32 127.05,577.51 		"/>
		<polyline class="st0" points="458.89,867.24 482.92,869.25 507.51,869.6 531.51,868.31 555.5,865.89 579.48,861.83 		"/>
		<polyline class="st0" points="879.12,540.97 881.21,517.74 881.57,493.96 880.23,470.76 877.74,447.56 873.53,424.37 		"/>
		<polyline class="st0" points="579.35,453.86 572.41,444.52 564.33,436.29 555.12,428.63 544.78,422.63 534.44,417.75 
			522.97,413.96 511.52,411.85 499.51,411.39 487.5,412.04 476.1,414.35 464.7,418.31 454.44,423.37 444.21,429.54 435.13,437.35 
			427.2,445.7 420.42,455.16 		"/>
		<polyline class="st0" points="421.23,548.02 428.17,557.36 436.25,565.59 445.46,573.25 455.8,579.25 466.14,584.14 
			477.61,587.92 489.06,590.04 501.07,590.49 513.07,589.84 524.48,587.53 535.88,583.57 546.13,578.51 556.37,572.35 
			565.45,564.53 573.38,556.18 580.16,546.72 		"/>
		<polyline class="st0" points="622.02,363.96 628.3,362.8 633.99,359.99 637.96,356.09 640.77,350.54 641.85,344.45 		"/>
		<polyline class="st0" points="541.68,134.09 546.31,140.68 551.51,146.17 557.84,150.54 564.72,153.25 572.17,154.85 
			580.17,155.34 587.6,154.18 595,151.35 601.84,147.43 607.51,142.4 612.03,136.28 615.4,129.62 617.05,122.42 617.56,115.23 
			616.35,107.5 614,100.33 609.95,94.28 604.75,88.25 598.99,83.87 592.1,80.61 584.66,78.46 576.65,77.97 569.21,78.58 
			561.81,81.41 554.98,84.78 548.73,89.81 		"/>
		<polygon class="st0" points="852.45,498.07 851.82,491.44 849.47,484.83 845.99,478.78 841.38,473.83 835.62,469.46 
			829.31,466.74 822.43,465.15 815.57,464.65 808.72,465.81 801.88,468.08 796.19,472 791.09,476.46 787.13,482.02 784.33,488.68 
			782.67,495.32 782.73,501.96 784.5,508.58 787.42,515.19 791.47,520.68 796.66,525.06 802.41,528.88 809.29,531.04 816.16,532.09 
			823.01,531.48 829.86,529.76 836.12,526.95 841.8,522.48 846.33,517.47 849.71,511.36 851.94,504.71 		"/>
		<polyline class="st0" points="919.19,414.6 917.43,409.09 913.95,404.14 909.35,400.31 903.6,397.59 897.3,396.54 891.59,397.14 
			885.89,398.84 880.77,402.2 876.81,406.66 874,412.21 872.91,418.3 873.53,423.82 		"/>
		<polyline class="st0" points="745.7,58.35 746.3,61.11 748.61,63.85 752.04,64.38 		"/>
		<polyline class="st0" points="857.24,63.53 860.09,62.95 862.93,60.16 863.47,57.39 		"/>
		<polyline class="st0" points="857.21,60.21 859.49,59.64 860.04,57.42 		"/>
		<polyline class="st0" points="749.13,58.32 749.73,60.53 752.02,61.07 		"/>
		<polyline class="st0" points="747.82,38.43 747.23,36.23 744.93,35.69 		"/>
		<polyline class="st0" points="863.85,34.72 861.56,35.3 861.01,37.51 		"/>
		<polyline class="st0" points="998.69,155.79 998.09,152.49 995.21,150.29 992.35,149.77 		"/>
		<polyline class="st0" points="993.19,247.05 996.05,246.47 998.88,243.69 999.43,240.92 		"/>
		<polyline class="st0" points="973.45,146.6 974.04,149.36 976.36,152.1 979.79,152.63 		"/>
		<polyline class="st0" points="980.6,244.95 977.18,245.53 974.91,247.76 974.36,251.07 		"/>
		<polyline class="st0" points="976.88,146.58 977.47,148.78 979.76,149.32 		"/>
		<polyline class="st0" points="980.63,248.26 978.34,248.83 977.79,251.05 		"/>
		<polyline class="st0" points="995.26,155.82 994.67,153.62 992.38,153.08 		"/>
		<polyline class="st0" points="993.17,243.74 995.44,243.16 996,240.95 		"/>
		<polyline class="st0" points="975.43,111.76 974.76,100.71 971.81,89.67 967.72,79.21 962.49,69.85 955.55,61.07 946.9,52.84 
			937.7,46.29 927.94,41.39 917.04,37.61 905.58,34.93 894.15,34.47 		"/>
		<polyline class="st0" points="972,111.79 971.34,101.29 968.96,90.81 964.87,80.88 959.65,71.54 952.71,63.29 944.65,55.62 
			936.01,49.06 926.24,44.17 915.93,40.38 905.04,38.26 894.17,37.79 		"/>
		<polygon class="st0" points="928.5,105.51 927.88,99.44 925.54,93.92 922.06,88.98 917.45,84.6 912.28,81.87 905.98,80.26 
			899.69,79.77 893.98,80.91 887.71,83.18 883.17,87.08 879.21,91.54 876.4,97.09 874.74,103.18 874.78,108.71 876.55,114.77 
			879.46,120.28 883.5,124.67 888.11,128.5 894.41,130.66 900.14,131.72 906.43,131.12 912.7,129.41 917.82,126.6 922.35,122.14 
			925.74,117.14 927.98,111.6 		"/>
		<polygon class="st1" points="326.2,505.86 326.13,506.06 325.88,506.21 325.41,506.31 324.67,506.34 323.92,506.32 323.45,506.23 
			323.2,506.09 323.13,505.88 323.01,492.14 323.08,491.94 323.34,491.79 323.8,491.7 324.54,491.66 325.28,491.68 325.74,491.77 
			326,491.92 326.08,492.12 		"/>
		<path class="st1" d="M339.21,505.78l-0.06,0.2l-0.23,0.14l-0.45,0.09l-0.7,0.03l-0.72-0.01l-0.44-0.09l-0.23-0.14l-0.08-0.2
			l-0.05-5.73l-0.12-1.15l-0.33-0.71l-0.55-0.46l-0.77-0.16l-1.13,0.41l-1.18,1.15l0.05,6.67l-0.06,0.2l-0.24,0.14l-0.44,0.08
			l-0.71,0.04l-0.71-0.02l-0.44-0.08l-0.25-0.14l-0.06-0.2l-0.09-10.03l0.06-0.2l0.2-0.14l0.39-0.09l0.6-0.03l0.62,0.02l0.37,0.08
			l0.19,0.14l0.06,0.2l0.02,1.16l1.73-1.36l1.85-0.47c0.71-0.01,1.3,0.11,1.79,0.32l1.18,0.9l0.66,1.36
			c0.13,0.52,0.21,1.14,0.21,1.86L339.21,505.78z"/>
		<path class="st1" d="M351.93,505.68l-0.05,0.2l-0.19,0.14l-0.38,0.08l-0.58,0.03l-0.61-0.02l-0.38-0.08l-0.21-0.14l-0.06-0.21
			l-0.01-1.11l-1.68,1.31c-0.58,0.32-1.23,0.47-1.94,0.47c-0.79,0.01-1.46-0.14-2.01-0.43l-1.35-1.18l-0.76-1.76
			c-0.16-0.67-0.25-1.37-0.25-2.12c-0.01-0.9,0.08-1.69,0.27-2.41c0.19-0.72,0.48-1.33,0.85-1.82l1.41-1.18
			c0.56-0.27,1.22-0.41,1.95-0.42l1.58,0.33l1.42,0.99l-0.05-5.43l0.07-0.2l0.23-0.15l0.44-0.1l0.71-0.05l0.71,0.03l0.44,0.09
			l0.23,0.15l0.07,0.2L351.93,505.68z M348.96,498.99l-1.22-1.16l-1.21-0.4l-0.98,0.29l-0.65,0.75l-0.36,1.03l-0.12,1.16l0.12,1.23
			l0.36,1.05l0.64,0.75l1,0.28l0.58-0.1l0.58-0.28l0.61-0.5l0.68-0.76L348.96,498.99z"/>
		<path class="st1" d="M357.9,492.19l-0.35,1.19l-1.33,0.33l-1.33-0.3l-0.35-1.13l0.34-1.19l1.34-0.35l1.32,0.31L357.9,492.19
			 M357.8,505.63l-0.07,0.2l-0.24,0.14l-0.44,0.09l-0.7,0.03l-0.72-0.02l-0.44-0.08l-0.24-0.14l-0.07-0.2l-0.09-10.01l0.06-0.2
			l0.24-0.14l0.44-0.11l0.71-0.04l0.71,0.03l0.45,0.09l0.23,0.14l0.08,0.2L357.8,505.63z"/>
		<path class="st1" d="M368.56,503.94l-0.01,0.49l-0.05,0.33l-0.07,0.22l-0.18,0.22l-0.48,0.32l-0.76,0.34l-0.93,0.24l-1.04,0.1
			c-0.8,0.01-1.51-0.11-2.13-0.34l-1.56-1.05l-0.97-1.7c-0.22-0.68-0.33-1.45-0.34-2.31c-0.01-1.01,0.12-1.88,0.37-2.61
			c0.25-0.74,0.61-1.34,1.07-1.83l1.64-1.08c0.63-0.24,1.33-0.36,2.09-0.37l0.91,0.08l0.84,0.2l0.7,0.29l0.44,0.29l0.18,0.2
			l0.09,0.22l0.05,0.33l0.02,0.48l-0.1,0.92l-0.3,0.26l-0.42-0.15l-0.52-0.35l-0.72-0.34l-1-0.16c-0.76,0.01-1.34,0.3-1.74,0.87
			c-0.4,0.56-0.59,1.4-0.58,2.49l0.16,1.43l0.46,1.03l0.75,0.62l1.04,0.2l1.04-0.18l0.76-0.39l0.55-0.39l0.37-0.18l0.17,0.05
			l0.12,0.21l0.07,0.38L368.56,503.94"/>
		<path class="st1" d="M379.39,505.48l-0.12,0.25l-0.37,0.14l-0.74,0.05l-0.76-0.04l-0.34-0.12l-0.1-0.25l-0.01-0.8l-1.45,1.05
			l-1.82,0.38l-1.52-0.2l-1.21-0.61l-0.79-1.01l-0.29-1.41l0.34-1.53l1.05-1.08l1.75-0.63c0.69-0.14,1.5-0.21,2.42-0.22l1.01-0.02
			v-0.6l-0.11-0.83l-0.33-0.59l-0.61-0.34l-0.93-0.11l-1.31,0.17l-1.01,0.35l-0.73,0.35l-0.48,0.17l-0.23-0.08l-0.17-0.22
			l-0.09-0.36l-0.05-0.47l0.05-0.55l0.22-0.37l0.57-0.37l0.95-0.37l1.19-0.29l1.32-0.12c0.82-0.01,1.51,0.07,2.1,0.22l1.43,0.69
			l0.82,1.23c0.18,0.5,0.26,1.09,0.27,1.79L379.39,505.48z M376.48,501.21l-1.11,0.01l-1.21,0.11l-0.81,0.31l-0.46,0.5l-0.14,0.66
			l0.42,0.99l1.15,0.35l1.13-0.32l1.04-0.9L376.48,501.21z"/>
		<polyline class="st1" points="388.22,504.39 388.16,505.15 388,505.52 387.69,505.71 387.21,505.86 386.62,505.96 385.97,506 
			384.46,505.8 383.39,505.15 382.77,504.04 382.56,502.44 382.51,497.3 381.27,497.31 380.93,497.05 380.81,496.17 380.83,495.62 
			380.92,495.26 381.06,495.07 381.26,495.01 382.5,495.01 382.47,492.77 382.54,492.57 382.77,492.41 383.22,492.32 383.92,492.29 
			384.64,492.31 385.09,492.4 385.32,492.54 385.4,492.75 385.41,494.98 387.67,494.97 387.87,495.02 388.02,495.2 388.11,495.56 
			388.15,496.11 388.04,497 387.7,497.26 385.44,497.28 385.47,501.99 385.75,503.22 386.71,503.62 387.13,503.58 387.46,503.49 
			387.7,503.4 387.88,503.35 388.01,503.39 388.12,503.55 388.19,503.87 388.22,504.39 		"/>
		<path class="st1" d="M400.56,500.16c0.01,0.85-0.1,1.63-0.33,2.34c-0.23,0.71-0.57,1.32-1.04,1.84c-0.46,0.51-1.05,0.91-1.77,1.19
			c-0.71,0.29-1.54,0.43-2.49,0.44c-0.93,0.01-1.73-0.11-2.41-0.35l-1.71-1.07c-0.45-0.47-0.79-1.05-1.01-1.73
			c-0.22-0.69-0.33-1.48-0.34-2.36c-0.01-0.86,0.1-1.63,0.34-2.35c0.23-0.71,0.58-1.32,1.04-1.83c0.47-0.51,1.05-0.9,1.77-1.19
			c0.7-0.28,1.54-0.43,2.49-0.44c0.93-0.01,1.74,0.11,2.42,0.35l1.71,1.06c0.45,0.47,0.78,1.05,1.01,1.73
			C400.44,498.48,400.55,499.26,400.56,500.16 M397.55,500.3l-0.13-1.36l-0.42-1.08l-0.78-0.71l-1.22-0.26l-1.14,0.24l-0.79,0.68
			l-0.46,1.08l-0.15,1.42l0.14,1.37l0.42,1.08l0.79,0.71l1.21,0.24l1.15-0.24l0.8-0.67l0.45-1.07L397.55,500.3"/>
		<polyline class="st1" points="409.5,496.11 409.49,496.77 409.42,497.18 409.3,497.38 409.11,497.43 408.89,497.39 408.64,497.32 
			408.32,497.23 407.93,497.2 407.44,497.3 406.94,497.6 406.39,498.15 405.79,498.98 405.85,505.23 405.78,505.43 405.54,505.58 
			405.1,505.67 404.38,505.7 403.67,505.67 403.22,505.59 402.99,505.45 402.92,505.26 402.83,495.22 402.89,495.03 403.09,494.89 
			403.48,494.79 404.08,494.76 404.69,494.79 405.08,494.87 405.27,495.01 405.33,495.2 405.34,496.45 406.1,495.52 406.78,494.93 
			407.43,494.63 408.08,494.54 408.4,494.55 408.77,494.61 409.1,494.7 409.3,494.8 409.39,494.92 409.45,495.11 409.49,495.47 
			409.5,496.11 		"/>
		<path class="st1" d="M599.71,219.31l-0.02-2.65l12.37-14.07c-1.4,0.08-2.66,0.13-3.73,0.14l-8,0.07l-0.02-2.61l16.12-0.13
			l0.02,2.13L605.8,214.4l-2.03,2.26c1.53-0.11,2.93-0.2,4.23-0.22l9.18-0.08l0.03,2.8L599.71,219.31z M574.51,219.51l-0.23-26.38
			l3.63-0.03l0.09,10.88l14.1-0.11l-0.09-10.88l3.62-0.03l0.23,26.38l-3.62,0.03l-0.11-12.42l-14.09,0.12l0.1,12.41L574.51,219.51z
			 M555.15,206.67c0.04,4.35,0.6,7.22,1.64,8.65c1.08,1.42,2.38,2.11,3.9,2.1c1.53-0.01,2.81-0.75,3.87-2.16
			c1.01-1.45,1.53-4.36,1.49-8.68c-0.04-4.35-0.6-7.22-1.64-8.65c-1.04-1.43-2.38-2.12-3.94-2.11c-1.54,0.01-2.78,0.66-3.69,1.92
			C555.67,199.37,555.12,202.31,555.15,206.67 M551.72,206.7c-0.03-3.13,0.3-5.64,0.93-7.56c0.67-1.93,1.6-3.41,2.93-4.41
			c1.29-1.05,2.93-1.58,4.91-1.6c1.44-0.01,2.75,0.27,3.85,0.82c1.11,0.58,2.04,1.39,2.77,2.45c0.74,1.06,1.29,2.38,1.72,3.89
			c0.44,1.54,0.63,3.65,0.65,6.26c0.03,3.1-0.29,5.61-0.92,7.5c-0.63,1.92-1.61,3.4-2.9,4.44c-1.29,1.05-2.95,1.57-4.94,1.6
			c-2.63,0.01-4.7-0.89-6.19-2.68C552.71,215.2,551.76,211.63,551.72,206.7 M530.59,212.94l3.51-0.29c0.28,1.66,0.9,2.87,1.82,3.71
			c0.97,0.84,2.11,1.24,3.48,1.23c1.63-0.01,2.97-0.62,4.09-1.8c1.1-1.18,1.63-2.73,1.6-4.69c-0.01-1.84-0.56-3.31-1.64-4.38
			c-1.04-1.06-2.45-1.56-4.21-1.54c-1.1,0.01-2.06,0.23-2.93,0.72c-0.83,0.48-1.51,1.12-2,1.9l-3.16-0.42l2.51-13.58l13.53-0.11
			l0.02,3.09l-10.85,0.09l-1.39,7.13c1.64-1.12,3.34-1.68,5.14-1.7c2.35-0.02,4.38,0.77,6.03,2.34c1.67,1.57,2.49,3.63,2.5,6.14
			c0.02,2.39-0.69,4.46-2.09,6.2c-1.73,2.15-4.12,3.24-7.14,3.27c-2.47,0.02-4.5-0.63-6.07-1.98
			C531.73,216.95,530.84,215.16,530.59,212.94 M508.3,210l-0.03-3.69c1.32-1.45,3.04-2.15,5.17-2.17c0.76-0.01,1.53,0.1,2.37,0.31
			c0.8,0.17,1.99,0.61,3.47,1.22c0.88,0.33,1.54,0.57,1.96,0.65l1.29,0.17c0.8-0.01,1.64-0.23,2.51-0.72
			c0.83-0.48,1.59-1.08,2.27-1.79l0.04,3.83c-0.8,0.71-1.59,1.24-2.39,1.57c-0.83,0.33-1.75,0.48-2.74,0.49
			c-0.76,0.01-1.48-0.05-2.13-0.23c-0.69-0.17-1.76-0.57-3.26-1.2c-1.45-0.61-2.71-0.93-3.67-0.93c-0.8,0.01-1.56,0.17-2.24,0.5
			C510.2,208.36,509.33,209.03,508.3,210 M492.08,220.19l-10.79-26.3l3.93-0.04l7.26,19.11c0.58,1.54,1.09,2.98,1.48,4.29
			c0.41-1.44,0.85-2.87,1.41-4.32l7.19-19.23l3.69-0.03l-10.4,26.48L492.08,220.19z M465.1,207.41c0.04,4.34,0.6,7.22,1.64,8.64
			c1.08,1.43,2.38,2.12,3.91,2.1c1.52-0.01,2.81-0.75,3.86-2.16c1.02-1.45,1.53-4.36,1.49-8.67c-0.04-4.35-0.6-7.22-1.64-8.65
			c-1.04-1.43-2.38-2.12-3.95-2.11c-1.52,0.01-2.77,0.66-3.68,1.91C465.6,200.11,465.06,203.05,465.1,207.41 M461.66,207.43
			c-0.02-3.13,0.3-5.64,0.93-7.56c0.67-1.92,1.61-3.4,2.93-4.41c1.29-1.05,2.93-1.57,4.9-1.59c1.45-0.02,2.75,0.27,3.86,0.81
			c1.11,0.58,2.03,1.39,2.77,2.45c0.73,1.07,1.28,2.38,1.71,3.89c0.43,1.54,0.64,3.64,0.66,6.26c0.03,3.1-0.29,5.6-0.93,7.49
			c-0.62,1.92-1.61,3.4-2.89,4.44c-1.29,1.05-2.95,1.57-4.94,1.59c-2.63,0.02-4.7-0.89-6.2-2.67
			C462.66,215.93,461.71,212.36,461.66,207.43 M451.23,211.23l-0.11-11.86l-8.44,11.93L451.23,211.23z M451.31,220.51l-0.05-6.29
			l-11.86,0.09l-0.03-2.98l12.32-17.2l2.74-0.02l0.15,17.09l3.7-0.03l0.03,2.99l-3.7,0.03l0.05,6.3L451.31,220.51z M436.95,217.54
			l0.03,3.1l-18.08,0.15c-0.04-0.78,0.11-1.55,0.37-2.25c0.49-1.18,1.2-2.37,2.22-3.52c1.02-1.19,2.45-2.52,4.35-4.02
			c2.91-2.39,4.92-4.28,5.98-5.64c1.01-1.38,1.53-2.71,1.52-3.92c-0.01-1.3-0.47-2.36-1.43-3.23c-0.96-0.88-2.22-1.31-3.75-1.3
			c-1.64,0.01-2.93,0.5-3.87,1.44c-0.98,0.92-1.47,2.22-1.46,3.87l-3.43-0.3c0.21-2.47,1.1-4.39,2.62-5.7c1.5-1.3,3.6-1.98,6.19-2
			c2.59-0.01,4.7,0.66,6.23,2.06c1.53,1.39,2.31,3.15,2.33,5.22c0.02,1.06-0.21,2.09-0.66,3.1c-0.41,1.03-1.16,2.11-2.18,3.26
			c-1.01,1.15-2.72,2.71-5.1,4.68c-2.01,1.64-3.3,2.76-3.86,3.35l-1.39,1.78L436.95,217.54z M406.19,209.73l10.36-0.08l0.03,3.24
			l-10.37,0.09L406.19,209.73z M388.84,208.02c0.04,4.35,0.59,7.22,1.63,8.65c1.08,1.42,2.38,2.12,3.91,2.1
			c1.53-0.02,2.82-0.75,3.87-2.17c1.01-1.44,1.52-4.35,1.49-8.66c-0.04-4.36-0.6-7.22-1.64-8.66c-1.04-1.43-2.38-2.12-3.94-2.11
			c-1.52,0.01-2.77,0.66-3.68,1.92C389.35,200.72,388.8,203.67,388.84,208.02 M385.41,208.05c-0.02-3.14,0.3-5.64,0.93-7.57
			c0.67-1.92,1.61-3.4,2.94-4.41c1.29-1.04,2.92-1.57,4.9-1.59c1.44-0.02,2.74,0.28,3.85,0.82c1.12,0.57,2.04,1.38,2.77,2.45
			c0.73,1.06,1.28,2.38,1.71,3.89c0.43,1.54,0.64,3.65,0.66,6.27c0.03,3.09-0.3,5.6-0.93,7.49c-0.63,1.92-1.61,3.4-2.9,4.44
			c-1.29,1.05-2.95,1.58-4.94,1.6c-2.63,0.02-4.69-0.89-6.19-2.67C386.4,216.56,385.45,212.99,385.41,208.05 M381.88,217.99
			l0.02,3.1l-18.06,0.14c-0.05-0.77,0.09-1.54,0.36-2.25c0.48-1.18,1.2-2.37,2.22-3.52c1.01-1.19,2.45-2.53,4.35-4.02
			c2.91-2.38,4.92-4.26,5.98-5.64c1.01-1.38,1.54-2.7,1.53-3.92c-0.02-1.29-0.48-2.36-1.44-3.23c-0.96-0.87-2.22-1.31-3.75-1.3
			c-1.64,0.01-2.93,0.5-3.87,1.44c-0.98,0.93-1.46,2.22-1.46,3.87l-3.43-0.29c0.2-2.48,1.1-4.4,2.62-5.7c1.51-1.3,3.6-1.98,6.19-2
			c2.59-0.02,4.69,0.66,6.23,2.05c1.54,1.39,2.31,3.15,2.34,5.22c0.01,1.07-0.21,2.1-0.66,3.1c-0.41,1.04-1.16,2.12-2.18,3.26
			c-1.01,1.15-2.72,2.71-5.1,4.69c-2,1.63-3.3,2.75-3.86,3.34l-1.39,1.79L381.88,217.99z M360.68,218.16l0.02,3.1l-18.06,0.14
			c-0.05-0.77,0.1-1.54,0.36-2.25c0.48-1.18,1.2-2.37,2.22-3.52c1.02-1.19,2.45-2.53,4.35-4.02c2.91-2.38,4.92-4.27,5.97-5.64
			c1.02-1.38,1.54-2.7,1.54-3.92c-0.02-1.29-0.48-2.36-1.44-3.23c-0.96-0.87-2.22-1.31-3.75-1.3c-1.64,0.02-2.93,0.5-3.87,1.44
			c-0.98,0.93-1.47,2.22-1.45,3.87l-3.44-0.29c0.2-2.48,1.11-4.4,2.62-5.7c1.51-1.3,3.6-1.98,6.19-2c2.59-0.02,4.69,0.66,6.23,2.05
			c1.54,1.39,2.31,3.15,2.33,5.22c0.02,1.07-0.21,2.09-0.65,3.1c-0.41,1.04-1.17,2.12-2.19,3.26c-1.02,1.15-2.72,2.71-5.1,4.68
			c-2.01,1.64-3.3,2.76-3.86,3.35l-1.39,1.79L360.68,218.16z"/>
		<path class="st1" d="M655.83,215.35l-0.03,0.81l-0.08,0.6l-0.16,0.41l-0.41,0.41l-1.32,0.69c-0.69,0.3-1.5,0.58-2.44,0.84
			c-0.95,0.26-1.93,0.46-2.97,0.61c-1.02,0.14-2.05,0.22-3.08,0.23c-2,0.02-3.74-0.17-5.24-0.56c-1.49-0.38-2.74-0.93-3.75-1.65
			c-1-0.72-1.75-1.57-2.24-2.55c-0.49-0.99-0.74-2.08-0.76-3.27c-0.01-0.82,0.12-1.6,0.37-2.34c0.25-0.75,0.63-1.42,1.11-2.03
			l1.79-1.6c0.69-0.47,1.48-0.84,2.35-1.12c-0.89-0.36-1.63-0.74-2.21-1.14l-1.43-1.32l-0.79-1.57c-0.18-0.56-0.26-1.18-0.26-1.87
			c-0.01-1.11,0.23-2.14,0.71-3.1c0.48-0.96,1.22-1.79,2.17-2.5c0.97-0.71,2.14-1.27,3.54-1.66c1.39-0.4,2.98-0.61,4.78-0.63
			c1.01-0.01,2,0.06,3,0.21c0.99,0.14,1.91,0.34,2.77,0.57c0.86,0.24,1.6,0.49,2.21,0.76l1.22,0.65l0.38,0.44l0.17,0.44l0.09,0.61
			l0.02,0.89l-0.04,0.87l-0.12,0.58l-0.23,0.33l-0.34,0.1l-1.05-0.4c-0.49-0.26-1.13-0.57-1.89-0.89c-0.77-0.32-1.68-0.62-2.73-0.88
			c-1.05-0.26-2.23-0.39-3.54-0.38c-1.08,0.02-1.99,0.13-2.75,0.35c-0.76,0.22-1.4,0.52-1.9,0.9l-1.09,1.31l-0.34,1.56l0.47,1.66
			l1.32,1.3c0.56,0.35,1.23,0.62,2.02,0.8c0.77,0.18,1.64,0.26,2.62,0.26l5.07-0.05l0.44,0.11l0.32,0.32l0.19,0.59l0.09,0.83
			l-0.08,0.84l-0.19,0.56l-0.31,0.31l-0.47,0.11l-5.56,0.05c-1.17,0.01-2.17,0.14-3.02,0.37c-0.84,0.25-1.55,0.57-2.1,0.99
			l-1.22,1.48c-0.27,0.56-0.4,1.2-0.39,1.9l0.45,1.84l1.37,1.45c0.62,0.4,1.4,0.72,2.34,0.93c0.94,0.21,2.06,0.32,3.38,0.3
			c1.22-0.01,2.37-0.14,3.43-0.39c1.04-0.25,1.96-0.53,2.71-0.84c0.75-0.32,1.36-0.6,1.85-0.85l1-0.39l0.36,0.1l0.25,0.32l0.12,0.57
			L655.83,215.35"/>
		<path class="st2" d="M192.86,595.22l0.38-0.01h0.38h0.37h0.39l0.37,0.02l0.37,0.02l0.37,0.01l0.38,0.02l0.1,11.69l-0.38-0.04
			l-0.37-0.02l-0.37-0.02l-0.37-0.02l-0.37-0.01l-0.38-0.01h-0.38l-0.38,0.01l-1.68,0.05l-1.69,0.14l-1.65,0.2l-1.6,0.29l-1.61,0.37
			l-1.57,0.41l-1.53,0.51l-1.49,0.56l-1.46,0.62l-1.43,0.69l-1.38,0.77l-1.33,0.81l-1.29,0.87l-1.24,0.93l-1.19,0.98l-1.15,1.03
			l-1.08,1.08l-1.04,1.12l-0.97,1.17l-0.91,1.22l-0.85,1.25l-0.79,1.3l-0.72,1.34l-0.65,1.36l-0.58,1.39l-0.51,1.42l-0.42,1.47
			l-0.36,1.5l-0.29,1.52l-0.2,1.53l-0.11,1.57l-0.03,1.57l0.05,1.57l0.15,1.57l0.22,1.53l0.32,1.51l0.38,1.5l0.45,1.45l0.54,1.42
			l0.61,1.39l0.67,1.36l0.74,1.31l0.82,1.29l0.86,1.24l0.94,1.21l0.99,1.15l1.06,1.11l1.1,1.06l1.17,1.01l1.21,0.96l1.26,0.9
			l1.31,0.85l1.34,0.79l1.39,0.74l1.44,0.66l1.46,0.61l1.5,0.53l1.54,0.47l1.57,0.41l1.62,0.33l1.62,0.26l1.64,0.17l1.7,0.11
			l1.69,0.02h0.37l0.38-0.01l0.37-0.01l0.38-0.02l0.37-0.01l0.37-0.03l0.36-0.03l0.39-0.03l0.1,11.68l-0.38,0.02l-0.37,0.02
			l-0.37,0.02l-0.37,0.03h-0.39l-0.37,0.02h-0.37h-0.39l-2.34-0.03l-2.31-0.14l-2.28-0.26l-2.25-0.35l-2.21-0.47l-2.15-0.54
			l-2.13-0.66l-2.07-0.74l-2.03-0.83l-1.97-0.94l-1.92-0.99l-1.87-1.08l-1.79-1.18l-1.72-1.26l-1.68-1.31l-1.6-1.4l-1.51-1.48
			l-1.46-1.51l-1.36-1.6l-1.29-1.65l-1.2-1.71l-1.12-1.77l-1.03-1.81l-0.93-1.88l-0.83-1.92l-0.73-1.95l-0.64-2.02l-0.54-2.05
			l-0.41-2.07l-0.31-2.12l-0.2-2.15l-0.08-2.18l0.04-2.17l0.16-2.16l0.27-2.12l0.37-2.09l0.5-2.06l0.6-2l0.71-1.97l0.79-1.94
			l0.9-1.88l1-1.85l1.09-1.78l1.16-1.75l1.27-1.67l1.34-1.62l1.43-1.54l1.48-1.48l1.58-1.43l1.66-1.36l1.7-1.27l1.77-1.2l1.85-1.12
			l1.91-1.03l1.95-0.96l2.01-0.87l2.06-0.78l2.13-0.69l2.14-0.59l2.2-0.5l2.24-0.38l2.27-0.31l2.31-0.17L192.86,595.22z
			 M268.18,594.6h0.37l0.38-0.01l0.38,0.01h0.37l0.38,0.02l0.37,0.01l0.39,0.02l0.36,0.01l0.1,11.68l-0.36-0.03l-0.38-0.02
			l-0.38-0.03l-0.37-0.02l-0.38-0.01l-0.39-0.01h-0.37h-0.37l-1.51,0.04l-1.46,0.11l-1.46,0.17l-1.45,0.23l-1.43,0.26l-1.4,0.35
			l-1.37,0.38l-1.35,0.45l-1.32,0.48l-1.29,0.57l-1.26,0.6l-1.24,0.64l-1.18,0.69l-1.18,0.73l-1.11,0.79l-1.1,0.83l-1.05,0.87
			l-1.01,0.9l-0.96,0.94l-0.93,0.98l-0.86,1.02l-0.85,1.05l-0.8,1.09l-0.74,1.11l-0.68,1.15l-0.64,1.18l-0.58,1.21l-0.53,1.22
			l-0.46,1.27l-0.43,1.27l-0.34,1.3l-0.3,1.33l26.04-0.21l0.11,11.64l-26.05,0.21l0.33,1.32l0.37,1.29l0.45,1.27l0.48,1.24
			l0.56,1.23l0.59,1.21l0.67,1.16l0.69,1.14l0.76,1.11l0.81,1.07l0.87,1.02l0.89,1.01l0.93,0.97l0.98,0.92l1.04,0.9l1.05,0.84
			l1.12,0.82l1.13,0.76l1.18,0.71l1.19,0.69l1.25,0.61l1.27,0.59l1.31,0.54l1.33,0.46l1.36,0.44l1.37,0.36l1.41,0.32l1.43,0.26
			l1.46,0.2l1.47,0.14l1.46,0.08l1.51,0.02l0.37-0.01h0.38l0.38-0.02l0.37-0.02l0.37-0.01l0.38-0.03l0.37-0.03l0.36-0.04l0.1,11.68
			l-0.35,0.03l-0.4,0.01l-0.37,0.02l-0.37,0.03l-0.37,0.01l-0.39,0.02l-0.37,0.01h-0.37l-2.34-0.04l-2.32-0.14l-2.28-0.26
			l-2.24-0.35l-2.2-0.47l-2.17-0.53l-2.12-0.66l-2.08-0.75l-2.03-0.83l-1.99-0.93l-1.9-1l-1.87-1.08l-1.8-1.18l-1.73-1.25
			l-1.67-1.32l-1.61-1.4l-1.5-1.47l-1.46-1.51l-1.37-1.6l-1.29-1.64l-1.2-1.71l-1.12-1.78l-1.02-1.8l-0.94-1.89l-0.83-1.92
			l-0.74-1.95l-0.62-2.02l-0.51-2.05l-0.44-2.07l-0.29-2.11l-0.21-2.15l-0.08-2.19l0.04-2.16l0.17-2.16l0.25-2.12l0.41-2.09
			l0.48-2.06l0.59-2.01l0.71-1.97l0.79-1.94l0.9-1.88l0.99-1.85l1.1-1.78l1.16-1.75l1.27-1.66l1.34-1.62l1.43-1.55l1.47-1.48
			l1.59-1.42l1.64-1.36l1.71-1.27l1.78-1.2l1.85-1.12l1.88-1.02l1.97-0.96l2.02-0.88l2.06-0.77l2.11-0.69l2.16-0.6l2.2-0.49
			l2.23-0.39l2.28-0.3l2.32-0.17L268.18,594.6z"/>
		<path class="st3" d="M449,628.65c-3.09-5.79-8.28-10.55-15.06-13.09c-12.1-4.53-25.44-0.55-32.97,8.93
			c6.65-12.3,21.93-18.06,35.61-12.94c6.35,2.39,11.31,6.71,14.45,12.02L449,628.65z"/>
		<path class="st4" d="M449,628.65c-3.09-5.79-8.28-10.55-15.06-13.09c-12.1-4.53-25.44-0.55-32.97,8.93
			c6.65-12.3,21.93-18.06,35.61-12.94c6.35,2.39,11.31,6.71,14.45,12.02L449,628.65z"/>
	</g>
	<path class="st1" d="M390.23,612.42l-0.08-8.6l5.57,8.56l2.76-0.02l-0.11-13.19l-2.56,0.02l0.08,8.81l-5.66-8.76l-2.68,0.02
		l0.11,13.19L390.23,612.42z M385.01,612.46l-0.12-13.19l-2.75,0.02l0.11,13.19L385.01,612.46z M368.99,612.59l-0.09-10.38
		l2.79,10.36l2.65-0.02l2.62-10.4l0.09,10.38l2.56-0.02l-0.12-13.19l-4.13,0.03l-2.37,9.02l-2.55-8.98l-4.12,0.03l0.12,13.19
		L368.99,612.59z"/>
	<path class="st1" d="M549.67,611.12l2.96-4.53l3.03,4.48l3.28-0.03l-4.66-6.66l4.13-6.36l-3.15,0.03l-2.61,4.21l-2.74-4.16
		l-3.18,0.03l4.23,6.19l-4.54,6.83L549.67,611.12z M537.61,606.07l1.78-4.85l1.9,4.82L537.61,606.07z M540.83,598.17l-2.88,0.02
		l-5.13,13.07l2.89-0.02l1.09-2.97l5.38-0.04l1.2,2.95l2.96-0.02L540.83,598.17z M521.01,611.36l-0.09-10.25l2.75,10.23l2.62-0.02
		l2.58-10.27l0.09,10.25l2.53-0.02l-0.11-13.02l-4.08,0.03l-2.34,8.9l-2.52-8.86l-4.07,0.03l0.11,13.02L521.01,611.36z"/>
	<g>
		<path class="st3" d="M604.29,627.38c-3.09-5.79-8.28-10.55-15.06-13.09c-12.1-4.54-25.45-0.56-32.97,8.93
			c6.66-12.29,21.93-18.05,35.62-12.94c6.35,2.4,11.31,6.72,14.45,12.02L604.29,627.38z"/>
		<path class="st4" d="M604.29,627.38c-3.09-5.79-8.28-10.55-15.06-13.09c-12.1-4.54-25.45-0.56-32.97,8.93
			c6.66-12.29,21.93-18.05,35.62-12.94c6.35,2.4,11.31,6.72,14.45,12.02L604.29,627.38z"/>
		<path class="st1" d="M484.87,696.53l-0.05,0.18l-0.19,0.14l-0.47,0.08l-0.82,0.02l-0.71-0.02l-0.41-0.07l-0.21-0.14l-0.11-0.2
			l-1.24-2.92l-0.44-0.87l-0.47-0.63l-0.59-0.39l-0.78-0.12l-0.86,0.01l0.05,4.99l-0.06,0.19l-0.23,0.13l-0.42,0.08l-0.67,0.04
			l-0.66-0.03l-0.43-0.07l-0.22-0.14l-0.07-0.18l-0.1-11.9l0.23-0.64l0.58-0.2l3.51-0.03l0.88,0.02l0.63,0.05l1.47,0.37l1.11,0.71
			l0.71,1.03l0.25,1.38l-0.16,1.21l-0.5,0.97l-0.82,0.75l-1.11,0.52l0.57,0.33l0.51,0.49l0.45,0.65l0.41,0.84l1.17,2.56l0.21,0.57
			L484.87,696.53 M481.25,687.67l-0.32-1.09l-0.99-0.62l-0.48-0.08l-0.74-0.02l-1.23,0.01l0.03,3.71l1.4-0.02l1.02-0.14l0.73-0.38
			l0.43-0.6L481.25,687.67"/>
		<path class="st1" d="M495.01,691.67l-0.21,0.69l-0.59,0.23l-5.68,0.05l0.15,1.05l0.45,0.79l0.8,0.5l1.17,0.16l1.22-0.1l0.9-0.23
			l0.62-0.22l0.41-0.1l0.16,0.03l0.11,0.13l0.05,0.26l0.02,0.43l-0.01,0.37l-0.02,0.28l-0.06,0.18l-0.11,0.14l-0.37,0.2l-0.77,0.24
			l-1.08,0.21l-1.29,0.1c-0.84,0.01-1.57-0.09-2.19-0.29l-1.57-0.9l-0.95-1.55c-0.21-0.63-0.32-1.36-0.33-2.21
			c-0.01-0.81,0.09-1.53,0.3-2.18l0.93-1.64l1.5-1.04c0.58-0.24,1.25-0.37,1.99-0.37c0.79-0.01,1.46,0.1,2.01,0.32l1.37,0.91
			l0.8,1.4l0.26,1.76L495.01,691.67z M492.45,690.96c0.01-0.72-0.15-1.27-0.47-1.69l-1.47-0.59l-0.87,0.19l-0.61,0.5l-0.37,0.73
			l-0.14,0.9L492.45,690.96z"/>
		<polyline class="st1" points="503.77,693.82 503.48,695.19 502.64,696.17 501.36,696.78 499.75,696.99 498.75,696.92 
			497.89,696.73 497.27,696.5 496.9,696.28 496.71,695.94 496.65,695.27 496.66,694.8 496.73,694.52 496.83,694.37 496.99,694.33 
			497.33,694.46 497.89,694.73 498.67,695.01 499.69,695.13 500.32,695.06 500.8,694.85 501.1,694.52 501.2,694.05 501,693.53 
			500.49,693.15 499.76,692.86 498.94,692.55 498.11,692.16 497.37,691.62 496.86,690.85 496.65,689.75 496.91,688.56 
			497.65,687.63 498.85,687.03 500.43,686.79 501.28,686.85 502.03,687 502.59,687.19 502.93,687.37 503.07,687.52 503.14,687.71 
			503.18,687.97 503.19,688.35 503.19,688.8 503.13,689.08 503.03,689.21 502.89,689.25 502.59,689.14 502.09,688.92 501.41,688.69 
			500.51,688.6 499.89,688.67 499.46,688.88 499.22,689.19 499.13,689.57 499.34,690.1 499.86,690.47 500.61,690.76 501.45,691.07 
			502.29,691.45 503.03,691.99 503.55,692.75 503.77,693.82 		"/>
		<path class="st1" d="M514.34,691.51l-0.2,0.69l-0.58,0.23l-5.69,0.05l0.15,1.04l0.46,0.81l0.79,0.49l1.17,0.17l1.22-0.11l0.9-0.21
			l0.63-0.23l0.41-0.1l0.16,0.04l0.11,0.12l0.06,0.26l0.02,0.42l-0.01,0.38l-0.02,0.26l-0.06,0.19l-0.11,0.15l-0.37,0.2l-0.76,0.25
			l-1.08,0.2l-1.29,0.1c-0.83,0.01-1.56-0.09-2.19-0.29l-1.57-0.91l-0.95-1.55c-0.21-0.63-0.32-1.36-0.33-2.2
			c-0.01-0.81,0.1-1.53,0.3-2.18l0.93-1.64l1.5-1.04c0.58-0.24,1.25-0.37,1.99-0.37c0.78-0.01,1.45,0.1,2,0.32l1.37,0.91l0.79,1.4
			l0.27,1.76V691.51z M511.79,690.81c0.02-0.72-0.14-1.27-0.46-1.69l-1.48-0.6l-0.87,0.19l-0.62,0.5l-0.37,0.73l-0.14,0.9
			L511.79,690.81z"/>
		<polyline class="st1" points="521.93,695.34 521.88,696.02 521.73,696.36 521.45,696.53 521.02,696.66 520.49,696.75 
			519.91,696.79 518.55,696.61 517.6,696.03 517.03,695.02 516.84,693.59 516.8,688.96 515.67,688.97 515.38,688.74 515.27,687.95 
			515.27,687.44 515.36,687.13 515.48,686.96 515.67,686.91 516.78,686.89 516.76,684.88 516.82,684.7 517.03,684.56 517.43,684.47 
			518.06,684.45 518.71,684.47 519.12,684.54 519.33,684.68 519.39,684.86 519.4,686.87 521.44,686.86 521.62,686.91 521.76,687.07 
			521.84,687.39 521.87,687.89 521.76,688.69 521.47,688.92 519.43,688.94 519.46,693.18 519.71,694.28 520.57,694.65 
			520.95,694.61 521.25,694.53 521.47,694.44 521.63,694.4 521.75,694.44 521.83,694.58 521.9,694.87 521.93,695.34 		"/>
		<line class="st5" x1="668.88" y1="799.09" x2="339.87" y2="801.78"/>
		<line class="st5" x1="336.41" y1="798.49" x2="672.28" y2="795.76"/>
		<line class="st5" x1="643.63" y1="788.52" x2="364.93" y2="790.8"/>
		<line class="st5" x1="364.91" y1="787.76" x2="643.61" y2="785.48"/>
		<line class="st5" x1="365.76" y1="786.64" x2="642.74" y2="784.39"/>
		<line class="st5" x1="354.55" y1="781.2" x2="357.98" y2="781.18"/>
		<line class="st5" x1="650.41" y1="778.79" x2="653.84" y2="778.77"/>
		<line class="st5" x1="653.43" y1="732.06" x2="650.01" y2="732.09"/>
		<line class="st5" x1="357.58" y1="734.47" x2="354.15" y2="734.5"/>
		<line class="st5" x1="642.24" y1="726.62" x2="365.25" y2="728.88"/>
		<line class="st5" x1="643.08" y1="725.79" x2="364.38" y2="728.06"/>
		<line class="st5" x1="364.36" y1="724.74" x2="643.06" y2="722.47"/>
		<line class="st5" x1="357.58" y1="734.47" x2="358.44" y2="735.28"/>
		<line class="st5" x1="365.25" y1="728.88" x2="364.38" y2="728.06"/>
		<line class="st5" x1="669.9" y1="710.23" x2="334.62" y2="712.96"/>
		<line class="st5" x1="332.29" y1="718.92" x2="332.97" y2="797.14"/>
		<line class="st5" x1="336.41" y1="798.49" x2="335.71" y2="717.51"/>
		<line class="st5" x1="339.11" y1="714.16" x2="339.87" y2="801.78"/>
		<line class="st5" x1="354.55" y1="781.2" x2="354.15" y2="734.5"/>
		<line class="st5" x1="357.58" y1="734.47" x2="357.98" y2="781.18"/>
		<line class="st5" x1="358.45" y1="735.29" x2="358.84" y2="780.34"/>
		<line class="st5" x1="364.36" y1="724.74" x2="364.39" y2="728.05"/>
		<line class="st5" x1="364.91" y1="787.76" x2="364.93" y2="790.79"/>
		<line class="st5" x1="642.74" y1="784.39" x2="643.6" y2="785.49"/>
		<line class="st5" x1="650.41" y1="778.79" x2="649.54" y2="777.98"/>
		<line class="st5" x1="339.59" y1="802.06" x2="339.31" y2="802.34"/>
		<line class="st5" x1="669.19" y1="799.27" x2="668.98" y2="798.9"/>
		<line class="st5" x1="643.63" y1="788.52" x2="643.61" y2="785.49"/>
		<line class="st5" x1="643.08" y1="725.79" x2="643.05" y2="722.47"/>
		<line class="st5" x1="649.54" y1="777.97" x2="649.15" y2="732.92"/>
		<line class="st5" x1="650.41" y1="778.79" x2="650" y2="732.09"/>
		<line class="st5" x1="358.84" y1="780.34" x2="357.99" y2="781.18"/>
		<line class="st5" x1="364.91" y1="787.76" x2="365.76" y2="786.64"/>
		<line class="st5" x1="653.43" y1="732.06" x2="653.84" y2="778.77"/>
		<line class="st5" x1="668.88" y1="799.09" x2="668.12" y2="711.48"/>
		<line class="st5" x1="671.58" y1="714.78" x2="672.28" y2="795.75"/>
		<line class="st5" x1="643.08" y1="725.79" x2="642.24" y2="726.62"/>
		<line class="st5" x1="649.15" y1="732.92" x2="650" y2="732.09"/>
		<path class="st5" d="M495.3,759.33l-0.33-4.69l-1.75-4.69c-9.99-22.71-43.78-19.18-48.56,5.09l-0.53,4.71l0.62,4.96
			c5.31,24.05,39.43,26.7,48.63,4.03l1.68-4.44L495.3,759.33z"/>
		<path class="st5" d="M426.7,759.89l-0.33-4.69l-1.46-4.69c-10.72-22.56-43.73-19.38-48.84,5.09l-0.53,4.71l0.62,4.96
			c5.6,24.21,38.98,26.59,48.92,4.02l1.39-4.44L426.7,759.89z"/>
		<polyline class="st5" points="332.98,797.97 336.14,800.43 339.59,802.06 		"/>
		<polyline class="st5" points="354.56,781.21 355.16,784.24 356.61,787 358.91,789.19 361.79,790.54 364.94,790.79 		"/>
		<polyline class="st5" points="358.84,780.34 359.43,782.83 360.88,785.03 363.18,786.39 365.76,786.64 		"/>
		<polyline class="st5" points="357.99,781.18 358.58,783.67 360.03,785.86 362.33,787.22 364.9,787.76 		"/>
		<polyline class="st5" points="336.41,798.49 337,800.15 338.16,801.24 339.87,801.78 		"/>
		<polyline class="st5" points="364.36,724.74 361.22,725.32 358.37,726.73 356.1,728.96 354.69,731.46 354.15,734.5 		"/>
		<polyline class="st5" points="338.8,712.24 336.23,712.81 334.25,714.21 332.56,716.43 332.29,718.92 		"/>
		<polyline class="st5" points="365.25,728.88 362.68,729.45 360.4,730.86 358.99,732.8 358.45,735.3 		"/>
		<polyline class="st5" points="364.39,728.06 361.81,728.63 359.54,730.04 358.13,731.98 357.58,734.47 		"/>
		<polyline class="st5" points="339.11,714.17 337.4,714.74 336.26,715.85 335.7,717.51 		"/>
		<path class="st5" d="M563.9,758.77l-0.33-4.69l-1.75-4.69c-10.37-22.81-43.23-19.14-48.84,5.1l-0.24,4.7l0.33,4.97
			c6.49,24.59,39.82,26.26,48.92,4.02l1.68-4.44L563.9,758.77z"/>
		<path class="st5" d="M632.5,758.21l-0.33-4.69l-1.76-4.69c-10.36-22.82-43.24-19.13-48.84,5.1l-0.24,4.7l0.33,4.97
			c6.5,24.59,39.81,26.26,48.92,4.02l1.68-4.44L632.5,758.21z"/>
		<polyline class="st5" points="643.63,788.52 646.77,788.23 649.62,786.81 651.89,784.59 653.29,781.81 653.84,778.77 		"/>
		<polyline class="st5" points="642.74,784.39 645.31,784.09 647.59,782.69 648.99,780.46 649.54,777.97 		"/>
		<polyline class="st5" points="643.61,785.48 646.18,784.91 648.45,783.51 649.86,781.29 650.41,778.79 		"/>
		<polyline class="st5" points="668.88,799.09 670.59,798.53 672.01,797.41 672.28,795.76 		"/>
		<polyline class="st5" points="653.43,732.06 652.83,729.02 651.38,726.55 649.07,724.36 646.2,723 643.05,722.47 		"/>
		<polyline class="st5" points="673.88,720.29 674.08,716.74 673.35,713.49 671.8,711.34 669.89,710.33 		"/>
		<polyline class="st5" points="649.15,732.93 648.56,730.44 647.11,728.52 644.81,727.15 642.24,726.62 		"/>
		<polyline class="st5" points="650,732.09 649.41,729.6 647.96,727.68 645.66,726.32 643.08,725.79 		"/>
		<polyline class="st5" points="671.58,714.78 671.27,713.11 669.83,712.03 668.12,711.48 		"/>
		<line class="st5" x1="339.59" y1="802.06" x2="339.59" y2="801.78"/>
		<line class="st6" x1="408.46" y1="830.83" x2="397.42" y2="846.59"/>
		<path class="st1" d="M413.13,824.15c-3.41,2.35-8.2,4.92-12.07,5.91l6.78,1.65l4.11,5.46
			C411.46,833.34,412.13,828.08,413.13,824.15"/>
		<path class="st1" d="M389.26,840.76c4.29-4.52,9.82-1.55,14.73,0.15c4.59,1.59,9.23-0.19,13.26-2.3c1.96-1.02,0.19-3.9-1.78-2.88
			c-3.01,1.58-5.94,2.79-9.42,2.25c-2.73-0.44-5.33-1.96-8.03-2.63c-4.25-1.03-8.28-0.07-11.24,3.07
			C385.28,840,387.76,842.36,389.26,840.76"/>
		<polygon class="st1" points="609.61,844.86 609.45,826.14 613.13,826.11 613.26,841.64 622.37,841.57 622.4,844.76 		"/>
	</g>
	<path class="st1" d="M666.16,420.51c0.99-0.01,1.66,0.02,2,0.1l1.13,0.54l0.7,1.13c0.17,0.48,0.26,1.18,0.27,2.08
		c0.01,0.9-0.07,1.62-0.23,2.14l-0.63,1.13l-0.98,0.49l-1.47,0.12l-1.82,0.01l-0.07-7.74L666.16,420.51z M662.71,430.25l4.59-0.04
		c0.9-0.01,1.62-0.1,2.16-0.26c0.72-0.23,1.29-0.54,1.71-0.95c0.56-0.53,0.98-1.22,1.28-2.08c0.24-0.7,0.36-1.53,0.35-2.49
		c-0.01-1.09-0.15-2.01-0.42-2.76c-0.27-0.74-0.66-1.37-1.17-1.88c-0.51-0.51-1.12-0.87-1.83-1.06c-0.53-0.14-1.3-0.21-2.3-0.2
		l-4.46,0.04L662.71,430.25z M660.65,430.27l-0.02-1.97l-6.75,0.06l-0.03-3.18l6.07-0.05l-0.02-1.97l-6.07,0.05l-0.02-2.59
		l6.52-0.05l-0.02-1.98l-8.96,0.07l0.1,11.69L660.65,430.27z M649.71,430.35l-0.02-1.97l-6.07,0.05l-0.08-9.62l-2.44,0.02l0.1,11.59
		L649.71,430.35z"/>
	<path class="st1" d="M762.91,430.3l2.62-9.88l2.8,9.84l2.92-0.02l3.2-13.22l-2.77,0.02l-2.01,9.23l-2.47-9.19l-3.28,0.03
		l-2.41,9.08l-2.14-9.04l-2.82,0.02l3.37,13.16L762.91,430.3z M753.2,430.6l3.3-13.67l-1.96,0.02l-3.26,13.67L753.2,430.6z
		 M742.39,425.25l1.8-4.91l1.92,4.88L742.39,425.25z M745.65,417.25l-2.91,0.02l-5.2,13.23l2.92-0.02l1.1-3.01l5.45-0.04l1.22,2.99
		l3-0.02L745.65,417.25z M734.05,430.54l4.77-13.23l-2.92,0.02l-3.26,9.79l-3.54-9.73l-2.99,0.02l4.99,13.15L734.05,430.54z
		 M721.63,419.78l0.62,1.16c0.17,0.58,0.26,1.64,0.27,3.19c0.01,1.55-0.07,2.65-0.24,3.3l-0.57,1.05l-0.84,0.3l-0.84-0.28
		l-0.62-1.15c-0.17-0.58-0.26-1.64-0.27-3.19c-0.01-1.55,0.07-2.65,0.24-3.3l0.57-1.05l0.84-0.3L721.63,419.78z M717.69,418.77
		c-0.88,1.1-1.31,2.89-1.29,5.37c0.02,2.53,0.44,4.29,1.27,5.27c0.82,0.98,1.9,1.46,3.22,1.45c1.32-0.01,2.35-0.47,3.08-1.37
		c0.88-1.1,1.31-2.9,1.29-5.39c-0.02-2.5-0.48-4.29-1.38-5.36c-0.75-0.91-1.79-1.35-3.11-1.34
		C719.44,417.41,718.42,417.87,717.69,418.77z M711.03,419.87l0.62,1.16c0.17,0.58,0.26,1.64,0.27,3.19s-0.07,2.65-0.24,3.3
		l-0.57,1.05l-0.84,0.3l-0.84-0.28l-0.62-1.15c-0.17-0.58-0.26-1.64-0.27-3.19c-0.01-1.55,0.07-2.65,0.24-3.3l0.57-1.05l0.84-0.3
		L711.03,419.87z M707.09,418.86c-0.88,1.1-1.31,2.89-1.29,5.37c0.02,2.53,0.44,4.29,1.26,5.27c0.82,0.98,1.9,1.46,3.22,1.45
		c1.32-0.01,2.35-0.47,3.08-1.37c0.88-1.1,1.31-2.9,1.29-5.39c-0.02-2.5-0.48-4.29-1.38-5.36c-0.75-0.91-1.79-1.35-3.11-1.34
		C708.85,417.5,707.82,417.95,707.09,418.86z M698.89,428.47l0.53-0.71c0.22-0.24,0.74-0.73,1.56-1.47c0.82-0.74,1.38-1.3,1.7-1.7
		l1.03-1.7l0.32-1.7c-0.01-1.04-0.4-1.91-1.18-2.61c-0.78-0.7-1.84-1.04-3.18-1.03c-1.23,0.01-2.25,0.32-3.06,0.93
		c-0.81,0.61-1.29,1.62-1.43,3.01l2.61,0.23c0.04-0.74,0.22-1.27,0.54-1.59l1.3-0.49l1.3,0.44l0.48,1.3l-0.53,1.55
		c-0.26,0.38-0.98,1.11-2.15,2.18c-1.45,1.33-2.42,2.39-2.91,3.19c-0.49,0.8-0.78,1.64-0.87,2.53l9.17-0.07l-0.02-2.35
		L698.89,428.47z M694.29,427.34l-0.02-2.53l-5.14,0.04l0.02,2.53L694.29,427.34z M679.78,430.22c0.8,0.65,1.83,0.97,3.09,0.96
		c1.58-0.01,2.8-0.6,3.68-1.78c0.64-0.86,0.96-1.83,0.95-2.91c-0.01-1.3-0.42-2.36-1.24-3.17c-0.81-0.81-1.8-1.21-2.96-1.2
		l-1.78,0.44l0.39-2.24l4.93-0.04l-0.02-2.37l-6.91,0.06l-1.28,6.88l2.12,0.28c0.59-0.65,1.26-0.97,2.01-0.98l1.47,0.6
		c0.38,0.4,0.57,1.01,0.58,1.82c0.01,0.86-0.18,1.51-0.55,1.94l-1.38,0.65l-1.27-0.49l-0.67-1.35l-2.6,0.28
		C678.5,428.7,678.98,429.57,679.78,430.22z"/>
	<path class="st1" d="M763.53,504l2.62-9.88l2.8,9.84l2.92-0.02l3.2-13.22l-2.77,0.02l-2.01,9.23l-2.47-9.19l-3.28,0.03l-2.41,9.08
		l-2.14-9.04l-2.82,0.02l3.37,13.16L763.53,504z M753.83,504.31l3.3-13.67l-1.96,0.02l-3.26,13.67L753.83,504.31z M743.01,498.95
		l1.8-4.91l1.92,4.88L743.01,498.95z M746.28,490.95l-2.91,0.02l-5.2,13.23l2.92-0.02l1.1-3.01l5.45-0.04l1.22,2.99l3-0.02
		L746.28,490.95z M734.68,504.24l4.77-13.23l-2.92,0.02l-3.26,9.79l-3.54-9.73l-2.99,0.02l4.99,13.15L734.68,504.24z M722.25,493.48
		l0.62,1.16c0.17,0.58,0.26,1.64,0.27,3.19s-0.07,2.65-0.24,3.3l-0.57,1.05l-0.84,0.3l-0.84-0.28l-0.62-1.15
		c-0.17-0.58-0.26-1.64-0.27-3.19c-0.01-1.55,0.07-2.65,0.24-3.3l0.57-1.05l0.84-0.3L722.25,493.48z M718.31,492.48
		c-0.88,1.1-1.31,2.89-1.29,5.37c0.02,2.53,0.44,4.29,1.26,5.27c0.82,0.98,1.9,1.46,3.22,1.45c1.32-0.01,2.35-0.47,3.08-1.37
		c0.88-1.1,1.31-2.9,1.29-5.39c-0.02-2.5-0.48-4.29-1.38-5.36c-0.75-0.91-1.79-1.35-3.11-1.34
		C720.07,491.11,719.04,491.57,718.31,492.48z M711.66,493.57l0.62,1.16c0.17,0.58,0.26,1.64,0.27,3.19s-0.07,2.65-0.24,3.3
		l-0.57,1.05l-0.84,0.3l-0.84-0.28l-0.62-1.15c-0.17-0.58-0.26-1.64-0.27-3.19c-0.01-1.55,0.07-2.65,0.24-3.3l0.57-1.05l0.84-0.3
		L711.66,493.57z M707.71,492.56c-0.88,1.1-1.31,2.89-1.29,5.37c0.02,2.53,0.44,4.29,1.26,5.27c0.82,0.98,1.9,1.46,3.22,1.45
		c1.32-0.01,2.35-0.47,3.08-1.37c0.88-1.1,1.31-2.9,1.29-5.39c-0.02-2.5-0.48-4.29-1.38-5.36c-0.75-0.91-1.79-1.35-3.11-1.34
		C709.47,491.2,708.45,491.66,707.71,492.56z M694.91,501.04l-0.02-2.53l-5.14,0.04l0.02,2.53L694.91,501.04z M680.41,503.92
		c0.8,0.65,1.83,0.97,3.09,0.96c1.58-0.01,2.8-0.6,3.68-1.78c0.64-0.86,0.96-1.83,0.95-2.91c-0.01-1.3-0.42-2.36-1.24-3.17
		c-0.81-0.81-1.8-1.21-2.96-1.2l-1.78,0.44l0.39-2.24l4.93-0.04l-0.02-2.37l-6.91,0.06l-1.28,6.88l2.12,0.28
		c0.59-0.65,1.26-0.97,2.01-0.98l1.47,0.6c0.38,0.4,0.57,1.01,0.58,1.82c0.01,0.86-0.18,1.51-0.55,1.94l-1.38,0.65l-1.27-0.49
		l-0.67-1.35l-2.6,0.28C679.12,502.4,679.61,503.28,680.41,503.92z"/>
	<g>
		<line class="st7" x1="644.44" y1="476.52" x2="666.23" y2="476.34"/>
		<line class="st7" x1="644.86" y1="523.82" x2="666.35" y2="523.65"/>
		<line class="st7" x1="665.62" y1="476" x2="666.04" y2="524.22"/>
		<line class="st7" x1="665.25" y1="500.62" x2="678.7" y2="500.51"/>
		<line class="st8" x1="621.54" y1="415.51" x2="621.72" y2="437.12"/>
		<polyline class="st8" points="621.63,426.31 604.26,415.65 604.45,437.26 621.63,426.31 		"/>
		<line class="st8" x1="635.25" y1="426.2" x2="621.63" y2="426.32"/>
		<line class="st8" x1="604.36" y1="426.45" x2="587.07" y2="426.6"/>
		<line class="st8" x1="610.07" y1="412.98" x2="606.45" y2="417.31"/>
		<line class="st8" x1="616.81" y1="417.22" x2="613.66" y2="420.97"/>
		<polygon class="st8" points="614.02,416.18 619.29,413.96 618.63,419.59 		"/>
		<polygon class="st8" points="614.06,416.05 619.43,414.08 618.48,419.67 		"/>
		<polygon class="st8" points="607.81,411.22 613.19,409.24 612.24,414.83 		"/>
		<polygon class="st8" points="607.81,411.22 613.19,409.24 612.24,414.83 		"/>
		<path class="st8" d="M612.51,483.67c-6.15,0.05-11.17-4.31-11.22-9.73c-0.05-5.42,4.9-9.87,11.05-9.92
			c6.16-0.05,11.18,4.32,11.23,9.74C623.61,479.18,618.66,483.62,612.51,483.67z"/>
		
			<rect x="609.09" y="456.24" transform="matrix(1 -8.180467e-03 8.180467e-03 1 -3.7436 5.0244)" class="st8" width="6.44" height="7.78"/>
		<line class="st8" x1="629.34" y1="472.81" x2="622.57" y2="472.87"/>
		<line class="st8" x1="600" y1="473.95" x2="593.24" y2="474"/>
		<line class="st8" x1="626.68" y1="461.59" x2="621.99" y2="466.25"/>
		<line class="st8" x1="602.52" y1="480.9" x2="597.65" y2="485.38"/>
		<line class="st8" x1="621.87" y1="481.55" x2="627.14" y2="485.59"/>
		<line class="st8" x1="597.58" y1="463.25" x2="602.7" y2="467.45"/>
		<line class="st8" x1="612.46" y1="491.01" x2="612.64" y2="484.57"/>
		
			<rect x="593.71" y="515.67" transform="matrix(1 -8.284476e-03 8.284476e-03 1 -4.332 5.0308)" class="st8" width="22.73" height="19.49"/>
		<path class="st8" d="M628.14,532.88c-5.09,0.04-9.24-3.35-9.28-7.58c-0.04-4.23,4.06-7.69,9.15-7.73
			c5.08-0.05,9.24,3.35,9.28,7.58C637.32,529.38,633.22,532.84,628.14,532.88z"/>
		<line class="st8" x1="629.39" y1="517.56" x2="616.97" y2="517.66"/>
		<line class="st8" x1="629.53" y1="532.87" x2="617.11" y2="532.97"/>
		<line class="st8" x1="634.16" y1="519.61" x2="621.91" y2="530.91"/>
		<line class="st8" x1="622.46" y1="519.06" x2="633.7" y2="531.39"/>
		<line class="st8" x1="616.36" y1="515.58" x2="593.79" y2="535.25"/>
		<line class="st8" x1="592.88" y1="519.3" x2="589.18" y2="519.33"/>
		<line class="st8" x1="592.99" y1="531.72" x2="589.29" y2="531.75"/>
		<path class="st2" d="M769.76,630.64c-0.02-3.18-0.43-5.17-1.15-5.94c-1-1.05-2.06-1.59-4.16-1.57l-1.87,0.02l-0.01-1.43
			l18.64-0.15l0.01,1.42l-1.89,0.02c-2.28,0.02-3.87,0.7-4.81,2.02c-0.56,0.83-0.83,2.68-0.8,5.59l0.33,37.61l6.09,7.95l-9.69,0.08
			l-32.56-41.59l0.29,33.87c0.03,2.9,0.34,4.74,0.93,5.57c0.96,1.3,2.56,1.96,4.83,1.94l1.89-0.02l0.02,1.42l-18.65,0.16l-0.02-1.42
			l1.86-0.02c2.1-0.02,3.16-0.56,4.14-1.63c0.72-0.78,1.08-2.78,1.05-5.96l-0.34-39.03l-4.84-6.16l10.5-0.09l30.7,40.16
			L769.76,630.64z"/>
		<path class="st1" d="M754.3,598.75c28.66-0.23,52.25,22.18,52.49,49.91c0.12,13.86-5.63,26.5-14.97,35.69
			c-9.33,9.21-22.32,14.95-36.65,15.07c-28.69,0.23-52.27-22.19-52.51-49.92c-0.12-13.85,5.62-26.5,14.96-35.69
			C726.99,604.62,739.95,598.87,754.3,598.75 M754.36,606.53c-12.13,0.1-23.08,4.97-31,12.75c-7.9,7.77-12.75,18.45-12.65,30.16
			c0.21,23.46,20.15,42.41,44.4,42.21c12.12-0.1,23.07-4.96,30.99-12.76c7.9-7.76,12.75-18.43,12.65-30.16
			C798.54,625.28,778.6,606.34,754.36,606.53"/>
	</g>
	<path class="st9" d="M472.75,832.48l-0.64,1.13l-1.1,0.74l-1.68,0.28l-1.88,0.02l-0.06-6.77l1.79-0.01l1.27,0.07l1.18,0.4
		l0.95,0.99c0.26,0.45,0.39,1.03,0.4,1.72L472.75,832.48z M476.97,828.53l-1.04-1.7l-1.63-1.2l-1.88-0.64l-1.59-0.22l-1.4-0.04
		l-4.87,0.04l-1.03,0.37l-0.38,1.09l0.16,17.96l0.1,0.28l0.34,0.2l0.65,0.12l1.01,0.04l1.02-0.05l0.64-0.13l0.34-0.2l0.1-0.28
		l-0.06-6.37l1.72-0.01c1.36-0.01,2.54-0.17,3.55-0.49c1-0.32,1.85-0.77,2.53-1.37c0.69-0.6,1.21-1.33,1.56-2.2
		c0.35-0.87,0.53-1.86,0.52-2.98C477.34,829.91,477.21,829.18,476.97,828.53z"/>
	<g>
		<line class="st0" x1="763.91" y1="978.2" x2="860.55" y2="977.42"/>
	</g>
	<path class="st9" d="M544.18,839.98l-0.68,0.87l-1.03,0.53l-1.47,0.19l-3.03,0.02l-0.05-5.68l2.49-0.02
		c0.77-0.01,1.39,0.06,1.87,0.19l1.19,0.56l0.71,0.91l0.25,1.24L544.18,839.98z M543.1,831.29l-0.53,0.85l-0.9,0.58l-1.45,0.22
		l-2.35,0.02l-0.05-5.18l2.12-0.02l1.56,0.16l0.97,0.48l0.58,0.79l0.2,1.08L543.1,831.29z M548.43,836.79l-0.88-1.42l-1.3-0.98
		l-1.62-0.53l1.22-0.66l0.89-0.93l0.55-1.17l0.18-1.37c-0.01-0.86-0.17-1.61-0.5-2.25l-1.39-1.57c-0.6-0.41-1.35-0.72-2.23-0.92
		c-0.88-0.2-1.95-0.29-3.22-0.28l-5.19,0.04l-0.88,0.31l-0.35,0.98l0.15,17.4l0.37,0.98l0.89,0.29l5.49-0.04
		c0.83-0.01,1.58-0.06,2.26-0.17l1.9-0.47l1.63-0.8l1.27-1.15l0.82-1.53c0.2-0.58,0.29-1.22,0.29-1.93
		C548.76,837.95,548.65,837.34,548.43,836.79z"/>
	<g>
		<path class="st1" d="M295.52,100.6v9.6l-2.2,0.23c-6.07,0.65-8.13,3.04-8.13,9.42v19.91h-10.49v-19.48
			c0-12.31,5.76-18.52,18.13-19.47L295.52,100.6z"/>
		<path class="st1" d="M243.11,104.5c-3.13-3.12-6.72-4.64-10.88-4.64c-4.45,0-8.49,1.72-11.38,4.87c-2.97,3.2-4.54,7.58-4.54,12.66
			v22.37h9.98V117c0-4.43,2.45-7.5,5.94-7.5c3.45,0,5.96,3.16,5.96,7.5v22.75h10.04V117c0-4.43,2.47-7.5,5.98-7.5
			c3.46,0,5.87,3.07,5.87,7.5v22.75h9.97l-0.01-22.37c0-5.08-1.53-9.45-4.46-12.66c-2.9-3.15-6.95-4.87-11.38-4.87
			C249.93,99.86,246.15,101.46,243.11,104.5"/>
		<path class="st1" d="M131.5,117.36v22.38h9.97v-22.73c0-4.43,2.94-7.5,7.18-7.5c4.18,0,7.08,3.07,7.08,7.5v22.73h9.97v-22.38
			c0-4.94-1.74-9.42-4.91-12.62c-3.12-3.15-7.44-4.87-12.15-4.87C138.7,99.87,131.5,107.21,131.5,117.36"/>
		<path class="st1" d="M342.67,117.36v22.38h9.96v-22.73c0-4.43,2.97-7.5,7.19-7.5c4.18,0,7.09,3.07,7.09,7.5v22.73h9.97v-22.38
			c0-4.94-1.73-9.42-4.92-12.62c-3.13-3.15-7.43-4.87-12.15-4.87C349.87,99.87,342.67,107.21,342.67,117.36"/>
		<path class="st1" d="M191.02,99.85c5.48,0,10.67,2.15,14.59,6.03c3.9,3.79,6.08,8.88,6.08,14.4l-0.04,0.31v19.17h-10.24v-1.87
			c-3.16,1.85-6.7,2.83-10.39,2.83c-5.58,0-10.81-2.16-14.73-6.04c-3.9-3.85-6.05-8.96-6.05-14.4c0-5.44,2.15-10.54,6.05-14.4
			C180.21,101.99,185.44,99.85,191.02,99.85 M190.94,131c5.85,0,10.45-4.7,10.45-10.72c0-5.92-4.69-10.77-10.45-10.77
			c-5.74,0-10.41,4.84-10.41,10.77c0,2.91,1.08,5.61,3.05,7.64C185.54,129.9,188.16,131,190.94,131"/>
		<path class="st1" d="M302.72,105.86c-3.91,3.88-6.05,8.99-6.05,14.43c0,5.42,2.14,10.55,6.04,14.39
			c3.94,3.89,9.18,6.06,14.73,6.06c5.49,0,10.67-2.16,14.63-6.06c3.9-3.77,6.04-8.88,6.04-14.39c0-5.52-2.14-10.64-6.04-14.43
			c-3.95-3.87-9.14-6.02-14.63-6.02C311.88,99.84,306.64,101.99,302.72,105.86 M310.02,127.91c-1.99-2.01-3.06-4.71-3.06-7.62
			c0-5.94,4.65-10.8,10.39-10.8c5.76,0,10.49,4.85,10.49,10.8c0,5.99-4.62,10.71-10.49,10.71C314.56,131,311.97,129.9,310.02,127.91
			"/>
		<rect x="687.91" y="358.88" class="st10" width="65.18" height="15.76"/>
		<path class="st10" d="M731.62,329.38c0,1.18,0.99,2.13,2.2,2.13c1.21,0,2.2-0.96,2.2-2.13c0-1.18-0.99-2.12-2.2-2.12
			C732.61,327.26,731.62,328.21,731.62,329.38"/>
		<path class="st10" d="M759.81,264.72l-19.7,19.78h-1.89c0.12-1.3,0.23-2.59,0.35-3.89l1.54,0.47c1.67,0,3.02-1.31,3.02-2.92
			c0-1.6-1.35-2.92-3.02-2.92c-1.09,0-2.02,0.61-2.54,1.46l-0.16-0.15c-1.04-0.92-2.23-1.76-3.19-2.22c-1.94-0.93-4-1.47-6.18-1.78
			l-0.49-0.05v-0.95h-10.89v0.61c-1.46,0.09-2.9,0.24-4.27,0.47l-1.72,0.41v-0.36h-3.92v1.65l-1,0.41
			c-1.04,0.56-1.85,1.26-2.49,2.03c-0.51,0.62-0.89,1.3-1.19,1.98h-2.03v1.6h3.22l0.61,7.83l-22.42-23.29v2.43l22.61,23.46
			l2.13,27.8l-23.34,23.44l1.17,1.1l22.34-22.34l0.73,9.56c-0.08,1.11,0.51,1.55,1.11,1.72v2.31l0.37,0.36h3.34l0.36-0.36v-2.21
			l15.83,0.15c1.1,2,3.24,3.38,5.74,3.38c3.61,0,6.55-2.84,6.55-6.32l-0.11-1.03l14.14,14.68l1.18-1.08L735,320.56
			c0.86-9.55,1.71-19.09,2.56-28.64h5.45v-7.41h-0.37l17.17-17.17V264.72z M718.28,273.74v-0.6h7.63v0.81v0.59h-7.63V273.74z
			 M703.85,278.77l0.66-0.99c0.53-0.61,1.19-1.18,2.03-1.63l0.2-0.08v2.71H703.85z M705.85,292.65L718.72,306l-11,11.05
			L705.85,292.65z M727.29,329.39l0.16,1.36l-18.15-0.17l-0.12,0.01l-0.44-0.17v-0.11l-0.85-11.04l12.03-12.03l13.39,13.89l-0.18,2
			C729.85,323.47,727.29,326.13,727.29,329.39 M737.33,329.39c0,1.87-1.58,3.38-3.51,3.38c-1.92,0-3.5-1.51-3.5-3.38
			c0-1.87,1.57-3.39,3.5-3.39C735.75,326,737.33,327.52,737.33,329.39 M735.34,323.25l-0.57-0.1l0.04-0.45L735.34,323.25z
			 M733.48,318.98l-12.41-12.91l14.46-14.46v0.3h0.37C735.1,300.94,734.29,309.96,733.48,318.98 M736.56,284.5h-1.03v4.6l-5.27,5.3
			v-2.28h-13.78v4.01h12.05l-8.66,8.7l-14.23-14.78l-0.74-9.69h32.03C736.81,281.74,736.69,283.12,736.56,284.5 M710.66,278.77
			v-4.08c0.65-0.17,1.29-0.35,1.99-0.47c1.28-0.22,2.63-0.36,4-0.44v2.35h10.89v-2.01l0.25,0.02c2.03,0.29,3.92,0.77,5.69,1.62
			c0.83,0.41,1.87,1.15,2.84,1.99v-0.01l0.87,0.84l0.04,0.19H710.66z M741.37,290.33h-3.67l0.09-0.96l3.26-3.28h0.31V290.33z"/>
		<path d="M261.81,329.44c19.66,0.17,39.32,0.35,58.99,0.5c4.55,0.04,8.55,1.22,11.69,4.24c2.37,2.27,3.3,4.99,3.27,8.07
			c-0.23,21.87-0.41,43.75-0.62,65.63c-0.04,5.13-0.19,10.26-0.12,15.39c0.12,7.14-6.3,11.35-12.47,11.93
			c-0.98,0.1-1.99,0.11-2.98,0.1c-39.16-0.32-78.31-0.67-117.47-0.99c-4.86-0.05-9.12-1.29-12.33-4.71
			c-1.74-1.88-2.72-4.01-2.77-6.46l-0.03-1.86c0.25-26.62,0.5-53.22,0.74-79.82c0.07-7.28,5.38-12.15,13.62-12.48
			c0.7-0.02,1.41-0.04,2.11-0.02L261.81,329.44z M331.55,393.03l0.01-1.28c0.09-9.24,0.16-18.46,0.24-27.7
			c0.07-7.4,0.14-14.8,0.2-22.2c0.03-3.39-1.81-5.76-5.08-7.36c-1.9-0.93-3.97-1.21-6.11-1.23c-39.33-0.33-78.66-0.66-117.98-1.01
			l-1.85,0.04c-4.94,0.35-9.58,3.61-9.58,8.89c0.02,16.38-0.24,32.76-0.38,49.13l-0.02,1.54l1.48,0.01
			c8.48,0.06,16.97,0.13,25.45,0.25l1.8,0.67c10,8.76,25.95,8.9,36.1,0.28l1.95-0.63c24.01,0.17,48.02,0.38,72.03,0.59
			L331.55,393.03 M297.41,406.54c-0.02,2.64-0.02,5.2-0.08,7.76c-0.03,1.57-0.04,3.16-0.25,4.72c-0.26,1.91-1.51,2.85-3.54,2.87
			c-2.07,0.02-3.26-0.85-3.67-2.76l-0.17-1.75c0-3.22,0.04-6.45,0.05-9.67l0.02-1.23c-1.98-0.01-3.82-0.03-5.63-0.05
			c-0.04,4.57-0.16,9.06-0.09,13.57c0.03,1.85,0.93,3.61,2.78,4.58c1.53,0.8,3.3,1.43,5.04,1.66c6.87,0.93,10.85-2,11.13-8.09
			c0.15-3.15,0.11-6.3,0.15-9.45c0.01-0.69,0.02-1.38,0.02-2.12C301.22,406.57,299.42,406.56,297.41,406.54 M245.05,418.94
			c1.78,0.01,3.35,0.13,4.91,0.02c2.68-0.2,4.87-1.25,5.57-3.66c0.44-1.48,0.49-3.13,0.26-4.66c-0.37-2.34-2.17-3.92-4.76-4.19
			c-3.8-0.4-7.64-0.41-11.5-0.6c-0.06,6.67-0.12,13.08-0.18,19.5c1.92,0.02,3.72,0.03,5.65,0.05
			C245.02,423.3,245.04,421.26,245.05,418.94 M312.03,424.32c3.58,2.09,7.3,2.95,11.36,1.76c3.42-1,5.02-3.27,4.92-6.61
			c-0.09-2.54-1.7-4.17-5.06-5.14l-1.54-0.44l-1.82-0.68c-1.21-0.66-1.15-1.97,0.17-2.38c0.85-0.26,1.88-0.24,2.77-0.09
			c0.82,0.14,1.57,0.61,2.45,0.98c0.73-1.25,1.46-2.5,2.18-3.74c-2.45-1.51-6.67-2.16-9.35-1.47c-3.05,0.78-5.01,3.07-5.06,5.96
			c-0.08,3.01,1.06,4.32,4.64,5.4c1.08,0.32,2.2,0.63,3.27,1.02c0.86,0.32,1.44,0.9,1.27,1.81c-0.17,0.92-0.9,1.51-1.87,1.47
			c-1.21-0.05-2.43-0.27-3.58-0.61c-0.79-0.23-1.45-0.79-2.26-1.26C313.69,421.61,312.91,422.89,312.03,424.32 M264.02,406.25
			c-0.05,6.48-0.13,12.88-0.17,19.32c4.15,0.04,8.22,0.08,12.35,0.11c0.01-1.45,0.03-2.84,0.04-4.37c-2.28-0.02-4.44-0.04-6.66-0.05
			c0.02-2.58,0.05-5.04,0.07-7.49c0.02-2.48,0.04-4.96,0.06-7.47C267.75,406.28,265.94,406.27,264.02,406.25"/>
		<path d="M238.06,362.68c8.46,0.02,15.33,6.16,15.37,13.73c0.03,7.54-6.97,13.69-15.52,13.66c-8.58-0.04-15.45-6.18-15.4-13.79
			C222.54,368.7,229.43,362.65,238.06,362.68 M229.43,382.87l0.36,0.16c4.05,0.05,8.1,0.1,12.15,0.11l0.91-0.43
			c0.94-1.23,1.82-2.49,2.85-3.92c-2.37-0.01-4.52-0.03-6.88-0.06c2.37-3.28,4.62-6.41,6.86-9.53l-0.32-0.17
			c-4-0.05-8.02-0.1-12.02-0.12l-0.75,0.28c-0.93,1.26-1.85,2.54-2.88,3.99c2.41,0.02,4.53,0.05,6.79,0.06
			C234.09,376.52,231.79,379.66,229.43,382.87"/>
		<path d="M238.17,342.11c-0.01,1.49-0.03,2.92-0.05,4.43c-9.21,0.12-17.2,2.89-23.75,8.6c-6.51,5.68-9.78,12.66-10.08,20.83
			c-1.64-0.02-3.28-0.03-4.92-0.05C198.52,359,215.87,341.61,238.17,342.11"/>
		<path d="M270.55,378.22c0.59-2.89,1.18-5.54,1.67-8.21c0.13-0.7,0.45-0.9,1.2-0.87c1.54,0.05,3.06,0.03,4.81,0.05
			c-0.53,1.54-1.02,2.95-1.51,4.36c-1.02,3.01-2.07,6.03-3.06,9.04c-0.22,0.69-0.51,1.03-1.43,0.97c-1.27-0.08-2.56-0.04-3.97-0.05
			c-0.58-2.42-1.15-4.79-1.78-7.48c-0.67,2.63-1.26,4.96-1.88,7.37c-1.67-0.01-3.31-0.02-5.1-0.04c-1.5-4.72-3.02-9.49-4.6-14.43
			c1.85,0.01,3.57-0.01,5.29,0.08l0.66,0.83c0.52,2.71,1,5.42,1.5,8.21l0.25-0.52c0.58-2.54,1.18-5.09,1.71-7.64
			c0.15-0.63,0.45-0.81,1.16-0.83c3.16-0.05,3.16-0.07,3.74,2.7c0.23,1.04,0.45,2.08,0.68,3.13
			C270.1,375.93,270.3,376.96,270.55,378.22"/>
		<path d="M238.09,351.23c-0.01,1.49-0.02,2.92-0.04,4.32c-14.03,1.26-21.91,8.01-23.56,20.51c-1.54-0.02-3.16-0.03-4.79-0.05
			C209.16,363.91,221.33,350.96,238.09,351.23"/>
		<path d="M295.93,383.74c-1.95-0.01-3.72,0.01-5.5-0.08l-0.88-0.76c-0.19-0.86-0.66-1.18-1.62-1.06h-1.24
			c-1.97-0.01-1.97-0.01-2.58,1.8c-0.97,0-1.99-0.02-3.02-0.02c-0.97-0.01-1.97-0.01-3.12-0.03c0.43-1.08,0.8-2.04,1.21-2.99
			c1.42-3.48,2.89-6.94,4.29-10.41c0.3-0.79,0.75-1.07,1.69-1.02c1.49,0.09,2.99,0.02,4.47,0.09l0.94,0.59
			C292.37,374.4,294.12,378.99,295.93,383.74 M287.01,373.77c-0.45,1.68-0.83,3.14-1.22,4.65c0.86,0.01,1.57,0.01,2.38,0.02
			C287.78,376.87,287.41,375.43,287.01,373.77"/>
		<path d="M295.05,369.37c1.99,0.02,3.83-0.01,5.68,0.08l0.79,0.89c0.82,2.49,1.56,4.99,2.31,7.43c0.81-2.37,1.68-4.81,2.45-7.26
			c0.26-0.81,0.65-1.12,1.61-1.05c1.57,0.09,3.13,0.05,4.9,0.06c-0.84,1.91-1.61,3.71-2.4,5.49c-1.18,2.69-2.39,5.38-3.55,8.07
			c-0.23,0.56-0.52,0.84-1.25,0.8c-1.48-0.07-3.32,0.38-4.35-0.24c-1.01-0.62-1.22-2.29-1.74-3.51c-1.37-3.22-2.72-6.44-4.08-9.67
			L295.05,369.37"/>
		<path d="M315.62,383.9c0.05-4.8,0.09-9.51,0.13-14.28c3.6,0.03,7.14,0.06,10.74,0.09c-0.02,1.24-0.02,2.43-0.03,3.75
			c-1.71-0.01-3.34-0.03-5.03-0.04l-0.02,1.48c1.51,0.01,2.95,0.02,4.5,0.04c-0.02,1.23-0.02,2.37-0.04,3.63
			c-1.47,0-2.94-0.02-4.48-0.03l-0.02,1.59c1.7,0.01,3.34,0.03,5.09,0.05c-0.01,1.32-0.02,2.53-0.03,3.82
			C322.85,383.95,319.31,383.92,315.62,383.9"/>
		<path d="M245.53,414.61c0.01-1.48,0.02-2.96,0.03-4.64c1.53,0.17,3.21-0.32,4.36,0.95c0.75,0.83,0.65,1.89,0.12,2.83
			C249.51,414.66,247.88,414.95,245.53,414.61"/>
	</g>
</g>
<path class="st11" d="M696.81,501.01l1.53-0.2c0.18,0.87,0.48,1.5,0.9,1.88c0.43,0.38,0.94,0.58,1.55,0.58
	c0.72,0,1.33-0.25,1.83-0.75c0.5-0.5,0.74-1.12,0.74-1.86c0-0.7-0.23-1.28-0.69-1.74c-0.46-0.45-1.04-0.68-1.75-0.68
	c-0.29,0-0.65,0.06-1.08,0.17l0.17-1.35c0.1,0.01,0.18,0.02,0.25,0.02c0.65,0,1.24-0.17,1.76-0.51c0.52-0.34,0.79-0.87,0.79-1.58
	c0-0.56-0.19-1.03-0.57-1.39c-0.38-0.37-0.87-0.55-1.47-0.55c-0.6,0-1.09,0.19-1.49,0.56c-0.4,0.38-0.65,0.94-0.77,1.69l-1.53-0.27
	c0.19-1.03,0.61-1.83,1.28-2.39c0.67-0.57,1.49-0.85,2.48-0.85c0.68,0,1.31,0.15,1.88,0.44c0.57,0.29,1.01,0.69,1.31,1.2
	c0.3,0.51,0.46,1.04,0.46,1.61c0,0.54-0.15,1.03-0.44,1.48c-0.29,0.44-0.72,0.79-1.28,1.06c0.74,0.17,1.31,0.52,1.72,1.06
	c0.4,0.53,0.61,1.21,0.61,2.01c0,1.09-0.4,2.01-1.19,2.77c-0.8,0.76-1.8,1.14-3.02,1.14c-1.1,0-2-0.32-2.73-0.98
	C697.32,502.9,696.91,502.05,696.81,501.01"/>
</svg>
