<?xml version="1.0" encoding="utf-8"?>
<!-- Generator: Adobe Illustrator 21.1.0, SVG Export Plug-In . SVG Version: 6.00 Build 0)  -->
<svg version="1.1" id="Layer_1" xmlns="http://www.w3.org/2000/svg" xmlns:xlink="http://www.w3.org/1999/xlink" x="0px" y="0px"
	 viewBox="0 0 1417.3 446.2" style="enable-background:new 0 0 1417.3 446.2;" xml:space="preserve">
<style type="text/css">
	.st0{fill:#FF6C2C;}
	.st1{fill:#1D1D1B;}
	.st2{fill:#1D1D1B;stroke:#000000;stroke-width:0.25;stroke-miterlimit:10;}
	.st3{stroke:#000000;stroke-width:0.25;stroke-miterlimit:10;}
	.st4{font-family:'MyriadPro-Regular';}
	.st5{font-size:14px;}
	.st6{fill:#0066FF;}
	.st7{font-size:18px;}
	.st8{font-size:26px;}
</style>
<title>LED Driver</title>
<path d="M1375.7,0H41.6C18.6,0,0,18.6,0,41.6v363c0,23,18.6,41.6,41.6,41.6h1334.2c23,0,41.6-18.6,41.6-41.6v-363
	C1417.3,18.6,1398.7,0,1375.7,0z M1401.2,404.6c0,14-11.4,25.4-25.4,25.4l0,0H41.6c-14,0-25.4-11.4-25.4-25.4l0,0v-363
	c0-14,11.4-25.4,25.4-25.4h1334.2c14,0,25.4,11.4,25.4,25.4c0,0,0,0,0,0V404.6z"/>
<path d="M1375.7,31H327V16.2h-8.1V31H41.6C35.8,31,31,35.7,31,41.5c0,0,0,0.1,0,0.1v363c0,5.8,4.7,10.5,10.5,10.5h277.4V430h8.1
	v-14.9h1048.7c5.8,0,10.5-4.7,10.5-10.5v-363C1386.3,35.8,1381.6,31,1375.7,31C1375.8,31,1375.7,31,1375.7,31z M41.6,407
	c-1.4,0-2.4-1.1-2.5-2.5v-363c0-1.4,1.1-2.5,2.5-2.5h239.5V407H41.6z M1378.2,404.5c0,1.4-1.1,2.5-2.5,2.5H289.2V39.1h1086.5
	c1.4,0,2.5,1.1,2.5,2.5V404.5z"/>
<g>
	<polygon points="815.1,310.2 818.5,310.2 818.5,307.1 815.1,307.1 815.1,305.9 818.7,305.9 818.7,302.6 810.8,302.6 810.8,314.7 
		818.9,314.7 818.9,311.4 815.1,311.4 	"/>
	<path d="M801.7,308c-0.2,0.7-0.2,1.2-0.2,1.9c0-0.7,0-1.2-0.2-1.9l-1.7-5.7h-4.5l4.8,12.4h3.8l4.8-12.4h-5L801.7,308z"/>
	<path d="M752.1,287.3c-6,0-11.5,2.4-15.3,6.2c-3.8,4.1-6.2,9.3-6.2,15.3h3.6c0-5,1.9-9.3,5.3-12.7c3.3-3.3,7.6-5.3,12.7-5.3V287.3z
		"/>
	<path d="M722.9,308.8C722.9,308.8,722.9,308.5,722.9,308.8L722.9,308.8L722.9,308.8z"/>
	<path d="M752.3,283v-3.6c-8.1,0-15.5,3.3-20.8,8.6c-5.3,5.5-8.6,12.4-8.6,20.5h3.8c0-7.2,2.9-13.6,7.4-18.1
		C738.9,285.8,745.1,283,752.3,283z"/>
	<path d="M752.1,297.1c-6.4,0-11.7,5.3-11.7,11.7s5.3,11.7,11.7,11.7s11.7-5.3,11.7-11.7S758.5,297.1,752.1,297.1z M757.8,311.1
		l-2.4,3.8h-10l5.5-8.6h-5.3l2.4-3.8v0.2h10l-5.3,8.4H757.8z"/>
	<path d="M822.5,271.3c-1.9-1.7-4.3-2.9-7.2-2.9h-91.2c-2.9,0-5.5,1.2-7.2,3.1c-1.7,1.9-2.9,4.3-2.9,7.2v69.5c0,2.9,1,5.3,2.9,7.2
		c1.9,1.7,4.3,2.9,7.2,2.9h91.2c2.9,0,5.3-1,7.2-2.9c1.7-1.9,2.9-4.3,2.9-7.2v-69.7C825.4,275.6,824.4,273.2,822.5,271.3z
		 M759.9,345.3h-2.4v5.5h-4.3v-16.7h6.7c1.9,0,3.3,0.5,4.3,1.2c1.2,1,1.7,2.4,1.7,4.3C765.9,343.4,764,345.3,759.9,345.3z
		 M781.7,350.8h-9.6v-16.7h4.3v13.1h5.3V350.8z M801.7,343.4c0,0.7,0,1.2,0,1.7c0,0.5,0,1.2-0.2,1.4c-0.2,1.2-0.7,1.9-1.4,2.6
		c-0.7,0.7-1.4,1.2-2.6,1.4c-1,0.2-1.9,0.5-2.9,0.5c-1.2,0-2.1-0.2-2.9-0.5c-1-0.2-1.9-0.7-2.6-1.4c-0.7-0.7-1.2-1.7-1.4-2.6
		c0-0.5-0.2-1-0.2-1.4c0-0.5,0-1,0-1.7v-9.3h4.3v8.8c0,0.7,0,1.2,0,1.7s0.2,1.2,0.2,1.4c0.5,1,1.2,1.4,2.6,1.4
		c1.2,0,2.1-0.5,2.6-1.4c0.2-0.5,0.2-1,0.2-1.4s0-1,0-1.7v-8.8h4.3L801.7,343.4L801.7,343.4z M820.1,347.2c-0.2,1-0.7,1.4-1.4,2.1
		c-0.7,0.5-1.4,1-2.1,1.2c-0.7,0.2-1.7,0.5-2.4,0.5c-2.1,0-4.1-0.7-6-1.9l1.9-3.6c0.7,0.5,1.2,1,1.7,1.2c0.7,0.2,1.4,0.5,2.1,0.5
		c0.5,0,1-0.2,1.4-0.5c0.5-0.2,0.7-0.7,0.7-1.2s-0.2-1-1-1.2c-0.2-0.2-0.5-0.2-1-0.2l-0.7-0.2c-0.7-0.2-1.4-0.5-1.9-0.7
		c-0.5-0.2-1-0.5-1.4-0.7c-0.7-0.7-1.2-1.9-1.2-3.3c0-1.7,0.5-3.1,1.7-4.1s2.4-1.4,4.1-1.4c1.9,0,3.6,0.5,5.3,1.4l-2.1,3.3
		c-1-0.7-1.9-1.2-2.9-1.2c-0.5,0-1,0-1.2,0.2c-0.5,0.2-0.7,0.7-0.7,1c0,0.5,0.2,0.7,0.7,1.2c0.2,0,0.5,0.2,0.7,0.2s0.5,0.2,0.7,0.2
		l1.2,0.2c1.2,0.5,2.4,1,2.9,1.4c0.7,0.7,1.2,1.7,1.2,3.1C820.4,345.8,820.4,346.5,820.1,347.2z M822.5,322.4h-56.1
		c-3.6,3.8-8.8,6.2-14.3,6.2c-5.7,0-10.7-2.4-14.3-6.2H717v-43.7c0-1.9,0.7-3.6,2.1-5c1.2-1.4,3.1-2.1,5-2.1h91.2
		c1.9,0,3.6,0.7,5,2.1c1.4,1.2,2.1,3.1,2.1,5V322.4z"/>
	<path d="M760.4,337.7c-0.2,0-0.5-0.2-1-0.2c-0.2,0-0.7,0-1.2,0h-0.7v4.1h0.7c0.5,0,1,0,1.2,0c0.5,0,0.7-0.2,1-0.2
		c0.7-0.2,1-1,1-1.7C761.4,338.6,761.1,337.9,760.4,337.7z"/>
	<path d="M786.7,302.1l-4.3,12.4h4.5l0.5-1.4h3.3l0.5,1.4h4.5l-4.3-12.4H786.7z M788.1,310.2l0.7-3.8h0.2c0,0.2,0,0.5,0.2,0.7
		c0,0.2,0,0.2,0,0.5c0,0.2,0,0.2,0,0.5l0.5,2.1H788.1z"/>
	<path d="M778.6,302.3l-1.2,5.3c-0.2,0.7-0.2,1.4-0.2,2.1l-1.7-7.4h-3.1l-1.2,5c-0.2,0.7-0.2,1.4-0.2,2.4l-1.4-7.4h-5l4.1,12.4h3.6
		l1.2-4.8c0.2-0.7,0.2-1.2,0.2-1.9h0.2l1.4,6.7h3.6l4.1-12.4H778.6z"/>
</g>
<g>
	<path class="st0" d="M532,92.4c0,11-5,16.4-15.4,16.7h-1.3l6.3,6c3.7,3.7,3.7,7.4,0.7,10.7c-3,3.7-6.7,3.7-11,0l-15-15
		c-3.7-3-5.7-5.3-5.7-7.4c0-5.7,2.7-8.7,8-8.7H517c2,0,3-0.7,3-2.3c0-1.3-1-2.3-3-2.3h-19.4c-4.7,0-7-2.3-7-7.4c0-5,2.3-7.4,7-7.4
		h18.7C526.6,75.7,532,81.4,532,92.4z"/>
	<path class="st0" d="M536.3,101.7c0-3.7,0.7-7,2-10.4s3.3-6,5.7-8.7c2.3-2.3,5.3-4.3,8.4-5.7c3.3-1.3,6.7-2,10.4-2
		c3.7,0,7,0.7,10.4,2c3.3,1.3,6,3.3,8.7,5.7c2.3,2.3,4.3,5.3,5.7,8.7c1.3,3.3,2,6.7,2,10.4c0,3.7-0.7,7-2,10.4s-3.3,6-5.7,8.4
		c-2.3,2.3-5.3,4.3-8.7,5.7c-3.3,1.3-6.7,2-10.4,2c-3.7,0-7-0.7-10.4-2c-3.3-1.3-6-3.3-8.4-5.7c-2.3-2.3-4.3-5.3-5.7-8.4
		C537,108.8,536.3,105.4,536.3,101.7z M551,102.1c0,1.7,0.3,3.3,1,4.7c0.7,1.3,1.3,2.7,2.7,4c1,1,2.3,2,4,2.7c1.3,0.7,3,1,4.7,1
		c1.7,0,3.3-0.3,4.7-1s2.7-1.3,4-2.7c1-1,2-2.3,2.7-4c0.7-1.3,1-3,1-4.7s-0.3-3.3-1-4.7c-0.7-1.3-1.7-2.7-2.7-4c-1-1-2.3-2-4-2.7
		c-1.3-0.7-3-1-4.7-1c-1.7,0-3.3,0.3-4.7,1s-2.7,1.7-4,2.7c-1,1-2,2.3-2.7,4C551.4,98.7,551,100.1,551,102.1z"/>
	<path class="st1" d="M602.5,109.1c-4.7,0-7-2.3-7-7.4s2.3-7.4,7-7.4h22.4c2,0,3-0.7,3-2.3c0-1.3-1-2.3-3-2.3h-22.4
		c-4.3,0-6.7-2.3-6.7-7.4s2.3-7.4,6.7-7.4h27.7c6.3,0,10,2.3,11.7,6.7c1.7,4.3,2,8.7,0.3,12.7c-1.3,4-4.7,6.3-9,7c4.7,0.7,7.7,3,9,7
		c1.7,4,1.3,8-0.3,12.7c-1.7,4.3-5.3,6.7-11.7,6.7h-27.4c-4.7,0-7-2.3-7-7.4s2.3-7.4,7-7.4h22.1c2,0,3-0.7,3-2.3c0-1.3-1-2.3-3-2.3
		h-22.4C602.5,108.4,602.5,109.1,602.5,109.1z"/>
	<path class="st1" d="M657,109.1c-4.7,0-7-2.3-7-7.4s2.3-7.4,7-7.4h22.4c2,0,3-0.7,3-2.3c0-1.3-1-2.3-3-2.3h-22.7
		c-4.3,0-6.7-2.3-6.7-7.4s2.3-7.4,6.7-7.4h27.7c6.3,0,10,2.3,11.7,6.7c1.7,4.3,2,8.7,0.3,12.7c-1.3,4-4.3,6.3-9,7c4.7,0.7,7.7,3,9,7
		c1.7,4,1.3,8-0.3,12.7c-1.7,4.3-5.3,6.7-11.7,6.7H657c-4.7,0-7-2.3-7-7.4s2.3-7.4,7-7.4H679c2,0,3-0.7,3-2.3c0-1.3-1-2.3-3-2.3H657
		C657,108.4,657,109.1,657,109.1z"/>
	<g>
		<path class="st2" d="M495.9,144.2C495.9,144.2,495.6,144.2,495.9,144.2C495.6,144.2,495.6,144.2,495.9,144.2l-0.7-0.3
			c-0.3,0-0.3-0.3-0.7-0.3c-0.3,0-0.7,0-1,0c-0.3,0-0.7,0-1,0c-0.3,0-0.7,0.3-0.7,0.3c-0.3,0.3-0.3,0.3-0.3,0.7s0,0.3,0,0.7
			c0,0.3,0,0.7,0.3,1c0,0.3,0.3,0.3,0.7,0.7c0.3,0,0.7,0.3,0.7,0.3c0.3,0,0.7,0.3,1,0.3s0.7,0.3,1,0.3s0.7,0.3,0.7,0.3
			c0.3,0.3,0.3,0.3,0.7,0.7c0,0.3,0.3,0.7,0.3,1c0,0.3,0,1-0.3,1.3c0,0.3-0.3,0.7-0.7,1c-0.3,0.3-0.7,0.7-1,0.7s-1,0.3-1.3,0.3
			c-0.7,0-1.3,0-1.7-0.3c-0.3-0.3-1-0.7-1.3-1l0.3-0.3c0,0,0,0,0.3,0c0,0,0,0,0.3,0c0,0,0,0,0.3,0.3l0.3,0.3l0.3,0.3
			c0.3,0,0.3,0,0.7,0.3c0.3,0,0.3,0,0.7,0c0.3,0,0.7,0,1-0.3c0.3,0,0.7-0.3,0.7-0.7c0.3-0.3,0.3-0.3,0.7-0.7c0-0.3,0.3-0.7,0.3-1
			c0-0.3,0-0.7-0.3-1c0-0.3-0.3-0.3-0.7-0.7c-0.3,0-0.7-0.3-0.7-0.3c-1.3,0-1.7,0-2,0s-0.7-0.3-1-0.3s-0.7-0.3-0.7-0.3
			c-0.3-0.3-0.3-0.3-0.7-0.7c0-0.3-0.3-0.7-0.3-1c0-0.3,0-0.7,0.3-1c0-0.3,0.3-0.7,0.7-1c0.3-0.3,0.7-0.3,1-0.7
			c0.3,0,0.7-0.3,1.3-0.3c0.7,0,1,0,1.3,0.3C495.2,143.5,495.6,143.5,495.9,144.2L495.9,144.2z"/>
		<path class="st2" d="M533.7,150.5C533.7,150.2,534,150.5,533.7,150.5C534,150.2,534,150.2,533.7,150.5l4.3-7.4l0,0l0,0h0.7v10.4
			H538v-8.7c0,0,0,0,0-0.3l-4,7c0,0,0,0.3-0.3,0.3l0,0c0,0-0.3,0-0.3-0.3l-4-7c0,0,0,0,0,0.3v8.7h-0.7v-10.4h0.7l0,0l0,0
			L533.7,150.5C533.7,150.2,533.7,150.2,533.7,150.5z"/>
		<path class="st3" d="M579.8,153.2h-0.7c0,0,0,0-0.3,0l0,0l-1.3-3h-5l-1.3,3l0,0c0,0,0,0-0.3,0h-0.7l4.3-10.4h0.7L579.8,153.2z
			 M573.1,149.5h4.7l-2-5.3v-0.3l0,0l0,0v0.3L573.1,149.5z"/>
		<path class="st2" d="M612.5,148.5v4.7h-0.7v-10.4h2.7c1.3,0,2,0.3,2.7,0.7c0.7,0.3,1,1,1,2c0,0.3,0,0.7-0.3,1c0,0.3-0.3,0.7-0.7,1
			c-0.3,0.3-0.7,0.3-1,0.7c-0.3,0-0.7,0.3-1.3,0.3l0.3,0.3l3.7,4.3h-0.7c0,0,0,0-0.3,0l0,0l-3.3-4l-0.3-0.3h-0.3L612.5,148.5
			L612.5,148.5z M612.5,147.8h1.7c0.3,0,1,0,1.3,0c0.3,0,0.7-0.3,1-0.3c0.3-0.3,0.3-0.3,0.7-0.7c0-0.3,0.3-0.7,0.3-1
			c0-0.7-0.3-1.3-0.7-1.7c-0.3-0.3-1.3-0.7-2-0.7h-2v4.3H612.5z"/>
		<path class="st2" d="M652,148.5v4.7h-0.7v-10.4h2.7c1.3,0,2,0.3,2.7,0.7c0.7,0.3,1,1,1,2c0,0.3,0,0.7-0.3,1c0,0.3-0.3,0.7-0.7,1
			c-0.3,0.3-0.7,0.3-1,0.7c-0.3,0-0.7,0.3-1.3,0.3l0.3,0.3l3.7,4.3h-0.7c0,0,0,0-0.3,0l0,0l-3.3-4l-0.3-0.3h-0.3L652,148.5
			L652,148.5z M652,147.8h1.7c0.3,0,1,0,1.3,0c0.3,0,0.7-0.3,1-0.3c0.3-0.3,0.3-0.3,0.7-0.7c0-0.3,0.3-0.7,0.3-1
			c0-0.7-0.3-1.3-0.7-1.7s-1.3-0.7-2-0.7h-2v4.3H652z"/>
		<path class="st2" d="M696.7,142.8v0.7h-3.3v9.7h-0.7v-9.7H689v-0.7H696.7z"/>
	</g>
</g>
<text transform="matrix(1 0 0 1 724.3999 265.3641)" class="st4 st5">ROB_100-012-0</text>
<path class="st6" d="M589.4,312.3c0,5.1-2.7,9.6-6.9,12c-4.3,2.4-9.6,2.4-13.9,0s-6.9-6.9-6.9-12c0-7.7,6.1-13.9,13.9-13.9
	C583.2,298.6,589.4,304.8,589.4,312.3"/>
<text transform="matrix(1 0 0 1 556.2725 345.6276)" class="st4 st7">Prog.</text>
<text transform="matrix(1 0 0 1 709.2776 95.4014)"><tspan x="0" y="0" class="st4 st8">White </tspan><tspan x="0" y="31.2" class="st4 st8">Z-Wave LED Dimmer</tspan></text>
</svg>
