<?xml version="1.0" encoding="utf-8"?>
<!-- Generator: Adobe Illustrator 21.1.0, SVG Export Plug-In . SVG Version: 6.00 Build 0)  -->
<svg version="1.1" id="Laag_1" xmlns="http://www.w3.org/2000/svg" xmlns:xlink="http://www.w3.org/1999/xlink" x="0px" y="0px"
	 viewBox="0 0 157.1 157.1" style="enable-background:new 0 0 157.1 157.1;" xml:space="preserve">
<style type="text/css">
	.st0{fill:none;stroke:#808080;stroke-miterlimit:22.9256;}
	.st1{fill:none;stroke:#000000;stroke-linejoin:bevel;stroke-miterlimit:22.9256;}
	.st2{fill:none;stroke:#0066FF;stroke-miterlimit:22.9256;}
	.st3{fill:#02FF00;}
	.st4{fill:none;stroke:#000000;stroke-miterlimit:22.9256;}
	.st5{fill:#FF6633;}
</style>
<path class="st0" d="M28.9,47.9"/>
<path class="st0" d="M36.1,35.4"/>
<path class="st0" d="M127.5,109.5"/>
<path class="st0" d="M28.9,109.5"/>
<path class="st1" d="M138,139.3"/>
<path class="st1" d="M139.3,138"/>
<path class="st1" d="M139.3,19.1"/>
<path class="st1" d="M19.1,139.3"/>
<path class="st1" d="M17.8,138"/>
<path class="st1" d="M9.3,0.5C7,0.5,4.7,1.4,3.1,3.1C1.4,4.7,0.5,6.9,0.5,9.3"/>
<path class="st1" d="M0.5,147.8c0,2.3,0.9,4.6,2.6,6.2c1.6,1.6,3.9,2.6,6.2,2.6"/>
<path class="st1" d="M156.6,9.3c0-2.3-0.9-4.6-2.6-6.2c-1.6-1.6-3.9-2.6-6.2-2.6"/>
<path class="st1" d="M17.8,19.1"/>
<line class="st1" x1="147.8" y1="0.5" x2="9.3" y2="0.5"/>
<path class="st1" d="M147.8,156.6c2.3,0,4.6-0.9,6.2-2.6c1.6-1.6,2.6-3.9,2.6-6.2"/>
<line class="st1" x1="0.5" y1="9.3" x2="0.5" y2="147.8"/>
<line class="st1" x1="9.3" y1="156.6" x2="147.8" y2="156.6"/>
<line class="st1" x1="156.6" y1="147.8" x2="156.6" y2="9.3"/>
<path class="st1" d="M103.5,139.4c-0.2,0-0.5,0-0.7,0"/>
<path class="st1" d="M139.4,137.2c0-9.4,0-23.5,0-28.1"/>
<path class="st1" d="M139.4,78.1c0-9.9,0-24.7,0-29.6"/>
<path class="st1" d="M103.5,139.4c11.2,0,28.1,0,33.7,0"/>
<path class="st1" d="M17.7,78.8c12.2,0,30.4,0,36.5,0"/>
<path class="st1" d="M137.3,139.4c0.6,0,1.3-0.4,1.5-0.6c0.4-0.4,0.6-1.2,0.6-1.5"/>
<path class="st1" d="M17.7,78.1c0,0.2,0,0.5,0,0.7"/>
<path class="st1" d="M102.9,17.6c-16.2,0-40.6,0-48.7,0"/>
<path class="st1" d="M17.6,109c0-9.9,0-25.3,0-30.2"/>
<path class="st1" d="M102.9,109c0,9.5,0,23.7,0,28.4"/>
<path class="st1" d="M102.9,138.5c0,0.3,0,0.7,0,0.8"/>
<path class="st1" d="M102.9,137.4c0,0.4,0,0.9,0,1.1"/>
<path class="st1" d="M139.4,19.7c0-0.6-0.4-1.3-0.6-1.5c-0.4-0.4-1.2-0.6-1.5-0.6"/>
<path class="st1" d="M103.5,17.6c-0.2,0-0.5,0-0.7,0"/>
<path class="st1" d="M139.4,48.5c0-9.4,0-24.1,0-28.8"/>
<path class="st1" d="M137.3,17.6c-11.2,0-28.1,0-33.7,0"/>
<path class="st1" d="M54.2,109c0,9.5,0,23.7,0,28.4"/>
<path class="st1" d="M54.2,137.4c0,0.6,0,1.6,0,1.9"/>
<path class="st1" d="M54.4,20.4c16.1,0,40.2,0,48.2,0"/>
<path class="st1" d="M102.9,19.5c0,19.5,0,48.9,0,58.6"/>
<path class="st1" d="M102.6,136.5c-16.1,0-40.2,0-48.2,0"/>
<path class="st1" d="M102.6,20.4c0,38.7,0,96.8,0,116.2"/>
<path class="st1" d="M102.9,17.6c0,0.3,0,0.7,0,0.8"/>
<path class="st1" d="M102.9,18.4c0,0.4,0,0.9,0,1.1"/>
<path class="st1" d="M139.4,78.8c0-0.2,0-0.5,0-0.7"/>
<path class="st1" d="M139.4,109c0-9.9,0-25.3,0-30.2"/>
<path class="st1" d="M17.6,78.1c0-9.9,0-25.3,0-30.2"/>
<path class="st1" d="M17.7,78.1"/>
<path class="st1" d="M54.2,78.1"/>
<path class="st1" d="M54.2,48.5c0,9.9,0,24.7,0,29.6"/>
<path class="st1" d="M53.5,139.4c-11.2,0-28.1,0-33.7,0"/>
<path class="st1" d="M53.5,139.4c0.2,0,0.5,0,0.7,0"/>
<path class="st1" d="M54.4,136.5c0-38.7,0-96.8,0-116.2"/>
<path class="st1" d="M17.6,137.2c0-9.4,0-23.5,0-28.1"/>
<path class="st1" d="M19.8,139.4c-0.6,0-1.3-0.4-1.5-0.6c-0.4-0.4-0.6-1.2-0.6-1.5"/>
<path class="st1" d="M54.2,17.6c0,0.3,0,0.7,0,0.8"/>
<path class="st1" d="M54.2,19.5c0,9.7,0,24.2,0,29"/>
<path class="st1" d="M54.2,18.4c0,0.4,0,0.9,0,1.1"/>
<path class="st1" d="M17.6,47.9c0-9.4,0-23.5,0-28.1"/>
<path class="st1" d="M17.6,19.7c0-0.6,0.4-1.3,0.6-1.5c0.4-0.4,1.2-0.6,1.5-0.6"/>
<path class="st1" d="M53.5,17.6c0.2,0,0.5,0,0.7,0"/>
<path class="st1" d="M102.9,78.8c0,10.1,0,25.2,0,30.2"/>
<path class="st1" d="M139.4,78.8c-12.2,0-30.4,0-36.5,0"/>
<path class="st1" d="M54.2,78.8c0,10.1,0,25.2,0,30.2"/>
<path class="st1" d="M19.8,17.6c11.2,0,28.1,0,33.7,0"/>
<path class="st1" d="M54.2,139.3c16.2,0,40.6,0,48.7,0"/>
<path class="st1" d="M139.4,78.1"/>
<path class="st1" d="M102.9,78.1"/>
<line class="st2" x1="36" y1="44" x2="36" y2="51.7"/>
<rect x="77.5" y="29.8" class="st3" width="2.1" height="4.2"/>
<line class="st4" x1="36" y1="105.2" x2="36" y2="112.9"/>
<circle class="st4" cx="121.1" cy="109.1" r="3.8"/>
<path class="st0" d="M106.5,99.9"/>
<g>
	<path class="st5" d="M68.4,122.9c0,1.7-0.8,2.5-2.4,2.6h-0.2l1,0.9c0.5,0.6,0.6,1.1,0.1,1.7c-0.5,0.5-1,0.5-1.7,0l-2.4-2.3
		c-0.6-0.5-0.9-0.8-0.9-1.2c0-0.9,0.4-1.3,1.3-1.3H66c0.3,0,0.4-0.1,0.4-0.3s-0.1-0.3-0.4-0.3h-3c-0.7,0-1.1-0.4-1.1-1.1
		c0-0.8,0.3-1.1,1.1-1.1h2.9C67.5,120.3,68.4,121.2,68.4,122.9z"/>
	<path class="st5" d="M69,124.4c0-0.6,0.1-1.1,0.3-1.6c0.2-0.5,0.5-0.9,0.9-1.3s0.8-0.7,1.3-0.9c0.5-0.2,1-0.3,1.6-0.3
		s1.1,0.1,1.6,0.3c0.5,0.2,0.9,0.5,1.3,0.9s0.7,0.8,0.9,1.3c0.2,0.5,0.3,1,0.3,1.6s-0.1,1.1-0.3,1.6c-0.2,0.5-0.5,0.9-0.9,1.3
		s-0.8,0.7-1.3,0.9s-1,0.3-1.6,0.3s-1.1-0.1-1.6-0.3s-0.9-0.5-1.3-0.9s-0.7-0.8-0.9-1.3C69.1,125.5,69,124.9,69,124.4z M71.3,124.4
		c0,0.3,0,0.5,0.1,0.7s0.2,0.4,0.4,0.6c0.2,0.2,0.4,0.3,0.6,0.4s0.5,0.1,0.7,0.1c0.3,0,0.5,0,0.7-0.1s0.4-0.2,0.6-0.4
		s0.3-0.4,0.4-0.6s0.1-0.5,0.1-0.7c0-0.3,0-0.5-0.1-0.7s-0.2-0.4-0.4-0.6s-0.4-0.3-0.6-0.4s-0.5-0.1-0.7-0.1c-0.3,0-0.5,0-0.7,0.1
		s-0.4,0.2-0.6,0.4c-0.2,0.2-0.3,0.4-0.4,0.6S71.3,124.1,71.3,124.4z"/>
	<path d="M79.2,125.5c-0.7,0-1.1-0.4-1.1-1.1c0-0.8,0.4-1.1,1.1-1.1h3.5c0.3,0,0.4-0.1,0.4-0.3c0-0.2-0.1-0.3-0.4-0.3h-3.5
		c-0.7,0-1-0.4-1-1.1c0-0.8,0.3-1.1,1-1.1h4.3c1,0,1.6,0.3,1.8,1c0.3,0.7,0.3,1.3,0.1,2c-0.2,0.6-0.7,1-1.4,1.1
		c0.7,0.1,1.2,0.5,1.4,1.1c0.2,0.6,0.2,1.3-0.1,1.9c-0.3,0.7-0.9,1-1.8,1h-4.3c-0.7,0-1.1-0.4-1.1-1.1c0-0.8,0.4-1.1,1.1-1.1h3.4
		c0.3,0,0.4-0.1,0.4-0.3c0-0.2-0.1-0.3-0.4-0.3L79.2,125.5L79.2,125.5L79.2,125.5z"/>
	<path d="M87.7,125.5c-0.7,0-1.1-0.4-1.1-1.1c0-0.8,0.4-1.1,1.1-1.1h3.5c0.3,0,0.4-0.1,0.4-0.3c0-0.2-0.1-0.3-0.4-0.3h-3.5
		c-0.7,0-1-0.4-1-1.1c0-0.8,0.3-1.1,1-1.1H92c1,0,1.6,0.3,1.8,1c0.3,0.7,0.3,1.3,0.1,2c-0.2,0.6-0.7,1-1.4,1.1
		c0.7,0.1,1.2,0.5,1.4,1.1s0.2,1.3-0.1,1.9c-0.3,0.7-0.9,1-1.8,1h-4.3c-0.7,0-1.1-0.4-1.1-1.1c0-0.8,0.4-1.1,1.1-1.1h3.4
		c0.3,0,0.4-0.1,0.4-0.3c0-0.2-0.1-0.3-0.4-0.3L87.7,125.5L87.7,125.5z"/>
	<g>
		<path d="M62.8,130.9C62.7,130.9,62.7,130.9,62.8,130.9C62.7,130.9,62.7,130.9,62.8,130.9C62.7,130.9,62.7,130.9,62.8,130.9h-0.2
			h-0.1c-0.1,0-0.1,0-0.2,0c0,0-0.1,0-0.1,0.1l-0.1,0.1v0.1c0,0.1,0,0.1,0,0.1l0.1,0.1c0,0,0.1,0,0.1,0.1h0.1c0,0,0.1,0,0.1,0.1
			c0,0,0.1,0,0.1,0.1l0.1,0.1c0,0,0,0.1,0,0.2c0,0.1,0,0.1,0,0.2c0,0.1-0.1,0.1-0.1,0.2c0,0-0.1,0.1-0.2,0.1c-0.1,0-0.1,0-0.2,0
			c-0.1,0-0.2,0-0.3-0.1c-0.1,0-0.1-0.1-0.2-0.2l0,0l0,0l0,0l0,0c0,0,0,0,0.1,0c0,0,0,0,0.1,0H62h0.1c0.1,0,0.1,0,0.2,0
			c0,0,0.1,0,0.1-0.1l0.1-0.1v-0.1c0-0.1,0-0.1,0-0.1l-0.1-0.1c0,0-0.1,0-0.1-0.1h-0.1c0,0-0.1,0-0.1-0.1c0,0-0.1,0-0.1-0.1
			l-0.1-0.1c0,0,0-0.1,0-0.2c0-0.1,0-0.1,0-0.2s0-0.1,0.1-0.1l0.1-0.1c0.1,0,0.1,0,0.2,0c0.1,0,0.2,0,0.2,0
			C62.7,130.8,62.7,130.8,62.8,130.9L62.8,130.9z"/>
		<path d="M68.6,131.9L68.6,131.9C68.6,131.9,68.7,131.9,68.6,131.9l0.7-1.2l0,0l0,0h0.1v1.6h-0.1V131c0,0,0,0,0-0.1L68.6,131.9
			c0,0.1,0,0.1,0,0.1l0,0C68.6,132,68.6,132,68.6,131.9l-0.7-1c0,0,0,0,0,0.1v1.4h-0.1v-1.6h0.1l0,0l0,0L68.6,131.9L68.6,131.9z"/>
		<path d="M75.8,132.3L75.8,132.3C75.7,132.3,75.7,132.3,75.8,132.3L75.8,132.3l-0.3-0.5h-0.8l-0.2,0.5l0,0l0,0h-0.1l0.7-1.6h0.1
			L75.8,132.3z M74.7,131.7h0.7l-0.3-0.8l0,0l0,0l0,0l0,0L74.7,131.7z"/>
		<path d="M80.8,131.6v0.7h-0.1v-1.6h0.4c0.2,0,0.3,0,0.4,0.1s0.1,0.2,0.1,0.3s0,0.1,0,0.2s0,0.1-0.1,0.1l-0.1,0.1
			c-0.1,0-0.1,0-0.2,0l0,0l0.5,0.7h-0.1l0,0l0,0l-0.5-0.6l0,0c0,0,0,0-0.1,0H80.8L80.8,131.6L80.8,131.6z M80.8,131.5h0.3
			c0.1,0,0.1,0,0.2,0s0.1,0,0.1-0.1l0.1-0.1v-0.1c0-0.1,0-0.2-0.1-0.3s-0.2-0.1-0.3-0.1h-0.3L80.8,131.5L80.8,131.5L80.8,131.5z"/>
		<path d="M86.9,131.6v0.7h-0.1v-1.6h0.4c0.2,0,0.3,0,0.4,0.1s0.1,0.2,0.1,0.3s0,0.1,0,0.2s0,0.1-0.1,0.1l-0.1,0.1
			c-0.1,0-0.1,0-0.2,0l0,0l0.5,0.7h-0.1l0,0l0,0l-0.5-0.6l0,0c0,0,0,0-0.1,0H86.9L86.9,131.6z M86.9,131.5h0.3c0.1,0,0.1,0,0.2,0
			s0.1,0,0.1-0.1l0.1-0.1v-0.1c0-0.1,0-0.2-0.1-0.3s-0.2-0.1-0.3-0.1H87L86.9,131.5L86.9,131.5L86.9,131.5z"/>
		<path d="M93.9,130.7L93.9,130.7l-0.6,0.1v1.5h-0.1v-1.5h-0.6v-0.1H93.9z"/>
	</g>
</g>
<circle class="st2" cx="121.1" cy="47.8" r="3.8"/>
</svg>
